{"glyphs":{"0":{"ha":836,"x_min":57,"x_max":779,"o":"m 418 -17 q 223 47 304 -17 q 99 224 142 111 q 57 486 57 338 q 99 748 57 635 q 223 925 142 861 q 418 989 304 989 q 613 925 532 989 q 737 748 694 861 q 779 486 779 635 q 737 224 779 338 q 613 47 694 111 q 418 -17 532 -17 m 418 104 q 581 207 524 104 q 639 486 639 310 q 581 765 639 663 q 418 868 524 868 q 253 765 310 868 q 197 486 197 663 q 253 207 197 310 q 418 104 310 104 z "},"1":{"ha":458,"x_min":13,"x_max":358,"o":"m 229 806 q 132 737 185 763 q 13 699 79 711 l 13 819 q 251 972 154 851 l 358 972 l 358 0 l 229 0 l 229 806 z "},"2":{"ha":744,"x_min":39,"x_max":688,"o":"m 39 117 l 383 428 q 499 564 463 500 q 536 692 536 628 q 490 819 536 771 q 367 868 443 868 q 233 811 282 868 q 185 660 185 754 q 186 628 185 639 l 57 639 q 56 674 56 650 q 95 837 56 765 q 206 949 135 908 q 367 989 276 989 q 528 951 458 989 q 637 847 599 914 q 675 692 675 779 q 625 516 675 601 q 467 336 575 431 l 231 121 l 688 121 l 688 0 l 39 0 l 39 117 z "},"3":{"ha":764,"x_min":31,"x_max":707,"o":"m 367 -17 q 201 19 275 -17 q 83 121 128 56 q 31 271 39 186 l 157 290 q 226 156 168 208 q 368 104 283 104 q 513 161 457 104 q 569 307 569 218 q 517 449 569 399 q 372 500 464 500 q 318 492 346 500 q 269 471 290 485 l 214 557 l 496 851 l 57 851 l 57 972 l 656 972 l 656 856 l 399 594 q 429 596 410 596 q 574 560 511 596 q 672 458 636 524 q 707 304 707 392 q 665 138 707 211 q 545 24 622 65 q 367 -17 468 -17 z "},"4":{"ha":813,"x_min":24,"x_max":774,"o":"m 508 233 l 24 233 l 24 354 l 490 972 l 644 972 l 644 354 l 774 354 l 774 233 l 644 233 l 644 0 l 508 0 l 508 233 m 508 354 l 508 814 l 168 354 l 508 354 z "},"5":{"ha":764,"x_min":43,"x_max":708,"o":"m 381 -17 q 219 17 292 -17 q 101 113 147 51 q 43 256 54 175 l 169 278 q 239 152 182 200 q 378 104 296 104 q 517 165 464 104 q 569 322 569 226 q 515 477 569 421 q 365 533 460 533 q 251 504 301 533 q 165 419 200 475 l 68 440 l 142 972 l 642 972 l 642 851 l 242 851 l 204 569 q 290 626 239 604 q 390 649 342 649 q 557 608 485 649 q 669 493 629 567 q 708 322 708 419 q 668 146 708 222 q 553 26 628 69 q 381 -17 478 -17 z "},"6":{"ha":814,"x_min":57,"x_max":754,"o":"m 440 653 q 601 611 531 653 q 711 494 672 569 q 750 318 750 418 q 707 149 750 225 q 588 28 664 72 q 414 -17 511 -17 q 227 40 308 -17 q 101 199 146 96 q 57 435 57 301 q 114 734 57 608 q 269 924 171 860 q 493 989 368 989 q 632 967 565 989 q 754 901 699 944 l 685 794 q 597 849 646 831 q 493 868 547 868 q 287 776 368 868 q 189 529 206 683 q 297 621 233 589 q 440 653 361 653 m 614 329 q 560 478 614 421 q 421 536 507 536 q 282 496 336 536 q 189 378 228 456 q 262 176 203 249 q 411 104 321 104 q 516 134 469 104 q 588 215 563 164 q 614 329 614 267 z "},"7":{"ha":721,"x_min":26,"x_max":678,"o":"m 133 0 q 265 416 156 196 q 539 851 374 636 l 26 851 l 26 972 l 678 972 l 678 851 q 272 0 300 338 l 133 0 z "},"8":{"ha":778,"x_min":50,"x_max":728,"o":"m 390 -17 q 215 20 292 -17 q 94 124 138 57 q 50 279 50 192 q 99 431 50 365 q 235 524 149 497 q 129 608 168 553 q 90 728 90 663 q 128 865 90 806 q 233 956 165 924 q 390 989 301 989 q 547 956 479 989 q 651 865 614 924 q 688 728 688 806 q 649 607 688 663 q 543 524 610 551 q 678 431 629 497 q 728 279 728 365 q 685 124 728 192 q 565 20 642 57 q 390 -17 488 -17 m 390 569 q 511 618 467 578 q 556 725 556 658 q 510 836 556 793 q 390 879 464 879 q 268 835 315 879 q 221 725 221 792 q 267 618 221 658 q 390 569 313 578 m 390 100 q 534 151 481 100 q 588 282 588 201 q 535 406 588 360 q 390 461 483 451 q 244 406 297 451 q 190 282 190 360 q 245 151 190 201 q 390 100 300 100 z "},"9":{"ha":804,"x_min":50,"x_max":747,"o":"m 392 989 q 578 933 497 989 q 703 774 658 876 q 747 538 747 671 q 690 238 747 364 q 535 48 633 113 q 313 -17 436 -17 q 50 71 163 -17 l 119 178 q 208 123 158 142 q 311 104 258 104 q 517 197 436 104 q 615 443 599 289 q 507 351 571 383 q 364 319 443 319 q 203 361 274 319 q 94 479 133 403 q 54 654 54 556 q 97 824 54 747 q 217 944 140 900 q 392 989 294 989 m 385 436 q 523 476 469 436 q 615 592 576 515 q 543 796 601 724 q 393 868 485 868 q 289 839 335 868 q 217 759 243 810 q 190 646 190 708 q 244 494 190 553 q 385 436 299 436 z "},"\r":{"ha":333,"x_min":0,"x_max":0,"o":""}," ":{"ha":333,"x_min":0,"x_max":0,"o":""},"A":{"ha":922,"x_min":15,"x_max":907,"o":"m 672 243 l 251 243 l 157 0 l 15 0 l 400 972 l 525 972 l 907 0 l 765 0 l 672 243 m 626 363 l 463 792 l 297 363 l 626 363 z "},"Á":{"ha":922,"x_min":15,"x_max":907,"o":"m 672 243 l 251 243 l 157 0 l 15 0 l 400 972 l 525 972 l 907 0 l 765 0 l 672 243 m 626 363 l 463 792 l 297 363 l 626 363 m 507 1265 l 667 1265 l 504 1060 l 410 1060 l 507 1265 z "},"Ă":{"ha":922,"x_min":15,"x_max":907,"o":"m 672 243 l 251 243 l 157 0 l 15 0 l 400 972 l 525 972 l 907 0 l 765 0 l 672 243 m 626 363 l 463 792 l 297 363 l 626 363 m 463 1056 q 333 1107 385 1056 q 281 1235 281 1158 l 383 1235 q 406 1173 383 1197 q 463 1149 428 1149 q 519 1173 497 1149 q 542 1235 542 1197 l 644 1235 q 592 1107 644 1158 q 463 1056 540 1056 z "},"Â":{"ha":922,"x_min":15,"x_max":907,"o":"m 672 243 l 251 243 l 157 0 l 15 0 l 400 972 l 525 972 l 907 0 l 765 0 l 672 243 m 626 363 l 463 792 l 297 363 l 626 363 m 515 1265 l 676 1060 l 574 1060 l 461 1181 l 349 1060 l 247 1060 l 408 1265 l 515 1265 z "},"Ä":{"ha":922,"x_min":15,"x_max":907,"o":"m 672 243 l 251 243 l 157 0 l 15 0 l 400 972 l 525 972 l 907 0 l 765 0 l 672 243 m 626 363 l 463 792 l 297 363 l 626 363 m 338 1101 q 278 1124 301 1101 q 254 1182 254 1147 q 278 1240 254 1217 q 338 1263 301 1263 q 399 1240 375 1263 q 422 1182 422 1217 q 399 1124 422 1147 q 338 1101 375 1101 m 585 1101 q 526 1124 550 1101 q 503 1182 503 1147 q 526 1240 503 1217 q 585 1263 550 1263 q 646 1240 622 1263 q 669 1182 669 1217 q 646 1124 669 1147 q 585 1101 622 1101 z "},"À":{"ha":922,"x_min":15,"x_max":907,"o":"m 672 243 l 251 243 l 157 0 l 15 0 l 400 972 l 525 972 l 907 0 l 765 0 l 672 243 m 626 363 l 463 792 l 297 363 l 626 363 m 419 1060 l 256 1265 l 415 1265 l 513 1060 l 419 1060 z "},"Ā":{"ha":922,"x_min":15,"x_max":907,"o":"m 672 243 l 251 243 l 157 0 l 15 0 l 400 972 l 525 972 l 907 0 l 765 0 l 672 243 m 626 363 l 463 792 l 297 363 l 626 363 m 275 1203 l 649 1203 l 649 1107 l 275 1107 l 275 1203 z "},"Ą":{"ha":922,"x_min":15,"x_max":968,"o":"m 968 -256 q 903 -264 940 -264 q 788 -226 831 -264 q 744 -126 744 -189 q 760 -60 744 -93 q 804 0 776 -26 l 765 0 l 672 243 l 251 243 l 157 0 l 15 0 l 400 972 l 525 972 l 907 0 q 865 -52 879 -29 q 850 -103 850 -75 q 868 -152 850 -135 q 917 -169 886 -169 q 954 -165 942 -169 l 968 -256 m 626 363 l 463 792 l 297 363 l 626 363 z "},"Å":{"ha":922,"x_min":15,"x_max":907,"o":"m 672 243 l 251 243 l 157 0 l 15 0 l 400 972 l 525 972 l 907 0 l 765 0 l 672 243 m 626 363 l 463 792 l 297 363 l 626 363 m 463 1036 q 352 1077 396 1036 q 308 1179 308 1118 q 352 1283 308 1242 q 463 1324 396 1324 q 572 1283 528 1324 q 615 1179 615 1242 q 572 1077 615 1118 q 463 1036 528 1036 m 463 1110 q 515 1129 494 1110 q 535 1179 535 1149 q 515 1230 535 1210 q 463 1250 494 1250 q 410 1230 431 1250 q 390 1179 390 1210 q 410 1129 390 1149 q 463 1110 431 1110 z "},"Ǻ":{"ha":922,"x_min":15,"x_max":907,"o":"m 463 1036 q 352 1077 396 1036 q 308 1179 308 1118 q 340 1271 308 1232 q 424 1321 372 1310 l 514 1511 l 674 1511 l 518 1315 q 589 1263 563 1300 q 615 1179 615 1226 q 572 1077 615 1118 q 463 1036 528 1036 m 463 1250 q 410 1230 431 1250 q 390 1179 390 1210 q 410 1129 390 1149 q 463 1110 431 1110 q 515 1129 494 1110 q 535 1179 535 1149 q 515 1230 535 1210 q 463 1250 494 1250 m 672 243 l 251 243 l 157 0 l 15 0 l 400 972 l 525 972 l 907 0 l 765 0 l 672 243 m 626 363 l 463 792 l 297 363 l 626 363 z "},"Ã":{"ha":922,"x_min":15,"x_max":907,"o":"m 672 243 l 251 243 l 157 0 l 15 0 l 400 972 l 525 972 l 907 0 l 765 0 l 672 243 m 626 363 l 463 792 l 297 363 l 626 363 m 478 1218 q 524 1190 508 1199 q 561 1182 540 1182 q 604 1200 588 1182 q 624 1251 621 1218 l 717 1236 q 669 1126 710 1167 q 561 1086 628 1086 q 456 1121 510 1086 q 430 1138 446 1126 q 401 1154 414 1149 q 372 1160 388 1160 q 328 1141 346 1160 q 308 1089 311 1122 l 217 1104 q 265 1213 224 1172 q 369 1254 306 1254 q 478 1218 426 1254 z "},"Æ":{"ha":1335,"x_min":7,"x_max":1278,"o":"m 1278 121 l 1278 0 l 644 0 l 644 249 l 299 249 l 160 0 l 7 0 l 558 972 l 1263 972 l 1263 851 l 781 851 l 781 572 l 1172 572 l 1172 451 l 781 451 l 781 121 l 1278 121 m 644 369 l 644 868 l 367 369 l 644 369 z "},"Ǽ":{"ha":1335,"x_min":7,"x_max":1278,"o":"m 1278 121 l 1278 0 l 644 0 l 644 249 l 299 249 l 160 0 l 7 0 l 558 972 l 1263 972 l 1263 851 l 781 851 l 781 572 l 1172 572 l 1172 451 l 781 451 l 781 121 l 1278 121 m 644 369 l 644 868 l 367 369 l 644 369 m 746 1265 l 906 1265 l 743 1060 l 649 1060 l 746 1265 z "},"B":{"ha":858,"x_min":100,"x_max":801,"o":"m 100 972 l 457 972 q 676 906 596 972 q 757 722 757 840 q 719 606 757 658 q 631 532 682 554 q 755 442 708 504 q 801 285 801 381 q 715 76 801 153 q 478 0 629 0 l 100 0 l 100 972 m 450 569 q 578 606 533 569 q 624 711 624 642 q 578 817 624 781 q 449 854 533 854 l 238 854 l 238 569 l 450 569 m 457 118 q 615 162 561 118 q 668 288 668 206 q 615 413 668 369 q 457 456 561 456 l 238 456 l 238 118 l 457 118 z "},"C":{"ha":958,"x_min":57,"x_max":910,"o":"m 511 -17 q 285 41 389 -17 q 119 212 182 99 q 57 486 57 325 q 119 761 57 647 q 286 932 182 875 q 511 989 390 989 q 769 905 664 989 q 910 674 874 821 l 775 644 q 683 808 753 749 q 510 867 613 867 q 348 822 418 867 q 238 692 278 778 q 197 486 197 606 q 238 281 197 367 q 348 150 278 194 q 510 106 418 106 q 681 162 613 106 q 772 319 749 218 l 908 289 q 767 65 872 147 q 511 -17 661 -17 z "},"Ć":{"ha":958,"x_min":57,"x_max":910,"o":"m 511 -17 q 285 41 389 -17 q 119 212 182 99 q 57 486 57 325 q 119 761 57 647 q 286 932 182 875 q 511 989 390 989 q 769 905 664 989 q 910 674 874 821 l 775 644 q 683 808 753 749 q 510 867 613 867 q 348 822 418 867 q 238 692 278 778 q 197 486 197 606 q 238 281 197 367 q 348 150 278 194 q 510 106 418 106 q 681 162 613 106 q 772 319 749 218 l 908 289 q 767 65 872 147 q 511 -17 661 -17 m 543 1265 l 703 1265 l 540 1060 l 446 1060 l 543 1265 z "},"Č":{"ha":958,"x_min":57,"x_max":910,"o":"m 511 -17 q 285 41 389 -17 q 119 212 182 99 q 57 486 57 325 q 119 761 57 647 q 286 932 182 875 q 511 989 390 989 q 769 905 664 989 q 910 674 874 821 l 775 644 q 683 808 753 749 q 510 867 613 867 q 348 822 418 867 q 238 692 278 778 q 197 486 197 606 q 238 281 197 367 q 348 150 278 194 q 510 106 418 106 q 681 162 613 106 q 772 319 749 218 l 908 289 q 767 65 872 147 q 511 -17 661 -17 m 285 1265 l 386 1265 l 499 1144 l 611 1265 l 714 1265 l 553 1060 l 446 1060 l 285 1265 z "},"Ç":{"ha":958,"x_min":57,"x_max":910,"o":"m 510 106 q 681 162 613 106 q 772 319 749 218 l 908 289 q 783 78 876 160 q 556 -15 689 -3 l 464 -204 l 304 -204 l 454 -14 q 254 60 344 -1 q 110 229 164 121 q 57 486 57 338 q 119 761 57 647 q 286 932 182 875 q 511 989 390 989 q 769 905 664 989 q 910 674 874 821 l 775 644 q 683 808 753 749 q 510 867 613 867 q 348 822 418 867 q 238 692 278 778 q 197 486 197 606 q 238 281 197 367 q 348 150 278 194 q 510 106 418 106 z "},"Ĉ":{"ha":958,"x_min":57,"x_max":910,"o":"m 511 -17 q 285 41 389 -17 q 119 212 182 99 q 57 486 57 325 q 119 761 57 647 q 286 932 182 875 q 511 989 390 989 q 769 905 664 989 q 910 674 874 821 l 775 644 q 683 808 753 749 q 510 867 613 867 q 348 822 418 867 q 238 692 278 778 q 197 486 197 606 q 238 281 197 367 q 348 150 278 194 q 510 106 418 106 q 681 162 613 106 q 772 319 749 218 l 908 289 q 767 65 872 147 q 511 -17 661 -17 m 553 1265 l 714 1060 l 611 1060 l 499 1181 l 386 1060 l 285 1060 l 446 1265 l 553 1265 z "},"Ċ":{"ha":958,"x_min":57,"x_max":910,"o":"m 511 -17 q 285 41 389 -17 q 119 212 182 99 q 57 486 57 325 q 119 761 57 647 q 286 932 182 875 q 511 989 390 989 q 769 905 664 989 q 910 674 874 821 l 775 644 q 683 808 753 749 q 510 867 613 867 q 348 822 418 867 q 238 692 278 778 q 197 486 197 606 q 238 281 197 367 q 348 150 278 194 q 510 106 418 106 q 681 162 613 106 q 772 319 749 218 l 908 289 q 767 65 872 147 q 511 -17 661 -17 m 497 1096 q 435 1122 461 1096 q 410 1183 410 1147 q 435 1247 410 1221 q 497 1272 461 1272 q 562 1247 536 1272 q 588 1183 588 1221 q 562 1121 588 1146 q 497 1096 536 1096 z "},"D":{"ha":940,"x_min":100,"x_max":883,"o":"m 100 972 l 396 972 q 644 915 533 972 q 819 749 754 858 q 883 486 883 639 q 819 224 883 333 q 644 57 754 114 q 396 0 533 0 l 100 0 l 100 972 m 389 121 q 565 160 485 121 q 694 281 646 199 q 743 486 743 363 q 694 692 743 610 q 565 813 646 774 q 389 851 485 851 l 235 851 l 235 121 l 389 121 z "},"Ð":{"ha":943,"x_min":17,"x_max":886,"o":"m 399 972 q 647 915 536 972 q 822 749 757 858 q 886 486 886 639 q 822 224 886 333 q 647 57 757 114 q 399 0 536 0 l 103 0 l 103 440 l 17 440 l 17 535 l 103 535 l 103 972 l 399 972 m 392 121 q 568 160 488 121 q 697 281 649 199 q 746 486 746 363 q 697 692 746 610 q 568 813 649 774 q 392 851 488 851 l 238 851 l 238 535 l 424 535 l 424 440 l 238 440 l 238 121 l 392 121 z "},"Ď":{"ha":940,"x_min":100,"x_max":883,"o":"m 100 972 l 396 972 q 644 915 533 972 q 819 749 754 858 q 883 486 883 639 q 819 224 883 333 q 644 57 754 114 q 396 0 533 0 l 100 0 l 100 972 m 389 121 q 565 160 485 121 q 694 281 646 199 q 743 486 743 363 q 694 692 743 610 q 565 813 646 774 q 389 851 485 851 l 235 851 l 235 121 l 389 121 m 204 1265 l 306 1265 l 418 1144 l 531 1265 l 633 1265 l 472 1060 l 365 1060 l 204 1265 z "},"Đ":{"ha":943,"x_min":17,"x_max":886,"o":"m 399 972 q 647 915 536 972 q 822 749 757 858 q 886 486 886 639 q 822 224 886 333 q 647 57 757 114 q 399 0 536 0 l 103 0 l 103 440 l 17 440 l 17 535 l 103 535 l 103 972 l 399 972 m 392 121 q 568 160 488 121 q 697 281 649 199 q 746 486 746 363 q 697 692 746 610 q 568 813 649 774 q 392 851 488 851 l 238 851 l 238 535 l 424 535 l 424 440 l 238 440 l 238 121 l 392 121 z "},"E":{"ha":792,"x_min":100,"x_max":735,"o":"m 735 121 l 735 0 l 100 0 l 100 972 l 719 972 l 719 851 l 238 851 l 238 572 l 628 572 l 628 451 l 238 451 l 238 121 l 735 121 z "},"É":{"ha":792,"x_min":100,"x_max":735,"o":"m 735 121 l 735 0 l 100 0 l 100 972 l 719 972 l 719 851 l 238 851 l 238 572 l 628 572 l 628 451 l 238 451 l 238 121 l 735 121 m 456 1265 l 615 1265 l 453 1060 l 358 1060 l 456 1265 z "},"Ĕ":{"ha":792,"x_min":100,"x_max":735,"o":"m 735 121 l 735 0 l 100 0 l 100 972 l 719 972 l 719 851 l 238 851 l 238 572 l 628 572 l 628 451 l 238 451 l 238 121 l 735 121 m 411 1056 q 281 1107 333 1056 q 229 1235 229 1158 l 332 1235 q 354 1173 332 1197 q 411 1149 376 1149 q 468 1173 446 1149 q 490 1235 490 1197 l 593 1235 q 541 1107 593 1158 q 411 1056 489 1056 z "},"Ě":{"ha":792,"x_min":100,"x_max":735,"o":"m 735 121 l 735 0 l 100 0 l 100 972 l 719 972 l 719 851 l 238 851 l 238 572 l 628 572 l 628 451 l 238 451 l 238 121 l 735 121 m 196 1265 l 297 1265 l 410 1144 l 522 1265 l 625 1265 l 464 1060 l 357 1060 l 196 1265 z "},"Ê":{"ha":792,"x_min":100,"x_max":735,"o":"m 735 121 l 735 0 l 100 0 l 100 972 l 719 972 l 719 851 l 238 851 l 238 572 l 628 572 l 628 451 l 238 451 l 238 121 l 735 121 m 464 1265 l 625 1060 l 522 1060 l 410 1181 l 297 1060 l 196 1060 l 357 1265 l 464 1265 z "},"Ë":{"ha":792,"x_min":100,"x_max":735,"o":"m 735 121 l 735 0 l 100 0 l 100 972 l 719 972 l 719 851 l 238 851 l 238 572 l 628 572 l 628 451 l 238 451 l 238 121 l 735 121 m 286 1101 q 226 1124 250 1101 q 203 1182 203 1147 q 226 1240 203 1217 q 286 1263 250 1263 q 347 1240 324 1263 q 371 1182 371 1217 q 347 1124 371 1147 q 286 1101 324 1101 m 533 1101 q 475 1124 499 1101 q 451 1182 451 1147 q 475 1240 451 1217 q 533 1263 499 1263 q 594 1240 571 1263 q 618 1182 618 1217 q 594 1124 618 1147 q 533 1101 571 1101 z "},"Ė":{"ha":792,"x_min":100,"x_max":735,"o":"m 735 121 l 735 0 l 100 0 l 100 972 l 719 972 l 719 851 l 238 851 l 238 572 l 628 572 l 628 451 l 238 451 l 238 121 l 735 121 m 410 1096 q 348 1122 374 1096 q 322 1183 322 1147 q 348 1247 322 1221 q 410 1272 374 1272 q 474 1247 449 1272 q 500 1183 500 1221 q 474 1121 500 1146 q 410 1096 449 1096 z "},"È":{"ha":792,"x_min":100,"x_max":735,"o":"m 735 121 l 735 0 l 100 0 l 100 972 l 719 972 l 719 851 l 238 851 l 238 572 l 628 572 l 628 451 l 238 451 l 238 121 l 735 121 m 368 1060 l 204 1265 l 364 1265 l 461 1060 l 368 1060 z "},"Ē":{"ha":792,"x_min":100,"x_max":735,"o":"m 735 121 l 735 0 l 100 0 l 100 972 l 719 972 l 719 851 l 238 851 l 238 572 l 628 572 l 628 451 l 238 451 l 238 121 l 735 121 m 224 1203 l 597 1203 l 597 1107 l 224 1107 l 224 1203 z "},"Ę":{"ha":792,"x_min":100,"x_max":796,"o":"m 796 -256 q 729 -264 765 -264 q 615 -226 658 -264 q 572 -126 572 -189 q 588 -60 572 -93 q 632 0 604 -26 l 100 0 l 100 972 l 719 972 l 719 851 l 238 851 l 238 572 l 628 572 l 628 451 l 238 451 l 238 121 l 735 121 l 735 0 q 692 -51 707 -28 q 678 -103 678 -75 q 696 -152 678 -135 q 744 -169 714 -169 q 782 -165 769 -169 l 796 -256 z "},"F":{"ha":774,"x_min":100,"x_max":729,"o":"m 100 972 l 729 972 l 729 851 l 238 851 l 238 574 l 639 574 l 639 453 l 238 453 l 238 0 l 100 0 l 100 972 z "},"G":{"ha":1044,"x_min":57,"x_max":981,"o":"m 538 -17 q 288 47 397 -17 q 117 226 178 111 q 57 486 57 340 q 117 747 57 632 q 287 925 178 861 q 536 989 396 989 q 817 905 700 989 q 967 676 935 821 l 831 647 q 731 808 810 750 q 536 867 651 867 q 357 819 435 867 q 236 685 279 771 q 193 486 193 599 q 236 288 193 374 q 357 153 279 201 q 536 106 435 106 q 688 142 621 106 q 795 242 756 178 q 839 389 835 307 l 471 389 l 471 504 l 981 504 l 981 454 q 925 208 981 315 q 769 42 869 101 q 538 -17 668 -17 z "},"Ğ":{"ha":1044,"x_min":57,"x_max":981,"o":"m 538 -17 q 288 47 397 -17 q 117 226 178 111 q 57 486 57 340 q 117 747 57 632 q 287 925 178 861 q 536 989 396 989 q 817 905 700 989 q 967 676 935 821 l 831 647 q 731 808 810 750 q 536 867 651 867 q 357 819 435 867 q 236 685 279 771 q 193 486 193 599 q 236 288 193 374 q 357 153 279 201 q 536 106 435 106 q 688 142 621 106 q 795 242 756 178 q 839 389 835 307 l 471 389 l 471 504 l 981 504 l 981 454 q 925 208 981 315 q 769 42 869 101 q 538 -17 668 -17 m 525 1056 q 395 1107 447 1056 q 343 1235 343 1158 l 446 1235 q 468 1173 446 1197 q 525 1149 490 1149 q 582 1173 560 1149 q 604 1235 604 1197 l 707 1235 q 655 1107 707 1158 q 525 1056 603 1056 z "},"Ĝ":{"ha":1044,"x_min":57,"x_max":981,"o":"m 538 -17 q 288 47 397 -17 q 117 226 178 111 q 57 486 57 340 q 117 747 57 632 q 287 925 178 861 q 536 989 396 989 q 817 905 700 989 q 967 676 935 821 l 831 647 q 731 808 810 750 q 536 867 651 867 q 357 819 435 867 q 236 685 279 771 q 193 486 193 599 q 236 288 193 374 q 357 153 279 201 q 536 106 435 106 q 688 142 621 106 q 795 242 756 178 q 839 389 835 307 l 471 389 l 471 504 l 981 504 l 981 454 q 925 208 981 315 q 769 42 869 101 q 538 -17 668 -17 m 579 1265 l 740 1060 l 638 1060 l 525 1181 l 413 1060 l 311 1060 l 472 1265 l 579 1265 z "},"Ģ":{"ha":1044,"x_min":57,"x_max":981,"o":"m 538 -17 q 288 47 397 -17 q 117 226 178 111 q 57 486 57 340 q 117 747 57 632 q 287 925 178 861 q 536 989 396 989 q 817 905 700 989 q 967 676 935 821 l 831 647 q 731 808 810 750 q 536 867 651 867 q 357 819 435 867 q 236 685 279 771 q 193 486 193 599 q 236 288 193 374 q 357 153 279 201 q 536 106 435 106 q 688 142 621 106 q 795 242 756 178 q 839 389 835 307 l 471 389 l 471 504 l 981 504 l 981 454 q 925 208 981 315 q 769 42 869 101 q 538 -17 668 -17 m 454 -58 l 601 -58 l 489 -264 l 394 -264 l 454 -58 z "},"Ġ":{"ha":1044,"x_min":57,"x_max":981,"o":"m 538 -17 q 288 47 397 -17 q 117 226 178 111 q 57 486 57 340 q 117 747 57 632 q 287 925 178 861 q 536 989 396 989 q 817 905 700 989 q 967 676 935 821 l 831 647 q 731 808 810 750 q 536 867 651 867 q 357 819 435 867 q 236 685 279 771 q 193 486 193 599 q 236 288 193 374 q 357 153 279 201 q 536 106 435 106 q 688 142 621 106 q 795 242 756 178 q 839 389 835 307 l 471 389 l 471 504 l 981 504 l 981 454 q 925 208 981 315 q 769 42 869 101 q 538 -17 668 -17 m 524 1096 q 462 1122 488 1096 q 436 1183 436 1147 q 462 1247 436 1221 q 524 1272 488 1272 q 588 1247 563 1272 q 614 1183 614 1221 q 588 1121 614 1146 q 524 1096 563 1096 z "},"H":{"ha":967,"x_min":100,"x_max":865,"o":"m 865 972 l 865 0 l 729 0 l 729 453 l 238 453 l 238 0 l 100 0 l 100 972 l 238 972 l 238 574 l 729 574 l 729 972 l 865 972 z "},"Ħ":{"ha":967,"x_min":1,"x_max":963,"o":"m 963 719 l 865 719 l 865 0 l 729 0 l 729 453 l 238 453 l 238 0 l 100 0 l 100 719 l 1 719 l 1 825 l 100 825 l 100 972 l 238 972 l 238 825 l 729 825 l 729 972 l 865 972 l 865 825 l 963 825 l 963 719 m 729 719 l 238 719 l 238 574 l 729 574 l 729 719 z "},"Ĥ":{"ha":967,"x_min":100,"x_max":865,"o":"m 865 972 l 865 0 l 729 0 l 729 453 l 238 453 l 238 0 l 100 0 l 100 972 l 238 972 l 238 574 l 729 574 l 729 972 l 865 972 m 536 1265 l 697 1060 l 594 1060 l 482 1181 l 369 1060 l 268 1060 l 429 1265 l 536 1265 z "},"I":{"ha":338,"x_min":100,"x_max":238,"o":"m 100 972 l 238 972 l 238 0 l 100 0 l 100 972 z "},"Ĳ":{"ha":1071,"x_min":100,"x_max":971,"o":"m 100 972 l 238 972 l 238 0 l 100 0 l 100 972 m 490 294 q 544 156 497 207 q 663 106 590 106 q 787 165 740 106 q 833 328 833 224 l 833 972 l 971 972 l 971 329 q 932 144 971 222 q 824 24 893 65 q 665 -17 756 -17 q 463 57 544 -17 q 363 260 381 131 l 490 294 z "},"Í":{"ha":338,"x_min":100,"x_max":372,"o":"m 100 972 l 238 972 l 238 0 l 100 0 l 100 972 m 213 1265 l 372 1265 l 210 1060 l 115 1060 l 213 1265 z "},"Ĭ":{"ha":338,"x_min":-14,"x_max":350,"o":"m 100 972 l 238 972 l 238 0 l 100 0 l 100 972 m 168 1056 q 38 1107 90 1056 q -14 1235 -14 1158 l 89 1235 q 111 1173 89 1197 q 168 1149 133 1149 q 225 1173 203 1149 q 247 1235 247 1197 l 350 1235 q 298 1107 350 1158 q 168 1056 246 1056 z "},"Î":{"ha":338,"x_min":-46,"x_max":383,"o":"m 100 972 l 238 972 l 238 0 l 100 0 l 100 972 m 222 1265 l 383 1060 l 281 1060 l 168 1181 l 56 1060 l -46 1060 l 115 1265 l 222 1265 z "},"Ï":{"ha":338,"x_min":-39,"x_max":376,"o":"m 100 972 l 238 972 l 238 0 l 100 0 l 100 972 m 44 1101 q -15 1124 8 1101 q -39 1182 -39 1147 q -15 1240 -39 1217 q 44 1263 8 1263 q 106 1240 82 1263 q 129 1182 129 1217 q 106 1124 129 1147 q 44 1101 82 1101 m 292 1101 q 233 1124 257 1101 q 210 1182 210 1147 q 233 1240 210 1217 q 292 1263 257 1263 q 353 1240 329 1263 q 376 1182 376 1217 q 353 1124 376 1147 q 292 1101 329 1101 z "},"İ":{"ha":338,"x_min":79,"x_max":257,"o":"m 100 972 l 238 972 l 238 0 l 100 0 l 100 972 m 167 1096 q 105 1122 131 1096 q 79 1183 79 1147 q 105 1247 79 1221 q 167 1272 131 1272 q 231 1247 206 1272 q 257 1183 257 1221 q 231 1121 257 1146 q 167 1096 206 1096 z "},"Ì":{"ha":338,"x_min":-37,"x_max":238,"o":"m 100 972 l 238 972 l 238 0 l 100 0 l 100 972 m 126 1060 l -37 1265 l 122 1265 l 219 1060 l 126 1060 z "},"Ī":{"ha":338,"x_min":-18,"x_max":356,"o":"m 100 972 l 238 972 l 238 0 l 100 0 l 100 972 m -18 1203 l 356 1203 l 356 1107 l -18 1107 l -18 1203 z "},"Į":{"ha":338,"x_min":74,"x_max":299,"o":"m 299 -256 q 232 -264 268 -264 q 117 -226 160 -264 q 74 -126 74 -187 q 90 -60 74 -93 q 133 0 106 -26 l 100 0 l 100 972 l 238 972 l 238 0 q 194 -52 208 -29 q 179 -103 179 -75 q 198 -152 179 -135 q 247 -169 217 -169 q 283 -165 274 -169 l 299 -256 z "},"Ĩ":{"ha":338,"x_min":-76,"x_max":424,"o":"m 100 972 l 238 972 l 238 0 l 100 0 l 100 972 m 185 1218 q 231 1190 215 1199 q 268 1182 247 1182 q 311 1200 294 1182 q 331 1251 328 1218 l 424 1236 q 376 1126 417 1167 q 268 1086 335 1086 q 163 1121 217 1086 q 137 1138 153 1126 q 108 1154 121 1149 q 79 1160 94 1160 q 35 1141 53 1160 q 15 1089 18 1122 l -76 1104 q -28 1213 -69 1172 q 76 1254 13 1254 q 185 1218 133 1254 z "},"J":{"ha":733,"x_min":25,"x_max":633,"o":"m 153 294 q 206 156 160 207 q 325 106 253 106 q 449 165 403 106 q 496 328 496 224 l 496 972 l 633 972 l 633 329 q 594 144 633 222 q 487 24 556 65 q 328 -17 418 -17 q 125 57 207 -17 q 25 260 43 131 l 153 294 z "},"Ĵ":{"ha":733,"x_min":25,"x_max":778,"o":"m 153 294 q 206 156 160 207 q 325 106 253 106 q 449 165 403 106 q 496 328 496 224 l 496 972 l 633 972 l 633 329 q 594 144 633 222 q 487 24 556 65 q 328 -17 418 -17 q 125 57 207 -17 q 25 260 43 131 l 153 294 m 617 1265 l 778 1060 l 675 1060 l 563 1181 l 450 1060 l 349 1060 l 510 1265 l 617 1265 z "},"K":{"ha":879,"x_min":100,"x_max":864,"o":"m 283 453 l 238 453 l 238 0 l 100 0 l 100 972 l 238 972 l 238 574 l 283 574 l 663 972 l 835 972 l 394 518 l 864 0 l 682 0 l 283 453 z "},"Ķ":{"ha":879,"x_min":100,"x_max":864,"o":"m 283 453 l 238 453 l 238 0 l 100 0 l 100 972 l 238 972 l 238 574 l 283 574 l 663 972 l 835 972 l 394 518 l 864 0 l 682 0 l 283 453 m 349 -58 l 496 -58 l 383 -264 l 289 -264 l 349 -58 z "},"L":{"ha":749,"x_min":100,"x_max":715,"o":"m 100 972 l 238 972 l 238 121 l 715 121 l 715 0 l 100 0 l 100 972 z "},"Ĺ":{"ha":749,"x_min":100,"x_max":715,"o":"m 100 972 l 238 972 l 238 121 l 715 121 l 715 0 l 100 0 l 100 972 m 206 1265 l 365 1265 l 203 1060 l 108 1060 l 206 1265 z "},"Ľ":{"ha":749,"x_min":100,"x_max":715,"o":"m 100 972 l 238 972 l 238 121 l 715 121 l 715 0 l 100 0 l 100 972 m 356 1033 l 488 1033 l 389 789 l 311 789 l 356 1033 z "},"Ļ":{"ha":749,"x_min":100,"x_max":715,"o":"m 100 972 l 238 972 l 238 121 l 715 121 l 715 0 l 100 0 l 100 972 m 340 -58 l 488 -58 l 375 -264 l 281 -264 l 340 -58 z "},"Ŀ":{"ha":749,"x_min":100,"x_max":715,"o":"m 100 972 l 238 972 l 238 121 l 715 121 l 715 0 l 100 0 l 100 972 z "},"Ł":{"ha":775,"x_min":-11,"x_max":742,"o":"m 742 121 l 742 0 l 128 0 l 128 390 l -11 318 l -11 414 l 128 488 l 128 972 l 264 972 l 264 560 l 586 729 l 586 631 l 264 463 l 264 121 l 742 121 z "},"M":{"ha":1271,"x_min":63,"x_max":1208,"o":"m 208 972 l 368 972 l 635 340 l 903 972 l 1063 972 l 1208 0 l 1071 0 l 951 776 l 688 149 l 582 149 l 318 776 l 199 0 l 63 0 l 208 972 z "},"N":{"ha":960,"x_min":100,"x_max":860,"o":"m 100 972 l 246 972 l 731 206 l 731 972 l 860 972 l 860 0 l 714 0 l 229 763 l 229 0 l 100 0 l 100 972 z "},"Ń":{"ha":960,"x_min":100,"x_max":860,"o":"m 100 972 l 246 972 l 731 206 l 731 972 l 860 972 l 860 0 l 714 0 l 229 763 l 229 0 l 100 0 l 100 972 m 528 1265 l 688 1265 l 525 1060 l 431 1060 l 528 1265 z "},"Ň":{"ha":960,"x_min":100,"x_max":860,"o":"m 100 972 l 246 972 l 731 206 l 731 972 l 860 972 l 860 0 l 714 0 l 229 763 l 229 0 l 100 0 l 100 972 m 269 1265 l 371 1265 l 483 1144 l 596 1265 l 699 1265 l 538 1060 l 431 1060 l 269 1265 z "},"Ņ":{"ha":960,"x_min":100,"x_max":860,"o":"m 100 972 l 246 972 l 731 206 l 731 972 l 860 972 l 860 0 l 714 0 l 229 763 l 229 0 l 100 0 l 100 972 m 410 -58 l 557 -58 l 444 -264 l 350 -264 l 410 -58 z "},"Ŋ":{"ha":960,"x_min":100,"x_max":860,"o":"m 860 972 l 860 -57 q 801 -215 860 -157 q 644 -274 743 -274 l 614 -272 l 614 -158 q 629 -160 615 -160 q 706 -131 682 -160 q 731 -39 731 -101 l 731 -8 l 229 763 l 229 0 l 100 0 l 100 972 l 246 972 l 731 208 l 731 972 l 860 972 z "},"Ñ":{"ha":960,"x_min":100,"x_max":860,"o":"m 100 972 l 246 972 l 731 206 l 731 972 l 860 972 l 860 0 l 714 0 l 229 763 l 229 0 l 100 0 l 100 972 m 499 1218 q 545 1190 529 1199 q 582 1182 561 1182 q 625 1200 608 1182 q 644 1251 642 1218 l 738 1236 q 690 1126 731 1167 q 582 1086 649 1086 q 476 1121 531 1086 q 451 1138 467 1126 q 422 1154 435 1149 q 393 1160 408 1160 q 349 1141 367 1160 q 329 1089 332 1122 l 238 1104 q 285 1213 244 1172 q 390 1254 326 1254 q 499 1218 447 1254 z "},"O":{"ha":1038,"x_min":57,"x_max":981,"o":"m 519 989 q 756 924 650 989 q 921 744 861 858 q 981 486 981 629 q 921 228 981 343 q 756 49 861 114 q 519 -17 650 -17 q 281 49 386 -17 q 117 228 176 114 q 57 486 57 343 q 117 744 57 629 q 281 924 176 858 q 519 989 386 989 m 518 867 q 353 817 426 867 q 239 681 281 768 q 197 486 197 594 q 239 291 197 378 q 353 155 281 204 q 518 106 426 106 q 683 155 610 106 q 799 291 757 204 q 840 486 840 378 q 799 681 840 594 q 683 817 757 768 q 518 867 610 867 z "},"Ó":{"ha":1038,"x_min":57,"x_max":981,"o":"m 519 989 q 756 924 650 989 q 921 744 861 858 q 981 486 981 629 q 921 228 981 343 q 756 49 861 114 q 519 -17 650 -17 q 281 49 386 -17 q 117 228 176 114 q 57 486 57 343 q 117 744 57 629 q 281 924 176 858 q 519 989 386 989 m 518 867 q 353 817 426 867 q 239 681 281 768 q 197 486 197 594 q 239 291 197 378 q 353 155 281 204 q 518 106 426 106 q 683 155 610 106 q 799 291 757 204 q 840 486 840 378 q 799 681 840 594 q 683 817 757 768 q 518 867 610 867 m 564 1265 l 724 1265 l 561 1060 l 467 1060 l 564 1265 z "},"Ŏ":{"ha":1038,"x_min":57,"x_max":981,"o":"m 519 989 q 756 924 650 989 q 921 744 861 858 q 981 486 981 629 q 921 228 981 343 q 756 49 861 114 q 519 -17 650 -17 q 281 49 386 -17 q 117 228 176 114 q 57 486 57 343 q 117 744 57 629 q 281 924 176 858 q 519 989 386 989 m 518 867 q 353 817 426 867 q 239 681 281 768 q 197 486 197 594 q 239 291 197 378 q 353 155 281 204 q 518 106 426 106 q 683 155 610 106 q 799 291 757 204 q 840 486 840 378 q 799 681 840 594 q 683 817 757 768 q 518 867 610 867 m 519 1056 q 390 1107 442 1056 q 338 1235 338 1158 l 440 1235 q 463 1173 440 1197 q 519 1149 485 1149 q 576 1173 554 1149 q 599 1235 599 1197 l 701 1235 q 649 1107 701 1158 q 519 1056 597 1056 z "},"Ô":{"ha":1038,"x_min":57,"x_max":981,"o":"m 519 989 q 756 924 650 989 q 921 744 861 858 q 981 486 981 629 q 921 228 981 343 q 756 49 861 114 q 519 -17 650 -17 q 281 49 386 -17 q 117 228 176 114 q 57 486 57 343 q 117 744 57 629 q 281 924 176 858 q 519 989 386 989 m 518 867 q 353 817 426 867 q 239 681 281 768 q 197 486 197 594 q 239 291 197 378 q 353 155 281 204 q 518 106 426 106 q 683 155 610 106 q 799 291 757 204 q 840 486 840 378 q 799 681 840 594 q 683 817 757 768 q 518 867 610 867 m 572 1265 l 733 1060 l 631 1060 l 518 1181 l 406 1060 l 304 1060 l 465 1265 l 572 1265 z "},"Ö":{"ha":1038,"x_min":57,"x_max":981,"o":"m 519 989 q 756 924 650 989 q 921 744 861 858 q 981 486 981 629 q 921 228 981 343 q 756 49 861 114 q 519 -17 650 -17 q 281 49 386 -17 q 117 228 176 114 q 57 486 57 343 q 117 744 57 629 q 281 924 176 858 q 519 989 386 989 m 518 867 q 353 817 426 867 q 239 681 281 768 q 197 486 197 594 q 239 291 197 378 q 353 155 281 204 q 518 106 426 106 q 683 155 610 106 q 799 291 757 204 q 840 486 840 378 q 799 681 840 594 q 683 817 757 768 q 518 867 610 867 m 394 1101 q 335 1124 358 1101 q 311 1182 311 1147 q 335 1240 311 1217 q 394 1263 358 1263 q 456 1240 432 1263 q 479 1182 479 1217 q 456 1124 479 1147 q 394 1101 432 1101 m 642 1101 q 583 1124 607 1101 q 560 1182 560 1147 q 583 1240 560 1217 q 642 1263 607 1263 q 703 1240 679 1263 q 726 1182 726 1217 q 703 1124 726 1147 q 642 1101 679 1101 z "},"Ò":{"ha":1038,"x_min":57,"x_max":981,"o":"m 519 989 q 756 924 650 989 q 921 744 861 858 q 981 486 981 629 q 921 228 981 343 q 756 49 861 114 q 519 -17 650 -17 q 281 49 386 -17 q 117 228 176 114 q 57 486 57 343 q 117 744 57 629 q 281 924 176 858 q 519 989 386 989 m 518 867 q 353 817 426 867 q 239 681 281 768 q 197 486 197 594 q 239 291 197 378 q 353 155 281 204 q 518 106 426 106 q 683 155 610 106 q 799 291 757 204 q 840 486 840 378 q 799 681 840 594 q 683 817 757 768 q 518 867 610 867 m 476 1060 l 313 1265 l 472 1265 l 569 1060 l 476 1060 z "},"Ő":{"ha":1038,"x_min":57,"x_max":981,"o":"m 519 989 q 756 924 650 989 q 921 744 861 858 q 981 486 981 629 q 921 228 981 343 q 756 49 861 114 q 519 -17 650 -17 q 281 49 386 -17 q 117 228 176 114 q 57 486 57 343 q 117 744 57 629 q 281 924 176 858 q 519 989 386 989 m 518 867 q 353 817 426 867 q 239 681 281 768 q 197 486 197 594 q 239 291 197 378 q 353 155 281 204 q 518 106 426 106 q 683 155 610 106 q 799 291 757 204 q 840 486 840 378 q 799 681 840 594 q 683 817 757 768 q 518 867 610 867 m 450 1265 l 571 1265 l 463 1060 l 353 1060 l 450 1265 m 649 1265 l 774 1265 l 660 1060 l 551 1060 l 649 1265 z "},"Ō":{"ha":1038,"x_min":57,"x_max":981,"o":"m 519 989 q 756 924 650 989 q 921 744 861 858 q 981 486 981 629 q 921 228 981 343 q 756 49 861 114 q 519 -17 650 -17 q 281 49 386 -17 q 117 228 176 114 q 57 486 57 343 q 117 744 57 629 q 281 924 176 858 q 519 989 386 989 m 518 867 q 353 817 426 867 q 239 681 281 768 q 197 486 197 594 q 239 291 197 378 q 353 155 281 204 q 518 106 426 106 q 683 155 610 106 q 799 291 757 204 q 840 486 840 378 q 799 681 840 594 q 683 817 757 768 q 518 867 610 867 m 332 1203 l 706 1203 l 706 1107 l 332 1107 l 332 1203 z "},"Ø":{"ha":1038,"x_min":57,"x_max":981,"o":"m 832 864 q 942 698 903 796 q 981 486 981 600 q 921 228 981 343 q 756 49 861 114 q 519 -17 650 -17 q 290 43 393 -17 l 206 -85 l 119 -22 l 206 108 q 96 274 135 176 q 57 486 57 372 q 117 744 57 629 q 281 924 176 858 q 519 989 386 989 q 747 929 642 989 l 832 1057 l 918 996 l 832 864 m 197 486 q 219 341 197 408 q 281 222 240 274 l 676 822 q 518 867 603 867 q 353 817 426 867 q 239 681 281 768 q 197 486 197 594 m 518 106 q 683 155 610 106 q 799 291 757 204 q 840 486 840 378 q 818 632 840 564 q 756 750 796 700 l 361 150 q 518 106 435 106 z "},"Õ":{"ha":1038,"x_min":57,"x_max":981,"o":"m 519 989 q 756 924 650 989 q 921 744 861 858 q 981 486 981 629 q 921 228 981 343 q 756 49 861 114 q 519 -17 650 -17 q 281 49 386 -17 q 117 228 176 114 q 57 486 57 343 q 117 744 57 629 q 281 924 176 858 q 519 989 386 989 m 518 867 q 353 817 426 867 q 239 681 281 768 q 197 486 197 594 q 239 291 197 378 q 353 155 281 204 q 518 106 426 106 q 683 155 610 106 q 799 291 757 204 q 840 486 840 378 q 799 681 840 594 q 683 817 757 768 q 518 867 610 867 m 535 1218 q 581 1190 565 1199 q 618 1182 597 1182 q 661 1200 644 1182 q 681 1251 678 1218 l 774 1236 q 726 1126 767 1167 q 618 1086 685 1086 q 513 1121 567 1086 q 487 1138 503 1126 q 458 1154 471 1149 q 429 1160 444 1160 q 385 1141 403 1160 q 365 1089 368 1122 l 274 1104 q 322 1213 281 1172 q 426 1254 363 1254 q 535 1218 483 1254 z "},"Œ":{"ha":1543,"x_min":57,"x_max":1485,"o":"m 1485 121 l 1485 0 l 851 0 l 851 129 q 703 22 789 60 q 519 -17 618 -17 q 281 49 386 -17 q 117 228 176 114 q 57 486 57 343 q 117 744 57 629 q 281 924 176 858 q 519 989 386 989 q 703 951 618 989 q 851 843 789 913 l 851 972 l 1469 972 l 1469 851 l 988 851 l 988 572 l 1379 572 l 1379 451 l 988 451 l 988 121 l 1485 121 m 518 106 q 683 155 610 106 q 799 291 757 204 q 840 486 840 378 q 799 681 840 594 q 683 817 757 768 q 518 867 610 867 q 353 817 426 867 q 239 681 281 768 q 197 486 197 594 q 239 291 197 378 q 353 155 281 204 q 518 106 426 106 z "},"P":{"ha":825,"x_min":100,"x_max":786,"o":"m 100 972 l 474 972 q 639 937 568 972 q 748 838 710 901 q 786 689 786 774 q 701 481 786 558 q 474 404 617 404 l 238 404 l 238 0 l 100 0 l 100 972 m 468 525 q 599 569 551 525 q 647 689 647 613 q 599 808 647 765 q 468 851 551 851 l 238 851 l 238 525 l 468 525 z "},"Þ":{"ha":824,"x_min":100,"x_max":786,"o":"m 100 972 l 238 972 l 238 778 l 474 778 q 702 701 618 778 q 786 497 786 625 q 702 293 786 369 q 474 217 618 217 l 238 217 l 238 0 l 100 0 l 100 972 m 472 335 q 604 378 557 335 q 651 497 651 421 q 604 617 651 574 q 472 660 557 660 l 238 660 l 238 335 l 472 335 z "},"Q":{"ha":1038,"x_min":57,"x_max":996,"o":"m 996 -36 q 869 -53 929 -53 q 694 17 764 -53 q 519 -17 608 -17 q 281 49 386 -17 q 117 228 176 114 q 57 486 57 343 q 117 744 57 629 q 281 924 176 858 q 519 989 386 989 q 756 924 650 989 q 921 744 861 858 q 981 486 981 629 q 933 254 981 360 q 800 79 885 149 q 872 58 832 58 q 925 62 903 58 q 978 75 947 65 l 996 -36 m 518 867 q 353 817 426 867 q 239 681 281 768 q 197 486 197 594 q 214 360 197 418 q 422 424 317 424 q 552 394 500 424 q 635 322 604 364 q 701 211 665 279 l 718 182 q 808 313 776 233 q 840 486 840 392 q 799 681 840 594 q 683 817 757 768 q 518 867 610 867 m 518 106 q 618 122 572 106 q 604 147 613 131 q 551 234 574 203 q 495 286 528 265 q 418 307 463 307 q 257 257 338 307 q 368 146 300 186 q 518 106 436 106 z "},"R":{"ha":872,"x_min":100,"x_max":847,"o":"m 693 0 l 433 453 l 238 453 l 238 0 l 101 0 l 100 972 l 449 972 q 669 903 588 972 q 750 713 750 835 q 703 563 750 625 q 575 472 657 500 l 847 0 l 693 0 m 238 571 l 432 571 q 565 606 519 571 q 611 711 611 640 q 432 851 611 851 l 238 851 l 238 571 z "},"Ŕ":{"ha":872,"x_min":100,"x_max":847,"o":"m 693 0 l 433 453 l 238 453 l 238 0 l 101 0 l 100 972 l 449 972 q 669 903 588 972 q 750 713 750 835 q 703 563 750 625 q 575 472 657 500 l 847 0 l 693 0 m 238 571 l 432 571 q 565 606 519 571 q 611 711 611 640 q 432 851 611 851 l 238 851 l 238 571 m 436 1265 l 596 1265 l 433 1060 l 339 1060 l 436 1265 z "},"Ř":{"ha":872,"x_min":100,"x_max":847,"o":"m 693 0 l 433 453 l 238 453 l 238 0 l 101 0 l 100 972 l 449 972 q 669 903 588 972 q 750 713 750 835 q 703 563 750 625 q 575 472 657 500 l 847 0 l 693 0 m 238 571 l 432 571 q 565 606 519 571 q 611 711 611 640 q 432 851 611 851 l 238 851 l 238 571 m 178 1265 l 279 1265 l 392 1144 l 504 1265 l 607 1265 l 446 1060 l 339 1060 l 178 1265 z "},"Ŗ":{"ha":872,"x_min":100,"x_max":847,"o":"m 693 0 l 433 453 l 238 453 l 238 0 l 101 0 l 100 972 l 449 972 q 669 903 588 972 q 750 713 750 835 q 703 563 750 625 q 575 472 657 500 l 847 0 l 693 0 m 238 571 l 432 571 q 565 606 519 571 q 611 711 611 640 q 432 851 611 851 l 238 851 l 238 571 m 356 -58 l 503 -58 l 390 -264 l 296 -264 l 356 -58 z "},"S":{"ha":782,"x_min":25,"x_max":735,"o":"m 389 -17 q 221 22 297 -17 q 94 129 144 60 q 25 288 43 199 l 151 328 q 236 165 171 226 q 392 104 301 104 q 538 147 483 104 q 593 261 593 190 q 562 350 593 315 q 485 405 531 385 q 360 450 439 425 q 205 508 264 479 q 104 590 146 536 q 63 731 63 643 q 103 865 63 806 q 215 956 143 924 q 381 989 288 989 q 590 927 504 989 q 710 760 675 865 l 590 700 q 381 868 538 868 q 248 832 294 868 q 201 732 201 796 q 228 661 201 689 q 297 617 256 633 q 410 581 338 601 q 576 523 511 553 q 688 431 642 493 q 735 264 735 368 q 692 117 735 181 q 570 18 649 53 q 389 -17 492 -17 z "},"Ś":{"ha":782,"x_min":25,"x_max":735,"o":"m 389 -17 q 221 22 297 -17 q 94 129 144 60 q 25 288 43 199 l 151 328 q 236 165 171 226 q 392 104 301 104 q 538 147 483 104 q 593 261 593 190 q 562 350 593 315 q 485 405 531 385 q 360 450 439 425 q 205 508 264 479 q 104 590 146 536 q 63 731 63 643 q 103 865 63 806 q 215 956 143 924 q 381 989 288 989 q 590 927 504 989 q 710 760 675 865 l 590 700 q 381 868 538 868 q 248 832 294 868 q 201 732 201 796 q 228 661 201 689 q 297 617 256 633 q 410 581 338 601 q 576 523 511 553 q 688 431 642 493 q 735 264 735 368 q 692 117 735 181 q 570 18 649 53 q 389 -17 492 -17 m 426 1265 l 586 1265 l 424 1060 l 329 1060 l 426 1265 z "},"Š":{"ha":782,"x_min":25,"x_max":735,"o":"m 389 -17 q 221 22 297 -17 q 94 129 144 60 q 25 288 43 199 l 151 328 q 236 165 171 226 q 392 104 301 104 q 538 147 483 104 q 593 261 593 190 q 562 350 593 315 q 485 405 531 385 q 360 450 439 425 q 205 508 264 479 q 104 590 146 536 q 63 731 63 643 q 103 865 63 806 q 215 956 143 924 q 381 989 288 989 q 590 927 504 989 q 710 760 675 865 l 590 700 q 381 868 538 868 q 248 832 294 868 q 201 732 201 796 q 228 661 201 689 q 297 617 256 633 q 410 581 338 601 q 576 523 511 553 q 688 431 642 493 q 735 264 735 368 q 692 117 735 181 q 570 18 649 53 q 389 -17 492 -17 m 167 1265 l 268 1265 l 381 1144 l 493 1265 l 596 1265 l 435 1060 l 328 1060 l 167 1265 z "},"Ş":{"ha":782,"x_min":25,"x_max":735,"o":"m 735 264 q 654 72 735 147 q 436 -15 574 -3 l 344 -204 l 185 -204 l 335 -12 q 132 84 215 3 q 25 288 49 165 l 151 328 q 236 165 171 226 q 392 104 301 104 q 538 147 483 104 q 593 261 593 190 q 562 350 593 315 q 485 405 531 385 q 360 450 439 425 q 205 508 264 479 q 104 590 146 536 q 63 731 63 643 q 103 865 63 806 q 215 956 143 924 q 381 989 288 989 q 590 927 504 989 q 710 760 675 865 l 590 700 q 381 868 538 868 q 248 832 294 868 q 201 732 201 796 q 228 661 201 689 q 297 617 256 633 q 410 581 338 601 q 576 523 511 553 q 688 431 642 493 q 735 264 735 368 z "},"Ŝ":{"ha":782,"x_min":25,"x_max":735,"o":"m 389 -17 q 221 22 297 -17 q 94 129 144 60 q 25 288 43 199 l 151 328 q 236 165 171 226 q 392 104 301 104 q 538 147 483 104 q 593 261 593 190 q 562 350 593 315 q 485 405 531 385 q 360 450 439 425 q 205 508 264 479 q 104 590 146 536 q 63 731 63 643 q 103 865 63 806 q 215 956 143 924 q 381 989 288 989 q 590 927 504 989 q 710 760 675 865 l 590 700 q 381 868 538 868 q 248 832 294 868 q 201 732 201 796 q 228 661 201 689 q 297 617 256 633 q 410 581 338 601 q 576 523 511 553 q 688 431 642 493 q 735 264 735 368 q 692 117 735 181 q 570 18 649 53 q 389 -17 492 -17 m 435 1265 l 596 1060 l 493 1060 l 381 1181 l 268 1060 l 167 1060 l 328 1265 l 435 1265 z "},"Ș":{"ha":782,"x_min":25,"x_max":735,"o":"m 389 -17 q 221 22 297 -17 q 94 129 144 60 q 25 288 43 199 l 151 328 q 236 165 171 226 q 392 104 301 104 q 538 147 483 104 q 593 261 593 190 q 562 350 593 315 q 485 405 531 385 q 360 450 439 425 q 205 508 264 479 q 104 590 146 536 q 63 731 63 643 q 103 865 63 806 q 215 956 143 924 q 381 989 288 989 q 590 927 504 989 q 710 760 675 865 l 590 700 q 381 868 538 868 q 248 832 294 868 q 201 732 201 796 q 228 661 201 689 q 297 617 256 633 q 410 581 338 601 q 576 523 511 553 q 688 431 642 493 q 735 264 735 368 q 692 117 735 181 q 570 18 649 53 q 389 -17 492 -17 m 317 -58 l 464 -58 l 351 -264 l 257 -264 l 317 -58 z "},"ẞ":{"ha":869,"x_min":100,"x_max":813,"o":"m 504 121 q 629 167 579 119 q 679 289 679 215 q 629 400 679 358 q 497 443 579 442 l 413 444 l 399 526 l 626 743 q 558 835 610 803 q 443 868 507 868 q 294 806 351 868 q 238 644 238 744 l 238 0 l 100 0 l 100 649 q 144 828 100 751 q 265 947 188 906 q 443 989 343 989 q 597 956 526 989 q 713 864 668 924 q 767 725 757 804 l 567 540 q 744 457 675 526 q 813 288 813 388 q 774 141 813 207 q 669 38 736 75 q 518 0 601 0 l 343 0 l 343 121 l 504 121 z "},"T":{"ha":806,"x_min":28,"x_max":778,"o":"m 335 851 l 28 851 l 28 972 l 778 972 l 778 851 l 471 851 l 471 0 l 335 0 l 335 851 z "},"Ŧ":{"ha":806,"x_min":28,"x_max":778,"o":"m 471 851 l 471 558 l 633 558 l 633 464 l 471 464 l 471 0 l 335 0 l 335 464 l 174 464 l 174 558 l 335 558 l 335 851 l 28 851 l 28 972 l 778 972 l 778 851 l 471 851 z "},"Ť":{"ha":806,"x_min":28,"x_max":778,"o":"m 335 851 l 28 851 l 28 972 l 778 972 l 778 851 l 471 851 l 471 0 l 335 0 l 335 851 m 189 1265 l 290 1265 l 403 1144 l 515 1265 l 618 1265 l 457 1060 l 350 1060 l 189 1265 z "},"Ţ":{"ha":806,"x_min":28,"x_max":778,"o":"m 778 972 l 778 851 l 471 851 l 471 0 l 374 -204 l 213 -204 l 374 0 l 335 0 l 335 851 l 28 851 l 28 972 l 778 972 z "},"Ț":{"ha":806,"x_min":28,"x_max":778,"o":"m 335 851 l 28 851 l 28 972 l 778 972 l 778 851 l 471 851 l 471 0 l 335 0 l 335 851 m 336 -58 l 483 -58 l 371 -264 l 276 -264 l 336 -58 z "},"U":{"ha":943,"x_min":100,"x_max":843,"o":"m 472 -17 q 277 25 361 -17 q 147 146 193 67 q 100 333 100 225 l 100 972 l 229 972 l 229 329 q 296 165 229 225 q 472 104 363 104 q 647 165 581 104 q 714 329 714 225 l 714 972 l 843 972 l 843 333 q 797 146 843 225 q 667 25 751 67 q 472 -17 583 -17 z "},"Ú":{"ha":943,"x_min":100,"x_max":843,"o":"m 472 -17 q 277 25 361 -17 q 147 146 193 67 q 100 333 100 225 l 100 972 l 229 972 l 229 329 q 296 165 229 225 q 472 104 363 104 q 647 165 581 104 q 714 329 714 225 l 714 972 l 843 972 l 843 333 q 797 146 843 225 q 667 25 751 67 q 472 -17 583 -17 m 517 1265 l 676 1265 l 514 1060 l 419 1060 l 517 1265 z "},"Ŭ":{"ha":943,"x_min":100,"x_max":843,"o":"m 472 -17 q 277 25 361 -17 q 147 146 193 67 q 100 333 100 225 l 100 972 l 229 972 l 229 329 q 296 165 229 225 q 472 104 363 104 q 647 165 581 104 q 714 329 714 225 l 714 972 l 843 972 l 843 333 q 797 146 843 225 q 667 25 751 67 q 472 -17 583 -17 m 472 1056 q 342 1107 394 1056 q 290 1235 290 1158 l 393 1235 q 415 1173 393 1197 q 472 1149 438 1149 q 529 1173 507 1149 q 551 1235 551 1197 l 654 1235 q 602 1107 654 1158 q 472 1056 550 1056 z "},"Û":{"ha":943,"x_min":100,"x_max":843,"o":"m 472 -17 q 277 25 361 -17 q 147 146 193 67 q 100 333 100 225 l 100 972 l 229 972 l 229 329 q 296 165 229 225 q 472 104 363 104 q 647 165 581 104 q 714 329 714 225 l 714 972 l 843 972 l 843 333 q 797 146 843 225 q 667 25 751 67 q 472 -17 583 -17 m 525 1265 l 686 1060 l 583 1060 l 471 1181 l 358 1060 l 257 1060 l 418 1265 l 525 1265 z "},"Ü":{"ha":943,"x_min":100,"x_max":843,"o":"m 472 -17 q 277 25 361 -17 q 147 146 193 67 q 100 333 100 225 l 100 972 l 229 972 l 229 329 q 296 165 229 225 q 472 104 363 104 q 647 165 581 104 q 714 329 714 225 l 714 972 l 843 972 l 843 333 q 797 146 843 225 q 667 25 751 67 q 472 -17 583 -17 m 347 1101 q 288 1124 311 1101 q 264 1182 264 1147 q 288 1240 264 1217 q 347 1263 311 1263 q 408 1240 385 1263 q 432 1182 432 1217 q 408 1124 432 1147 q 347 1101 385 1101 m 594 1101 q 536 1124 560 1101 q 513 1182 513 1147 q 536 1240 513 1217 q 594 1263 560 1263 q 656 1240 632 1263 q 679 1182 679 1217 q 656 1124 679 1147 q 594 1101 632 1101 z "},"Ù":{"ha":943,"x_min":100,"x_max":843,"o":"m 472 -17 q 277 25 361 -17 q 147 146 193 67 q 100 333 100 225 l 100 972 l 229 972 l 229 329 q 296 165 229 225 q 472 104 363 104 q 647 165 581 104 q 714 329 714 225 l 714 972 l 843 972 l 843 333 q 797 146 843 225 q 667 25 751 67 q 472 -17 583 -17 m 429 1060 l 265 1265 l 425 1265 l 522 1060 l 429 1060 z "},"Ű":{"ha":943,"x_min":100,"x_max":843,"o":"m 472 -17 q 277 25 361 -17 q 147 146 193 67 q 100 333 100 225 l 100 972 l 229 972 l 229 329 q 296 165 229 225 q 472 104 363 104 q 647 165 581 104 q 714 329 714 225 l 714 972 l 843 972 l 843 333 q 797 146 843 225 q 667 25 751 67 q 472 -17 583 -17 m 401 1265 l 522 1265 l 414 1060 l 304 1060 l 401 1265 m 600 1265 l 725 1265 l 611 1060 l 503 1060 l 600 1265 z "},"Ū":{"ha":943,"x_min":100,"x_max":843,"o":"m 472 -17 q 277 25 361 -17 q 147 146 193 67 q 100 333 100 225 l 100 972 l 229 972 l 229 329 q 296 165 229 225 q 472 104 363 104 q 647 165 581 104 q 714 329 714 225 l 714 972 l 843 972 l 843 333 q 797 146 843 225 q 667 25 751 67 q 472 -17 583 -17 m 285 1203 l 658 1203 l 658 1107 l 285 1107 l 285 1203 z "},"Ų":{"ha":943,"x_min":100,"x_max":843,"o":"m 843 972 l 843 333 q 754 88 843 181 q 514 -15 665 -4 q 471 -103 471 -61 q 490 -152 471 -135 q 539 -169 508 -169 q 575 -165 565 -169 l 590 -256 q 524 -264 560 -264 q 408 -226 451 -264 q 365 -126 365 -187 q 413 -14 365 -65 q 185 94 269 3 q 100 333 100 186 l 100 972 l 229 972 l 229 329 q 296 165 229 225 q 472 104 363 104 q 647 165 581 104 q 714 329 714 225 l 714 972 l 843 972 z "},"Ů":{"ha":943,"x_min":100,"x_max":843,"o":"m 472 -17 q 277 25 361 -17 q 147 146 193 67 q 100 333 100 225 l 100 972 l 229 972 l 229 329 q 296 165 229 225 q 472 104 363 104 q 647 165 581 104 q 714 329 714 225 l 714 972 l 843 972 l 843 333 q 797 146 843 225 q 667 25 751 67 q 472 -17 583 -17 m 472 1036 q 362 1077 406 1036 q 318 1179 318 1118 q 362 1283 318 1242 q 472 1324 406 1324 q 581 1283 538 1324 q 625 1179 625 1242 q 581 1077 625 1118 q 472 1036 538 1036 m 472 1110 q 524 1129 504 1110 q 544 1179 544 1149 q 524 1230 544 1210 q 472 1250 504 1250 q 420 1230 440 1250 q 400 1179 400 1210 q 420 1129 400 1149 q 472 1110 440 1110 z "},"Ũ":{"ha":943,"x_min":100,"x_max":843,"o":"m 472 -17 q 277 25 361 -17 q 147 146 193 67 q 100 333 100 225 l 100 972 l 229 972 l 229 329 q 296 165 229 225 q 472 104 363 104 q 647 165 581 104 q 714 329 714 225 l 714 972 l 843 972 l 843 333 q 797 146 843 225 q 667 25 751 67 q 472 -17 583 -17 m 488 1218 q 534 1190 518 1199 q 571 1182 550 1182 q 614 1200 597 1182 q 633 1251 631 1218 l 726 1236 q 678 1126 719 1167 q 571 1086 638 1086 q 465 1121 519 1086 q 440 1138 456 1126 q 410 1154 424 1149 q 382 1160 397 1160 q 338 1141 356 1160 q 318 1089 321 1122 l 226 1104 q 274 1213 233 1172 q 379 1254 315 1254 q 488 1218 436 1254 z "},"V":{"ha":896,"x_min":15,"x_max":881,"o":"m 15 972 l 157 972 l 447 158 l 740 972 l 881 972 l 517 0 l 381 0 l 15 972 z "},"W":{"ha":1367,"x_min":18,"x_max":1349,"o":"m 18 972 l 161 972 l 388 150 l 615 844 l 751 844 l 978 150 l 1206 972 l 1349 972 l 1057 0 l 903 0 l 685 658 l 460 0 l 308 0 l 18 972 z "},"Ẃ":{"ha":1367,"x_min":18,"x_max":1349,"o":"m 18 972 l 161 972 l 388 150 l 615 844 l 751 844 l 978 150 l 1206 972 l 1349 972 l 1057 0 l 903 0 l 685 658 l 460 0 l 308 0 l 18 972 m 728 1265 l 888 1265 l 725 1060 l 631 1060 l 728 1265 z "},"Ŵ":{"ha":1367,"x_min":18,"x_max":1349,"o":"m 18 972 l 161 972 l 388 150 l 615 844 l 751 844 l 978 150 l 1206 972 l 1349 972 l 1057 0 l 903 0 l 685 658 l 460 0 l 308 0 l 18 972 m 736 1265 l 897 1060 l 794 1060 l 682 1181 l 569 1060 l 468 1060 l 629 1265 l 736 1265 z "},"Ẅ":{"ha":1367,"x_min":18,"x_max":1349,"o":"m 18 972 l 161 972 l 388 150 l 615 844 l 751 844 l 978 150 l 1206 972 l 1349 972 l 1057 0 l 903 0 l 685 658 l 460 0 l 308 0 l 18 972 m 558 1101 q 499 1124 522 1101 q 475 1182 475 1147 q 499 1240 475 1217 q 558 1263 522 1263 q 619 1240 596 1263 q 643 1182 643 1217 q 619 1124 643 1147 q 558 1101 596 1101 m 806 1101 q 747 1124 771 1101 q 724 1182 724 1147 q 747 1240 724 1217 q 806 1263 771 1263 q 867 1240 843 1263 q 890 1182 890 1217 q 867 1124 890 1147 q 806 1101 843 1101 z "},"Ẁ":{"ha":1367,"x_min":18,"x_max":1349,"o":"m 18 972 l 161 972 l 388 150 l 615 844 l 751 844 l 978 150 l 1206 972 l 1349 972 l 1057 0 l 903 0 l 685 658 l 460 0 l 308 0 l 18 972 m 640 1060 l 476 1265 l 636 1265 l 733 1060 l 640 1060 z "},"X":{"ha":832,"x_min":18,"x_max":814,"o":"m 660 0 l 414 399 l 165 0 l 18 0 l 342 507 l 46 972 l 201 972 l 414 625 l 631 972 l 779 972 l 486 517 l 814 0 l 660 0 z "},"Y":{"ha":843,"x_min":11,"x_max":831,"o":"m 353 424 l 11 972 l 163 972 l 421 553 l 681 972 l 831 972 l 489 424 l 489 0 l 353 0 l 353 424 z "},"Ý":{"ha":843,"x_min":11,"x_max":831,"o":"m 353 424 l 11 972 l 163 972 l 421 553 l 681 972 l 831 972 l 489 424 l 489 0 l 353 0 l 353 424 m 467 1265 l 626 1265 l 464 1060 l 369 1060 l 467 1265 z "},"Ŷ":{"ha":843,"x_min":11,"x_max":831,"o":"m 353 424 l 11 972 l 163 972 l 421 553 l 681 972 l 831 972 l 489 424 l 489 0 l 353 0 l 353 424 m 475 1265 l 636 1060 l 533 1060 l 421 1181 l 308 1060 l 207 1060 l 368 1265 l 475 1265 z "},"Ÿ":{"ha":843,"x_min":11,"x_max":831,"o":"m 353 424 l 11 972 l 163 972 l 421 553 l 681 972 l 831 972 l 489 424 l 489 0 l 353 0 l 353 424 m 297 1101 q 238 1124 261 1101 q 214 1182 214 1147 q 238 1240 214 1217 q 297 1263 261 1263 q 358 1240 335 1263 q 382 1182 382 1217 q 358 1124 382 1147 q 297 1101 335 1101 m 544 1101 q 486 1124 510 1101 q 463 1182 463 1147 q 486 1240 463 1217 q 544 1263 510 1263 q 606 1240 582 1263 q 629 1182 629 1217 q 606 1124 629 1147 q 544 1101 582 1101 z "},"Ỳ":{"ha":843,"x_min":11,"x_max":831,"o":"m 353 424 l 11 972 l 163 972 l 421 553 l 681 972 l 831 972 l 489 424 l 489 0 l 353 0 l 353 424 m 379 1060 l 215 1265 l 375 1265 l 472 1060 l 379 1060 z "},"Z":{"ha":840,"x_min":44,"x_max":781,"o":"m 44 117 l 621 851 l 75 851 l 75 972 l 779 972 l 779 856 l 204 121 l 781 121 l 781 0 l 44 0 l 44 117 z "},"Ź":{"ha":840,"x_min":44,"x_max":781,"o":"m 44 117 l 621 851 l 75 851 l 75 972 l 779 972 l 779 856 l 204 121 l 781 121 l 781 0 l 44 0 l 44 117 m 457 1265 l 617 1265 l 454 1060 l 360 1060 l 457 1265 z "},"Ž":{"ha":840,"x_min":44,"x_max":781,"o":"m 44 117 l 621 851 l 75 851 l 75 972 l 779 972 l 779 856 l 204 121 l 781 121 l 781 0 l 44 0 l 44 117 m 199 1265 l 300 1265 l 413 1144 l 525 1265 l 628 1265 l 467 1060 l 360 1060 l 199 1265 z "},"Ż":{"ha":840,"x_min":44,"x_max":781,"o":"m 44 117 l 621 851 l 75 851 l 75 972 l 779 972 l 779 856 l 204 121 l 781 121 l 781 0 l 44 0 l 44 117 m 411 1096 q 349 1122 375 1096 q 324 1183 324 1147 q 349 1247 324 1221 q 411 1272 375 1272 q 476 1247 450 1272 q 501 1183 501 1221 q 476 1121 501 1146 q 411 1096 450 1096 z "},"a":{"ha":724,"x_min":60,"x_max":635,"o":"m 351 718 q 558 649 481 718 q 635 449 635 581 l 635 0 l 510 0 l 510 82 q 415 11 474 39 q 289 -17 356 -17 q 124 41 188 -17 q 60 190 60 99 q 379 425 60 392 l 510 439 l 510 464 q 466 575 510 535 q 349 615 422 615 q 190 474 207 615 l 71 474 q 163 657 82 596 q 351 718 244 718 m 311 86 q 422 117 368 86 q 510 203 475 149 l 510 340 l 385 325 q 185 194 185 303 q 219 116 185 146 q 311 86 254 86 z "},"á":{"ha":724,"x_min":60,"x_max":635,"o":"m 351 718 q 558 649 481 718 q 635 449 635 581 l 635 0 l 510 0 l 510 82 q 415 11 474 39 q 289 -17 356 -17 q 124 41 188 -17 q 60 190 60 99 q 379 425 60 392 l 510 439 l 510 464 q 466 575 510 535 q 349 615 422 615 q 190 474 207 615 l 71 474 q 163 657 82 596 q 351 718 244 718 m 311 86 q 422 117 368 86 q 510 203 475 149 l 510 340 l 385 325 q 185 194 185 303 q 219 116 185 146 q 311 86 254 86 m 401 994 l 561 994 l 399 789 l 304 789 l 401 994 z "},"ă":{"ha":724,"x_min":60,"x_max":635,"o":"m 351 718 q 558 649 481 718 q 635 449 635 581 l 635 0 l 510 0 l 510 82 q 415 11 474 39 q 289 -17 356 -17 q 124 41 188 -17 q 60 190 60 99 q 379 425 60 392 l 510 439 l 510 464 q 466 575 510 535 q 349 615 422 615 q 190 474 207 615 l 71 474 q 163 657 82 596 q 351 718 244 718 m 311 86 q 422 117 368 86 q 510 203 475 149 l 510 340 l 385 325 q 185 194 185 303 q 219 116 185 146 q 311 86 254 86 m 357 785 q 227 836 279 785 q 175 964 175 888 l 278 964 q 300 902 278 926 q 357 878 322 878 q 414 902 392 878 q 436 964 436 926 l 539 964 q 487 836 539 888 q 357 785 435 785 z "},"â":{"ha":724,"x_min":60,"x_max":635,"o":"m 351 718 q 558 649 481 718 q 635 449 635 581 l 635 0 l 510 0 l 510 82 q 415 11 474 39 q 289 -17 356 -17 q 124 41 188 -17 q 60 190 60 99 q 379 425 60 392 l 510 439 l 510 464 q 466 575 510 535 q 349 615 422 615 q 190 474 207 615 l 71 474 q 163 657 82 596 q 351 718 244 718 m 311 86 q 422 117 368 86 q 510 203 475 149 l 510 340 l 385 325 q 185 194 185 303 q 219 116 185 146 q 311 86 254 86 m 411 994 l 572 789 l 469 789 l 357 910 l 244 789 l 143 789 l 304 994 l 411 994 z "},"ä":{"ha":724,"x_min":60,"x_max":635,"o":"m 351 718 q 558 649 481 718 q 635 449 635 581 l 635 0 l 510 0 l 510 82 q 415 11 474 39 q 289 -17 356 -17 q 124 41 188 -17 q 60 190 60 99 q 379 425 60 392 l 510 439 l 510 464 q 466 575 510 535 q 349 615 422 615 q 190 474 207 615 l 71 474 q 163 657 82 596 q 351 718 244 718 m 311 86 q 422 117 368 86 q 510 203 475 149 l 510 340 l 385 325 q 185 194 185 303 q 219 116 185 146 q 311 86 254 86 m 232 831 q 172 853 196 831 q 149 911 149 876 q 172 969 149 946 q 232 992 196 992 q 293 969 269 992 q 317 911 317 946 q 293 853 317 876 q 232 831 269 831 m 479 831 q 421 853 444 831 q 397 911 397 876 q 421 969 397 946 q 479 992 444 992 q 540 969 517 992 q 564 911 564 946 q 540 853 564 876 q 479 831 517 831 z "},"à":{"ha":724,"x_min":60,"x_max":635,"o":"m 351 718 q 558 649 481 718 q 635 449 635 581 l 635 0 l 510 0 l 510 82 q 415 11 474 39 q 289 -17 356 -17 q 124 41 188 -17 q 60 190 60 99 q 379 425 60 392 l 510 439 l 510 464 q 466 575 510 535 q 349 615 422 615 q 190 474 207 615 l 71 474 q 163 657 82 596 q 351 718 244 718 m 311 86 q 422 117 368 86 q 510 203 475 149 l 510 340 l 385 325 q 185 194 185 303 q 219 116 185 146 q 311 86 254 86 m 314 789 l 150 994 l 310 994 l 407 789 l 314 789 z "},"ā":{"ha":724,"x_min":60,"x_max":635,"o":"m 351 718 q 558 649 481 718 q 635 449 635 581 l 635 0 l 510 0 l 510 82 q 415 11 474 39 q 289 -17 356 -17 q 124 41 188 -17 q 60 190 60 99 q 379 425 60 392 l 510 439 l 510 464 q 466 575 510 535 q 349 615 422 615 q 190 474 207 615 l 71 474 q 163 657 82 596 q 351 718 244 718 m 311 86 q 422 117 368 86 q 510 203 475 149 l 510 340 l 385 325 q 185 194 185 303 q 219 116 185 146 q 311 86 254 86 m 169 932 l 543 932 l 543 836 l 169 836 l 169 932 z "},"ą":{"ha":724,"x_min":60,"x_max":696,"o":"m 696 -256 q 629 -264 665 -264 q 515 -226 558 -264 q 472 -126 472 -189 q 488 -60 472 -93 q 532 0 504 -26 l 510 0 l 510 82 q 415 11 474 39 q 289 -17 356 -17 q 124 41 188 -17 q 60 190 60 99 q 379 425 60 392 l 510 439 l 510 464 q 466 575 510 535 q 349 615 422 615 q 190 474 207 615 l 71 474 q 163 657 82 596 q 351 718 244 718 q 558 649 481 718 q 635 449 635 581 l 635 0 q 592 -51 607 -28 q 578 -103 578 -75 q 596 -152 578 -135 q 644 -169 614 -169 q 682 -165 669 -169 l 696 -256 m 311 86 q 422 117 368 86 q 510 203 475 149 l 510 340 l 385 325 q 185 194 185 303 q 219 116 185 146 q 311 86 254 86 z "},"å":{"ha":724,"x_min":60,"x_max":635,"o":"m 351 718 q 558 649 481 718 q 635 449 635 581 l 635 0 l 510 0 l 510 82 q 415 11 474 39 q 289 -17 356 -17 q 124 41 188 -17 q 60 190 60 99 q 379 425 60 392 l 510 439 l 510 464 q 466 575 510 535 q 349 615 422 615 q 190 474 207 615 l 71 474 q 163 657 82 596 q 351 718 244 718 m 311 86 q 422 117 368 86 q 510 203 475 149 l 510 340 l 385 325 q 185 194 185 303 q 219 116 185 146 q 311 86 254 86 m 357 765 q 247 806 290 765 q 203 908 203 847 q 247 1012 203 971 q 357 1053 290 1053 q 466 1012 422 1053 q 510 908 510 971 q 466 806 510 847 q 357 765 422 765 m 357 839 q 409 858 389 839 q 429 908 429 878 q 409 959 429 939 q 357 979 389 979 q 305 959 325 979 q 285 908 285 939 q 305 858 285 878 q 357 839 325 839 z "},"ǻ":{"ha":724,"x_min":60,"x_max":635,"o":"m 357 765 q 247 806 290 765 q 203 908 203 847 q 235 999 203 961 q 318 1049 267 1038 l 408 1240 l 568 1240 l 411 1044 q 483 993 457 1029 q 510 908 510 957 q 466 806 510 847 q 357 765 422 765 m 357 979 q 305 959 325 979 q 285 908 285 939 q 305 858 285 878 q 357 839 325 839 q 409 858 389 839 q 429 908 429 878 q 409 959 429 939 q 357 979 389 979 m 351 718 q 558 649 481 718 q 635 449 635 581 l 635 0 l 510 0 l 510 82 q 415 11 474 39 q 289 -17 356 -17 q 124 41 188 -17 q 60 190 60 99 q 379 425 60 392 l 510 439 l 510 464 q 466 575 510 535 q 349 615 422 615 q 190 474 207 615 l 71 474 q 163 657 82 596 q 351 718 244 718 m 311 86 q 422 117 368 86 q 510 203 475 149 l 510 340 l 385 325 q 185 194 185 303 q 219 116 185 146 q 311 86 254 86 z "},"ã":{"ha":724,"x_min":60,"x_max":635,"o":"m 351 718 q 558 649 481 718 q 635 449 635 581 l 635 0 l 510 0 l 510 82 q 415 11 474 39 q 289 -17 356 -17 q 124 41 188 -17 q 60 190 60 99 q 379 425 60 392 l 510 439 l 510 464 q 466 575 510 535 q 349 615 422 615 q 190 474 207 615 l 71 474 q 163 657 82 596 q 351 718 244 718 m 311 86 q 422 117 368 86 q 510 203 475 149 l 510 340 l 385 325 q 185 194 185 303 q 219 116 185 146 q 311 86 254 86 m 372 947 q 419 919 403 928 q 456 911 435 911 q 499 929 482 911 q 518 981 515 947 l 611 965 q 563 856 604 896 q 456 815 522 815 q 350 850 404 815 q 324 867 340 856 q 295 883 308 878 q 267 889 282 889 q 223 870 240 889 q 203 818 206 851 l 111 833 q 159 942 118 901 q 264 983 200 983 q 372 947 321 983 z "},"æ":{"ha":1218,"x_min":60,"x_max":1161,"o":"m 1161 382 q 1158 325 1161 350 l 646 325 q 710 156 653 219 q 854 93 767 93 q 961 126 914 93 q 1038 218 1008 158 l 1150 168 q 1029 32 1107 81 q 854 -17 951 -17 q 688 24 760 -17 q 574 136 617 64 q 456 24 529 64 q 300 -17 383 -17 q 124 42 188 -17 q 60 193 60 100 q 138 351 60 296 q 379 418 217 406 l 511 428 l 511 464 q 467 575 511 535 q 349 615 422 615 q 190 474 207 615 l 71 474 q 162 658 82 597 q 349 718 242 718 q 497 688 433 718 q 597 600 561 658 q 703 687 640 656 q 842 718 765 718 q 1013 672 940 718 q 1123 550 1085 626 q 1161 382 1161 474 m 1026 426 q 970 563 1019 511 q 839 615 921 615 q 717 565 767 615 q 651 426 667 515 l 1026 426 m 311 86 q 428 123 369 86 q 533 235 488 160 q 519 331 521 288 l 385 318 q 185 197 185 304 q 220 117 185 149 q 311 86 256 86 z "},"ǽ":{"ha":1218,"x_min":60,"x_max":1161,"o":"m 1161 382 q 1158 325 1161 350 l 646 325 q 710 156 653 219 q 854 93 767 93 q 961 126 914 93 q 1038 218 1008 158 l 1150 168 q 1029 32 1107 81 q 854 -17 951 -17 q 688 24 760 -17 q 574 136 617 64 q 456 24 529 64 q 300 -17 383 -17 q 124 42 188 -17 q 60 193 60 100 q 138 351 60 296 q 379 418 217 406 l 511 428 l 511 464 q 467 575 511 535 q 349 615 422 615 q 190 474 207 615 l 71 474 q 162 658 82 597 q 349 718 242 718 q 497 688 433 718 q 597 600 561 658 q 703 687 640 656 q 842 718 765 718 q 1013 672 940 718 q 1123 550 1085 626 q 1161 382 1161 474 m 1026 426 q 970 563 1019 511 q 839 615 921 615 q 717 565 767 615 q 651 426 667 515 l 1026 426 m 311 86 q 428 123 369 86 q 533 235 488 160 q 519 331 521 288 l 385 318 q 185 197 185 304 q 220 117 185 149 q 311 86 256 86 m 682 1001 l 842 1001 l 679 796 l 585 796 l 682 1001 z "},"b":{"ha":799,"x_min":89,"x_max":742,"o":"m 425 718 q 595 670 524 718 q 704 538 667 622 q 742 350 742 454 q 704 163 742 246 q 595 31 667 79 q 426 -17 524 -17 q 308 8 365 -17 q 217 72 251 32 l 217 0 l 89 0 l 89 972 l 217 972 l 217 629 q 308 694 251 669 q 425 718 365 718 m 408 97 q 555 167 499 97 q 611 350 611 236 q 556 533 611 464 q 408 603 500 603 q 300 573 351 603 q 217 492 249 543 l 217 210 q 299 128 247 158 q 408 97 351 97 z "},"c":{"ha":750,"x_min":57,"x_max":683,"o":"m 386 -17 q 215 29 289 -17 q 99 158 140 75 q 57 350 57 240 q 99 542 57 458 q 215 672 140 625 q 386 718 289 718 q 584 653 504 718 q 682 482 664 589 l 558 457 q 501 562 547 521 q 389 603 454 603 q 243 533 299 603 q 188 350 188 464 q 242 165 188 235 q 389 96 297 96 q 501 135 456 96 q 560 242 547 174 l 683 218 q 583 45 663 107 q 386 -17 504 -17 z "},"ć":{"ha":750,"x_min":57,"x_max":683,"o":"m 386 -17 q 215 29 289 -17 q 99 158 140 75 q 57 350 57 240 q 99 542 57 458 q 215 672 140 625 q 386 718 289 718 q 584 653 504 718 q 682 482 664 589 l 558 457 q 501 562 547 521 q 389 603 454 603 q 243 533 299 603 q 188 350 188 464 q 242 165 188 235 q 389 96 297 96 q 501 135 456 96 q 560 242 547 174 l 683 218 q 583 45 663 107 q 386 -17 504 -17 m 428 994 l 588 994 l 425 789 l 331 789 l 428 994 z "},"č":{"ha":750,"x_min":57,"x_max":683,"o":"m 386 -17 q 215 29 289 -17 q 99 158 140 75 q 57 350 57 240 q 99 542 57 458 q 215 672 140 625 q 386 718 289 718 q 584 653 504 718 q 682 482 664 589 l 558 457 q 501 562 547 521 q 389 603 454 603 q 243 533 299 603 q 188 350 188 464 q 242 165 188 235 q 389 96 297 96 q 501 135 456 96 q 560 242 547 174 l 683 218 q 583 45 663 107 q 386 -17 504 -17 m 169 994 l 271 994 l 383 874 l 496 994 l 599 994 l 438 789 l 331 789 l 169 994 z "},"ç":{"ha":750,"x_min":57,"x_max":683,"o":"m 683 218 q 598 58 665 118 q 431 -14 531 -3 l 339 -204 l 179 -204 l 331 -12 q 131 104 206 7 q 57 350 57 201 q 99 542 57 458 q 215 672 140 625 q 386 718 289 718 q 584 653 504 718 q 682 482 664 589 l 558 457 q 501 562 547 521 q 389 603 454 603 q 243 533 299 603 q 188 350 188 464 q 242 165 188 235 q 389 96 297 96 q 501 135 456 96 q 560 242 547 174 l 683 218 z "},"ĉ":{"ha":750,"x_min":57,"x_max":683,"o":"m 386 -17 q 215 29 289 -17 q 99 158 140 75 q 57 350 57 240 q 99 542 57 458 q 215 672 140 625 q 386 718 289 718 q 584 653 504 718 q 682 482 664 589 l 558 457 q 501 562 547 521 q 389 603 454 603 q 243 533 299 603 q 188 350 188 464 q 242 165 188 235 q 389 96 297 96 q 501 135 456 96 q 560 242 547 174 l 683 218 q 583 45 663 107 q 386 -17 504 -17 m 438 994 l 599 789 l 496 789 l 383 910 l 271 789 l 169 789 l 331 994 l 438 994 z "},"ċ":{"ha":750,"x_min":57,"x_max":683,"o":"m 386 -17 q 215 29 289 -17 q 99 158 140 75 q 57 350 57 240 q 99 542 57 458 q 215 672 140 625 q 386 718 289 718 q 584 653 504 718 q 682 482 664 589 l 558 457 q 501 562 547 521 q 389 603 454 603 q 243 533 299 603 q 188 350 188 464 q 242 165 188 235 q 389 96 297 96 q 501 135 456 96 q 560 242 547 174 l 683 218 q 583 45 663 107 q 386 -17 504 -17 m 382 825 q 320 851 346 825 q 294 913 294 876 q 320 976 294 950 q 382 1001 346 1001 q 447 976 421 1001 q 472 913 472 950 q 447 850 472 875 q 382 825 421 825 z "},"d":{"ha":799,"x_min":57,"x_max":710,"o":"m 710 972 l 710 0 l 582 0 l 582 72 q 489 8 546 32 q 372 -17 432 -17 q 203 31 275 -17 q 94 163 132 79 q 57 350 57 246 q 94 538 57 454 q 203 670 132 622 q 374 718 275 718 q 490 694 433 718 q 582 629 546 669 l 582 972 l 710 972 m 582 492 q 499 573 550 543 q 389 603 447 603 q 243 533 299 603 q 188 350 188 464 q 243 167 188 236 q 389 97 299 97 q 499 127 447 97 q 582 210 550 157 l 582 492 z "},"ð":{"ha":806,"x_min":57,"x_max":819,"o":"m 819 796 l 708 796 l 708 386 q 628 92 708 200 q 390 -17 549 -17 q 213 31 289 -17 q 97 160 138 78 q 57 343 57 242 q 94 535 57 450 q 202 669 132 619 q 369 718 272 718 q 488 694 431 718 q 582 629 546 669 l 582 796 l 413 796 l 413 890 l 582 890 l 582 972 l 708 972 l 708 890 l 819 890 l 819 796 m 582 492 q 498 573 551 543 q 386 603 444 603 q 242 531 297 603 q 188 343 188 460 q 244 165 188 232 q 390 97 301 97 q 533 167 483 97 q 582 358 582 236 l 582 492 z "},"ď":{"ha":901,"x_min":57,"x_max":946,"o":"m 710 972 l 710 0 l 582 0 l 582 72 q 489 8 546 32 q 372 -17 432 -17 q 203 31 275 -17 q 94 163 132 79 q 57 350 57 246 q 94 538 57 454 q 203 670 132 622 q 374 718 275 718 q 490 694 433 718 q 582 629 546 669 l 582 972 l 710 972 m 582 492 q 499 573 550 543 q 389 603 447 603 q 243 533 299 603 q 188 350 188 464 q 243 167 188 236 q 389 97 299 97 q 499 127 447 97 q 582 210 550 157 l 582 492 m 814 1032 l 946 1032 l 847 788 l 769 788 l 814 1032 z "},"đ":{"ha":799,"x_min":57,"x_max":811,"o":"m 811 792 l 710 792 l 710 0 l 582 0 l 582 72 q 489 8 546 32 q 372 -17 432 -17 q 203 31 275 -17 q 94 163 132 79 q 57 350 57 246 q 94 538 57 454 q 203 670 132 622 q 374 718 275 718 q 490 694 433 718 q 582 629 546 669 l 582 792 l 404 792 l 404 886 l 582 886 l 582 972 l 710 972 l 710 886 l 811 886 l 811 792 m 582 492 q 499 573 550 543 q 389 603 447 603 q 243 533 299 603 q 188 350 188 464 q 243 167 188 236 q 389 97 299 97 q 499 127 447 97 q 582 210 550 157 l 582 492 z "},"e":{"ha":756,"x_min":57,"x_max":699,"o":"m 699 382 q 696 325 699 350 l 183 325 q 247 156 190 219 q 392 93 304 93 q 499 126 451 93 q 575 218 546 158 l 688 168 q 567 32 644 81 q 392 -17 489 -17 q 213 32 289 -17 q 97 164 136 81 q 57 350 57 247 q 96 535 57 451 q 208 669 135 619 q 379 718 281 718 q 550 672 478 718 q 660 550 622 626 q 699 382 699 474 m 564 426 q 508 563 557 511 q 376 615 458 615 q 254 565 304 615 q 189 426 204 515 l 564 426 z "},"é":{"ha":756,"x_min":57,"x_max":699,"o":"m 699 382 q 696 325 699 350 l 183 325 q 247 156 190 219 q 392 93 304 93 q 499 126 451 93 q 575 218 546 158 l 688 168 q 567 32 644 81 q 392 -17 489 -17 q 213 32 289 -17 q 97 164 136 81 q 57 350 57 247 q 96 535 57 451 q 208 669 135 619 q 379 718 281 718 q 550 672 478 718 q 660 550 622 626 q 699 382 699 474 m 564 426 q 508 563 557 511 q 376 615 458 615 q 254 565 304 615 q 189 426 204 515 l 564 426 m 422 994 l 582 994 l 419 789 l 325 789 l 422 994 z "},"ĕ":{"ha":756,"x_min":57,"x_max":699,"o":"m 699 382 q 696 325 699 350 l 183 325 q 247 156 190 219 q 392 93 304 93 q 499 126 451 93 q 575 218 546 158 l 688 168 q 567 32 644 81 q 392 -17 489 -17 q 213 32 289 -17 q 97 164 136 81 q 57 350 57 247 q 96 535 57 451 q 208 669 135 619 q 379 718 281 718 q 550 672 478 718 q 660 550 622 626 q 699 382 699 474 m 564 426 q 508 563 557 511 q 376 615 458 615 q 254 565 304 615 q 189 426 204 515 l 564 426 m 378 785 q 248 836 300 785 q 196 964 196 888 l 299 964 q 321 902 299 926 q 378 878 343 878 q 435 902 413 878 q 457 964 457 926 l 560 964 q 508 836 560 888 q 378 785 456 785 z "},"ě":{"ha":756,"x_min":57,"x_max":699,"o":"m 699 382 q 696 325 699 350 l 183 325 q 247 156 190 219 q 392 93 304 93 q 499 126 451 93 q 575 218 546 158 l 688 168 q 567 32 644 81 q 392 -17 489 -17 q 213 32 289 -17 q 97 164 136 81 q 57 350 57 247 q 96 535 57 451 q 208 669 135 619 q 379 718 281 718 q 550 672 478 718 q 660 550 622 626 q 699 382 699 474 m 564 426 q 508 563 557 511 q 376 615 458 615 q 254 565 304 615 q 189 426 204 515 l 564 426 m 164 994 l 265 994 l 378 874 l 490 994 l 593 994 l 432 789 l 325 789 l 164 994 z "},"ê":{"ha":756,"x_min":57,"x_max":699,"o":"m 699 382 q 696 325 699 350 l 183 325 q 247 156 190 219 q 392 93 304 93 q 499 126 451 93 q 575 218 546 158 l 688 168 q 567 32 644 81 q 392 -17 489 -17 q 213 32 289 -17 q 97 164 136 81 q 57 350 57 247 q 96 535 57 451 q 208 669 135 619 q 379 718 281 718 q 550 672 478 718 q 660 550 622 626 q 699 382 699 474 m 564 426 q 508 563 557 511 q 376 615 458 615 q 254 565 304 615 q 189 426 204 515 l 564 426 m 432 994 l 593 789 l 490 789 l 378 910 l 265 789 l 164 789 l 325 994 l 432 994 z "},"ë":{"ha":756,"x_min":57,"x_max":699,"o":"m 699 382 q 696 325 699 350 l 183 325 q 247 156 190 219 q 392 93 304 93 q 499 126 451 93 q 575 218 546 158 l 688 168 q 567 32 644 81 q 392 -17 489 -17 q 213 32 289 -17 q 97 164 136 81 q 57 350 57 247 q 96 535 57 451 q 208 669 135 619 q 379 718 281 718 q 550 672 478 718 q 660 550 622 626 q 699 382 699 474 m 564 426 q 508 563 557 511 q 376 615 458 615 q 254 565 304 615 q 189 426 204 515 l 564 426 m 254 831 q 194 853 218 831 q 171 911 171 876 q 194 969 171 946 q 254 992 218 992 q 315 969 292 992 q 339 911 339 946 q 315 853 339 876 q 254 831 292 831 m 501 831 q 443 853 467 831 q 419 911 419 876 q 443 969 419 946 q 501 992 467 992 q 563 969 539 992 q 586 911 586 946 q 563 853 586 876 q 501 831 539 831 z "},"ė":{"ha":756,"x_min":57,"x_max":699,"o":"m 699 382 q 696 325 699 350 l 183 325 q 247 156 190 219 q 392 93 304 93 q 499 126 451 93 q 575 218 546 158 l 688 168 q 567 32 644 81 q 392 -17 489 -17 q 213 32 289 -17 q 97 164 136 81 q 57 350 57 247 q 96 535 57 451 q 208 669 135 619 q 379 718 281 718 q 550 672 478 718 q 660 550 622 626 q 699 382 699 474 m 564 426 q 508 563 557 511 q 376 615 458 615 q 254 565 304 615 q 189 426 204 515 l 564 426 m 376 825 q 315 851 340 825 q 289 913 289 876 q 315 976 289 950 q 376 1001 340 1001 q 441 976 415 1001 q 467 913 467 950 q 441 850 467 875 q 376 825 415 825 z "},"è":{"ha":756,"x_min":57,"x_max":699,"o":"m 699 382 q 696 325 699 350 l 183 325 q 247 156 190 219 q 392 93 304 93 q 499 126 451 93 q 575 218 546 158 l 688 168 q 567 32 644 81 q 392 -17 489 -17 q 213 32 289 -17 q 97 164 136 81 q 57 350 57 247 q 96 535 57 451 q 208 669 135 619 q 379 718 281 718 q 550 672 478 718 q 660 550 622 626 q 699 382 699 474 m 564 426 q 508 563 557 511 q 376 615 458 615 q 254 565 304 615 q 189 426 204 515 l 564 426 m 335 789 l 171 994 l 331 994 l 428 789 l 335 789 z "},"ē":{"ha":756,"x_min":57,"x_max":699,"o":"m 699 382 q 696 325 699 350 l 183 325 q 247 156 190 219 q 392 93 304 93 q 499 126 451 93 q 575 218 546 158 l 688 168 q 567 32 644 81 q 392 -17 489 -17 q 213 32 289 -17 q 97 164 136 81 q 57 350 57 247 q 96 535 57 451 q 208 669 135 619 q 379 718 281 718 q 550 672 478 718 q 660 550 622 626 q 699 382 699 474 m 564 426 q 508 563 557 511 q 376 615 458 615 q 254 565 304 615 q 189 426 204 515 l 564 426 m 192 932 l 565 932 l 565 836 l 192 836 l 192 932 z "},"ę":{"ha":756,"x_min":57,"x_max":699,"o":"m 699 382 q 696 325 699 350 l 183 325 q 247 156 190 219 q 392 93 304 93 q 499 126 451 93 q 575 218 546 158 l 688 168 q 592 49 653 96 q 454 -11 532 3 q 420 -56 432 -35 q 408 -103 408 -78 q 426 -152 408 -135 q 475 -169 444 -169 q 513 -165 500 -169 l 526 -256 q 460 -264 499 -264 q 346 -226 389 -264 q 303 -126 303 -189 q 349 -14 303 -69 q 192 46 258 -4 q 92 175 126 96 q 57 350 57 254 q 96 535 57 451 q 208 669 135 619 q 379 718 281 718 q 550 672 478 718 q 660 550 622 626 q 699 382 699 474 m 564 426 q 508 563 557 511 q 376 615 458 615 q 254 565 304 615 q 189 426 204 515 l 564 426 z "},"f":{"ha":485,"x_min":33,"x_max":442,"o":"m 151 590 l 33 590 l 33 701 l 151 701 l 151 763 q 210 932 151 875 q 368 989 269 989 l 442 989 l 442 879 l 383 879 q 308 851 336 879 q 279 769 279 824 l 279 701 l 442 701 l 442 590 l 279 590 l 279 0 l 151 0 l 151 590 z "},"g":{"ha":708,"x_min":31,"x_max":681,"o":"m 442 131 q 617 83 557 125 q 678 -50 678 42 q 591 -207 678 -153 q 357 -261 504 -261 q 117 -210 204 -261 q 31 -62 31 -158 q 52 18 31 -19 q 107 81 74 56 q 51 186 51 117 q 79 262 51 229 q 151 314 107 294 q 89 475 89 379 q 123 599 89 546 q 218 683 157 653 q 356 713 279 713 q 503 676 438 713 l 604 783 l 681 710 l 582 606 q 624 475 624 549 q 549 304 624 369 q 356 239 474 239 q 229 263 285 239 q 176 196 176 239 q 197 156 176 167 q 257 143 218 146 l 442 131 m 356 613 q 250 576 293 613 q 207 476 207 539 q 251 378 207 415 q 356 340 294 340 q 461 378 418 340 q 504 476 504 415 q 461 576 504 539 q 356 613 418 613 m 357 -156 q 505 -130 456 -156 q 554 -57 554 -104 q 522 10 554 -8 q 422 32 489 28 l 276 40 q 211 47 253 42 q 154 -58 154 11 q 206 -130 154 -104 q 357 -156 257 -156 z "},"ğ":{"ha":708,"x_min":31,"x_max":681,"o":"m 442 131 q 617 83 557 125 q 678 -50 678 42 q 591 -207 678 -153 q 357 -261 504 -261 q 117 -210 204 -261 q 31 -62 31 -158 q 52 18 31 -19 q 107 81 74 56 q 51 186 51 117 q 79 262 51 229 q 151 314 107 294 q 89 475 89 379 q 123 599 89 546 q 218 683 157 653 q 356 713 279 713 q 503 676 438 713 l 604 783 l 681 710 l 582 606 q 624 475 624 549 q 549 304 624 369 q 356 239 474 239 q 229 263 285 239 q 176 196 176 239 q 197 156 176 167 q 257 143 218 146 l 442 131 m 356 613 q 250 576 293 613 q 207 476 207 539 q 251 378 207 415 q 356 340 294 340 q 461 378 418 340 q 504 476 504 415 q 461 576 504 539 q 356 613 418 613 m 357 -156 q 505 -130 456 -156 q 554 -57 554 -104 q 522 10 554 -8 q 422 32 489 28 l 276 40 q 211 47 253 42 q 154 -58 154 11 q 206 -130 154 -104 q 357 -156 257 -156 m 356 785 q 226 836 278 785 q 174 964 174 888 l 276 964 q 299 902 276 926 q 356 878 321 878 q 413 902 390 878 q 435 964 435 926 l 538 964 q 485 836 538 888 q 356 785 433 785 z "},"ĝ":{"ha":708,"x_min":31,"x_max":681,"o":"m 442 131 q 617 83 557 125 q 678 -50 678 42 q 591 -207 678 -153 q 357 -261 504 -261 q 117 -210 204 -261 q 31 -62 31 -158 q 52 18 31 -19 q 107 81 74 56 q 51 186 51 117 q 79 262 51 229 q 151 314 107 294 q 89 475 89 379 q 123 599 89 546 q 218 683 157 653 q 356 713 279 713 q 503 676 438 713 l 604 783 l 681 710 l 582 606 q 624 475 624 549 q 549 304 624 369 q 356 239 474 239 q 229 263 285 239 q 176 196 176 239 q 197 156 176 167 q 257 143 218 146 l 442 131 m 356 613 q 250 576 293 613 q 207 476 207 539 q 251 378 207 415 q 356 340 294 340 q 461 378 418 340 q 504 476 504 415 q 461 576 504 539 q 356 613 418 613 m 357 -156 q 505 -130 456 -156 q 554 -57 554 -104 q 522 10 554 -8 q 422 32 489 28 l 276 40 q 211 47 253 42 q 154 -58 154 11 q 206 -130 154 -104 q 357 -156 257 -156 m 390 1001 l 551 796 l 449 796 l 336 917 l 224 796 l 122 796 l 283 1001 l 390 1001 z "},"ģ":{"ha":708,"x_min":31,"x_max":681,"o":"m 442 131 q 617 83 557 125 q 678 -50 678 42 q 591 -207 678 -153 q 357 -261 504 -261 q 117 -210 204 -261 q 31 -62 31 -158 q 52 18 31 -19 q 107 81 74 56 q 51 186 51 117 q 79 262 51 229 q 151 314 107 294 q 89 475 89 379 q 123 599 89 546 q 218 683 157 653 q 356 713 279 713 q 503 676 438 713 l 604 783 l 681 710 l 582 606 q 624 475 624 549 q 549 304 624 369 q 356 239 474 239 q 229 263 285 239 q 176 196 176 239 q 197 156 176 167 q 257 143 218 146 l 442 131 m 356 613 q 250 576 293 613 q 207 476 207 539 q 251 378 207 415 q 356 340 294 340 q 461 378 418 340 q 504 476 504 415 q 461 576 504 539 q 356 613 418 613 m 357 -156 q 505 -130 456 -156 q 554 -57 554 -104 q 522 10 554 -8 q 422 32 489 28 l 276 40 q 211 47 253 42 q 154 -58 154 11 q 206 -130 154 -104 q 357 -156 257 -156 m 408 789 l 264 789 l 347 994 l 446 994 l 408 789 z "},"ġ":{"ha":708,"x_min":31,"x_max":681,"o":"m 442 131 q 617 83 557 125 q 678 -50 678 42 q 591 -207 678 -153 q 357 -261 504 -261 q 117 -210 204 -261 q 31 -62 31 -158 q 52 18 31 -19 q 107 81 74 56 q 51 186 51 117 q 79 262 51 229 q 151 314 107 294 q 89 475 89 379 q 123 599 89 546 q 218 683 157 653 q 356 713 279 713 q 503 676 438 713 l 604 783 l 681 710 l 582 606 q 624 475 624 549 q 549 304 624 369 q 356 239 474 239 q 229 263 285 239 q 176 196 176 239 q 197 156 176 167 q 257 143 218 146 l 442 131 m 356 613 q 250 576 293 613 q 207 476 207 539 q 251 378 207 415 q 356 340 294 340 q 461 378 418 340 q 504 476 504 415 q 461 576 504 539 q 356 613 418 613 m 357 -156 q 505 -130 456 -156 q 554 -57 554 -104 q 522 10 554 -8 q 422 32 489 28 l 276 40 q 211 47 253 42 q 154 -58 154 11 q 206 -130 154 -104 q 357 -156 257 -156 m 354 825 q 292 851 318 825 q 267 913 267 876 q 292 976 267 950 q 354 1001 318 1001 q 419 976 393 1001 q 444 913 444 950 q 419 850 444 875 q 354 825 393 825 z "},"h":{"ha":804,"x_min":89,"x_max":714,"o":"m 451 718 q 589 686 529 718 q 681 596 649 654 q 714 463 714 538 l 714 0 l 588 0 l 588 440 q 544 560 588 515 q 424 604 500 604 q 217 485 294 604 l 217 0 l 89 0 l 89 972 l 217 972 l 217 618 q 317 691 256 664 q 451 718 379 718 z "},"ħ":{"ha":804,"x_min":-15,"x_max":714,"o":"m 451 718 q 589 686 529 718 q 681 596 649 654 q 714 463 714 538 l 714 0 l 588 0 l 588 440 q 544 560 588 515 q 424 604 500 604 q 217 485 294 604 l 217 0 l 89 0 l 89 789 l -15 789 l -15 883 l 89 883 l 89 972 l 217 972 l 217 883 l 392 883 l 392 789 l 217 789 l 217 618 q 317 691 256 664 q 451 718 379 718 z "},"ĥ":{"ha":804,"x_min":-58,"x_max":714,"o":"m 451 718 q 589 686 529 718 q 681 596 649 654 q 714 463 714 538 l 714 0 l 588 0 l 588 440 q 544 560 588 515 q 424 604 500 604 q 217 485 294 604 l 217 0 l 89 0 l 89 972 l 217 972 l 217 618 q 317 691 256 664 q 451 718 379 718 m 210 1279 l 371 1074 l 268 1074 l 156 1194 l 43 1074 l -58 1074 l 103 1279 l 210 1279 z "},"i":{"ha":306,"x_min":64,"x_max":242,"o":"m 89 701 l 217 701 l 217 0 l 89 0 l 89 701 m 151 825 q 90 851 115 825 q 64 913 64 876 q 90 976 64 950 q 151 1001 115 1001 q 216 976 190 1001 q 242 913 242 950 q 216 850 242 875 q 151 825 190 825 z "},"ı":{"ha":306,"x_min":89,"x_max":217,"o":"m 89 701 l 217 701 l 217 0 l 89 0 l 89 701 z "},"í":{"ha":306,"x_min":89,"x_max":357,"o":"m 89 701 l 217 701 l 217 0 l 89 0 l 89 701 m 197 994 l 357 994 l 194 789 l 100 789 l 197 994 z "},"ĭ":{"ha":306,"x_min":-29,"x_max":335,"o":"m 89 701 l 217 701 l 217 0 l 89 0 l 89 701 m 153 785 q 23 836 75 785 q -29 964 -29 888 l 74 964 q 96 902 74 926 q 153 878 118 878 q 210 902 188 878 q 232 964 232 926 l 335 964 q 283 836 335 888 q 153 785 231 785 z "},"î":{"ha":306,"x_min":-61,"x_max":368,"o":"m 89 701 l 217 701 l 217 0 l 89 0 l 89 701 m 207 994 l 368 789 l 265 789 l 153 910 l 40 789 l -61 789 l 100 994 l 207 994 z "},"ï":{"ha":306,"x_min":-54,"x_max":361,"o":"m 89 701 l 217 701 l 217 0 l 89 0 l 89 701 m 29 831 q -31 853 -7 831 q -54 911 -54 876 q -31 969 -54 946 q 29 992 -7 992 q 90 969 67 992 q 114 911 114 946 q 90 853 114 876 q 29 831 67 831 m 276 831 q 218 853 242 831 q 194 911 194 876 q 218 969 194 946 q 276 992 242 992 q 338 969 314 992 q 361 911 361 946 q 338 853 361 876 q 276 831 314 831 z "},"ì":{"ha":306,"x_min":-54,"x_max":217,"o":"m 89 701 l 217 701 l 217 0 l 89 0 l 89 701 m 110 789 l -54 994 l 106 994 l 203 789 l 110 789 z "},"ī":{"ha":306,"x_min":-35,"x_max":339,"o":"m 89 701 l 217 701 l 217 0 l 89 0 l 89 701 m -35 932 l 339 932 l 339 836 l -35 836 l -35 932 z "},"į":{"ha":306,"x_min":54,"x_max":278,"o":"m 151 825 q 90 851 115 825 q 64 913 64 876 q 90 976 64 950 q 151 1001 115 1001 q 216 976 190 1001 q 242 913 242 950 q 216 850 242 875 q 151 825 190 825 m 278 -256 q 211 -264 247 -264 q 97 -226 140 -264 q 54 -126 54 -189 q 70 -60 54 -93 q 114 0 86 -26 l 89 0 l 89 701 l 217 701 l 217 0 q 174 -51 189 -28 q 160 -103 160 -75 q 178 -152 160 -135 q 226 -169 196 -169 q 264 -165 251 -169 l 278 -256 z "},"ĩ":{"ha":306,"x_min":-93,"x_max":407,"o":"m 89 701 l 217 701 l 217 0 l 89 0 l 89 701 m 168 947 q 215 919 199 928 q 251 911 231 911 q 294 929 278 911 q 314 981 311 947 l 407 965 q 359 856 400 896 q 251 815 318 815 q 146 850 200 815 q 120 867 136 856 q 91 883 104 878 q 63 889 78 889 q 19 870 36 889 q -1 818 1 851 l -93 833 q -45 942 -86 901 q 60 983 -4 983 q 168 947 117 983 z "},"j":{"ha":306,"x_min":-29,"x_max":242,"o":"m -29 -264 l -29 -151 l -14 -151 q 64 -122 39 -151 q 89 -32 89 -93 l 89 701 l 217 701 l 217 -49 q 158 -207 217 -149 q 1 -265 100 -265 l -29 -264 m 151 825 q 90 851 115 825 q 64 913 64 876 q 90 976 64 950 q 151 1001 115 1001 q 216 976 190 1001 q 242 913 242 950 q 216 850 242 875 q 151 825 190 825 z "},"ȷ":{"ha":306,"x_min":-29,"x_max":217,"o":"m -29 -264 l -29 -151 l -14 -151 q 64 -122 39 -151 q 89 -32 89 -93 l 89 701 l 217 701 l 217 -49 q 158 -207 217 -149 q 1 -265 100 -265 l -29 -264 z "},"ĵ":{"ha":306,"x_min":-61,"x_max":368,"o":"m -29 -264 l -29 -151 l -14 -151 q 64 -122 39 -151 q 89 -32 89 -93 l 89 701 l 217 701 l 217 -49 q 158 -207 217 -149 q 1 -265 100 -265 l -29 -264 m 207 994 l 368 789 l 265 789 l 153 910 l 40 789 l -61 789 l 100 994 l 207 994 z "},"k":{"ha":743,"x_min":89,"x_max":725,"o":"m 257 336 l 217 336 l 217 0 l 89 0 l 89 972 l 217 972 l 217 447 l 261 447 l 533 701 l 699 701 l 371 388 l 725 0 l 563 0 l 257 336 z "},"ķ":{"ha":743,"x_min":89,"x_max":725,"o":"m 257 336 l 217 336 l 217 0 l 89 0 l 89 972 l 217 972 l 217 447 l 261 447 l 533 701 l 699 701 l 371 388 l 725 0 l 563 0 l 257 336 m 293 -58 l 440 -58 l 328 -264 l 233 -264 l 293 -58 z "},"ĸ":{"ha":743,"x_min":89,"x_max":725,"o":"m 258 331 l 217 331 l 217 0 l 89 0 l 89 701 l 217 701 l 217 442 l 260 442 l 533 701 l 700 701 l 371 383 l 725 0 l 563 0 l 258 331 z "},"l":{"ha":306,"x_min":89,"x_max":217,"o":"m 89 972 l 217 972 l 217 0 l 89 0 l 89 972 z "},"ĺ":{"ha":306,"x_min":89,"x_max":357,"o":"m 89 972 l 217 972 l 217 0 l 89 0 l 89 972 m 197 1265 l 357 1265 l 194 1060 l 100 1060 l 197 1265 z "},"ľ":{"ha":411,"x_min":89,"x_max":456,"o":"m 89 972 l 217 972 l 217 0 l 89 0 l 89 972 m 324 1040 l 456 1040 l 357 796 l 279 796 l 324 1040 z "},"ļ":{"ha":306,"x_min":25,"x_max":232,"o":"m 89 972 l 217 972 l 217 0 l 89 0 l 89 972 m 85 -58 l 232 -58 l 119 -264 l 25 -264 l 85 -58 z "},"ŀ":{"ha":436,"x_min":89,"x_max":465,"o":"m 89 972 l 217 972 l 217 0 l 89 0 l 89 972 z "},"ł":{"ha":411,"x_min":11,"x_max":396,"o":"m 396 550 l 268 489 l 268 0 l 140 0 l 140 429 l 11 368 l 11 482 l 140 543 l 140 972 l 268 972 l 268 603 l 396 664 l 396 550 z "},"m":{"ha":1214,"x_min":89,"x_max":1125,"o":"m 883 718 q 1058 647 992 718 q 1125 463 1125 576 l 1125 0 l 997 0 l 997 440 q 958 560 997 515 q 853 604 919 604 q 750 573 797 604 q 671 483 703 542 l 671 463 l 671 0 l 543 0 l 543 440 q 504 560 543 515 q 399 604 465 604 q 297 574 343 604 q 217 485 250 543 l 217 0 l 89 0 l 89 701 l 217 701 l 217 618 q 308 691 251 664 q 429 718 365 718 q 556 685 501 718 q 642 594 611 653 q 744 685 679 651 q 883 718 810 718 z "},"n":{"ha":804,"x_min":89,"x_max":714,"o":"m 451 718 q 589 686 529 718 q 681 596 649 654 q 714 463 714 538 l 714 0 l 588 0 l 588 440 q 544 560 588 515 q 424 604 500 604 q 217 485 294 604 l 217 0 l 89 0 l 89 701 l 217 701 l 217 618 q 317 691 256 664 q 451 718 379 718 z "},"ń":{"ha":804,"x_min":89,"x_max":714,"o":"m 451 718 q 589 686 529 718 q 681 596 649 654 q 714 463 714 538 l 714 0 l 588 0 l 588 440 q 544 560 588 515 q 424 604 500 604 q 217 485 294 604 l 217 0 l 89 0 l 89 701 l 217 701 l 217 618 q 317 691 256 664 q 451 718 379 718 m 439 994 l 599 994 l 436 789 l 342 789 l 439 994 z "},"ŉ":{"ha":804,"x_min":89,"x_max":714,"o":"m 451 718 q 589 686 529 718 q 681 596 649 654 q 714 463 714 538 l 714 0 l 588 0 l 588 440 q 544 560 588 515 q 424 604 500 604 q 217 485 294 604 l 217 0 l 89 0 l 89 701 l 217 701 l 217 618 q 317 691 256 664 q 451 718 379 718 m 156 1039 l 288 1039 l 189 794 l 111 794 l 156 1039 z "},"ň":{"ha":804,"x_min":89,"x_max":714,"o":"m 451 718 q 589 686 529 718 q 681 596 649 654 q 714 463 714 538 l 714 0 l 588 0 l 588 440 q 544 560 588 515 q 424 604 500 604 q 217 485 294 604 l 217 0 l 89 0 l 89 701 l 217 701 l 217 618 q 317 691 256 664 q 451 718 379 718 m 181 994 l 282 994 l 394 874 l 507 994 l 610 994 l 449 789 l 342 789 l 181 994 z "},"ņ":{"ha":804,"x_min":89,"x_max":714,"o":"m 451 718 q 589 686 529 718 q 681 596 649 654 q 714 463 714 538 l 714 0 l 588 0 l 588 440 q 544 560 588 515 q 424 604 500 604 q 217 485 294 604 l 217 0 l 89 0 l 89 701 l 217 701 l 217 618 q 317 691 256 664 q 451 718 379 718 m 331 -58 l 478 -58 l 365 -264 l 271 -264 l 331 -58 z "},"ŋ":{"ha":804,"x_min":89,"x_max":714,"o":"m 451 718 q 589 686 529 718 q 681 596 649 654 q 714 463 714 538 l 714 -58 q 651 -208 714 -151 q 486 -265 589 -265 q 464 -264 469 -265 l 463 -151 q 481 -153 468 -153 q 562 -124 538 -153 q 586 -28 586 -94 l 586 208 l 588 208 l 588 440 q 544 560 588 515 q 424 604 500 604 q 217 485 294 604 l 217 0 l 89 0 l 89 701 l 217 701 l 217 618 q 317 691 256 664 q 451 718 379 718 z "},"ñ":{"ha":804,"x_min":89,"x_max":714,"o":"m 451 718 q 589 686 529 718 q 681 596 649 654 q 714 463 714 538 l 714 0 l 588 0 l 588 440 q 544 560 588 515 q 424 604 500 604 q 217 485 294 604 l 217 0 l 89 0 l 89 701 l 217 701 l 217 618 q 317 691 256 664 q 451 718 379 718 m 411 947 q 458 919 442 928 q 494 911 474 911 q 538 929 521 911 q 557 981 554 947 l 650 965 q 602 856 643 896 q 494 815 561 815 q 389 850 443 815 q 363 867 379 856 q 334 883 347 878 q 306 889 321 889 q 262 870 279 889 q 242 818 244 851 l 150 833 q 198 942 157 901 q 303 983 239 983 q 411 947 360 983 z "},"o":{"ha":790,"x_min":57,"x_max":733,"o":"m 394 -17 q 221 31 297 -17 q 101 161 144 78 q 57 350 57 244 q 101 540 57 456 q 221 671 144 624 q 394 718 297 718 q 569 671 492 718 q 690 540 646 624 q 733 350 733 456 q 690 161 733 244 q 569 31 646 78 q 394 -17 492 -17 m 394 97 q 546 167 488 97 q 604 350 604 238 q 546 533 604 463 q 394 604 488 604 q 244 533 301 604 q 186 350 186 463 q 244 167 186 238 q 394 97 301 97 z "},"ó":{"ha":790,"x_min":57,"x_max":733,"o":"m 394 -17 q 221 31 297 -17 q 101 161 144 78 q 57 350 57 244 q 101 540 57 456 q 221 671 144 624 q 394 718 297 718 q 569 671 492 718 q 690 540 646 624 q 733 350 733 456 q 690 161 733 244 q 569 31 646 78 q 394 -17 492 -17 m 394 97 q 546 167 488 97 q 604 350 604 238 q 546 533 604 463 q 394 604 488 604 q 244 533 301 604 q 186 350 186 463 q 244 167 186 238 q 394 97 301 97 m 440 994 l 600 994 l 438 789 l 343 789 l 440 994 z "},"ŏ":{"ha":790,"x_min":57,"x_max":733,"o":"m 394 -17 q 221 31 297 -17 q 101 161 144 78 q 57 350 57 244 q 101 540 57 456 q 221 671 144 624 q 394 718 297 718 q 569 671 492 718 q 690 540 646 624 q 733 350 733 456 q 690 161 733 244 q 569 31 646 78 q 394 -17 492 -17 m 394 97 q 546 167 488 97 q 604 350 604 238 q 546 533 604 463 q 394 604 488 604 q 244 533 301 604 q 186 350 186 463 q 244 167 186 238 q 394 97 301 97 m 396 785 q 266 836 318 785 q 214 964 214 888 l 317 964 q 339 902 317 926 q 396 878 361 878 q 453 902 431 878 q 475 964 475 926 l 578 964 q 526 836 578 888 q 396 785 474 785 z "},"ô":{"ha":790,"x_min":57,"x_max":733,"o":"m 394 -17 q 221 31 297 -17 q 101 161 144 78 q 57 350 57 244 q 101 540 57 456 q 221 671 144 624 q 394 718 297 718 q 569 671 492 718 q 690 540 646 624 q 733 350 733 456 q 690 161 733 244 q 569 31 646 78 q 394 -17 492 -17 m 394 97 q 546 167 488 97 q 604 350 604 238 q 546 533 604 463 q 394 604 488 604 q 244 533 301 604 q 186 350 186 463 q 244 167 186 238 q 394 97 301 97 m 450 994 l 611 789 l 508 789 l 396 910 l 283 789 l 182 789 l 343 994 l 450 994 z "},"ö":{"ha":790,"x_min":57,"x_max":733,"o":"m 394 -17 q 221 31 297 -17 q 101 161 144 78 q 57 350 57 244 q 101 540 57 456 q 221 671 144 624 q 394 718 297 718 q 569 671 492 718 q 690 540 646 624 q 733 350 733 456 q 690 161 733 244 q 569 31 646 78 q 394 -17 492 -17 m 394 97 q 546 167 488 97 q 604 350 604 238 q 546 533 604 463 q 394 604 488 604 q 244 533 301 604 q 186 350 186 463 q 244 167 186 238 q 394 97 301 97 m 272 831 q 213 853 236 831 q 189 911 189 876 q 213 969 189 946 q 272 992 236 992 q 333 969 310 992 q 357 911 357 946 q 333 853 357 876 q 272 831 310 831 m 519 831 q 461 853 485 831 q 438 911 438 876 q 461 969 438 946 q 519 992 485 992 q 581 969 557 992 q 604 911 604 946 q 581 853 604 876 q 519 831 557 831 z "},"ò":{"ha":790,"x_min":57,"x_max":733,"o":"m 394 -17 q 221 31 297 -17 q 101 161 144 78 q 57 350 57 244 q 101 540 57 456 q 221 671 144 624 q 394 718 297 718 q 569 671 492 718 q 690 540 646 624 q 733 350 733 456 q 690 161 733 244 q 569 31 646 78 q 394 -17 492 -17 m 394 97 q 546 167 488 97 q 604 350 604 238 q 546 533 604 463 q 394 604 488 604 q 244 533 301 604 q 186 350 186 463 q 244 167 186 238 q 394 97 301 97 m 353 789 l 189 994 l 349 994 l 446 789 l 353 789 z "},"ő":{"ha":790,"x_min":57,"x_max":733,"o":"m 394 -17 q 221 31 297 -17 q 101 161 144 78 q 57 350 57 244 q 101 540 57 456 q 221 671 144 624 q 394 718 297 718 q 569 671 492 718 q 690 540 646 624 q 733 350 733 456 q 690 161 733 244 q 569 31 646 78 q 394 -17 492 -17 m 394 97 q 546 167 488 97 q 604 350 604 238 q 546 533 604 463 q 394 604 488 604 q 244 533 301 604 q 186 350 186 463 q 244 167 186 238 q 394 97 301 97 m 326 994 l 447 994 l 339 789 l 229 789 l 326 994 m 525 994 l 650 994 l 536 789 l 428 789 l 525 994 z "},"ō":{"ha":790,"x_min":57,"x_max":733,"o":"m 394 -17 q 221 31 297 -17 q 101 161 144 78 q 57 350 57 244 q 101 540 57 456 q 221 671 144 624 q 394 718 297 718 q 569 671 492 718 q 690 540 646 624 q 733 350 733 456 q 690 161 733 244 q 569 31 646 78 q 394 -17 492 -17 m 394 97 q 546 167 488 97 q 604 350 604 238 q 546 533 604 463 q 394 604 488 604 q 244 533 301 604 q 186 350 186 463 q 244 167 186 238 q 394 97 301 97 m 208 932 l 582 932 l 582 836 l 208 836 l 208 932 z "},"ø":{"ha":790,"x_min":57,"x_max":733,"o":"m 585 660 q 694 531 654 613 q 733 350 733 450 q 690 161 733 244 q 569 31 646 78 q 394 -17 492 -17 q 293 -1 343 -17 l 243 -117 l 153 -81 l 206 40 q 97 168 136 88 q 57 350 57 249 q 101 540 57 456 q 221 671 144 624 q 394 718 297 718 q 499 703 449 718 l 549 817 l 639 782 l 585 660 m 186 350 q 204 238 186 289 q 256 154 222 188 l 451 596 q 394 604 425 604 q 244 533 301 604 q 186 350 186 463 m 394 97 q 546 167 488 97 q 604 350 604 238 q 586 461 604 411 q 535 546 568 511 l 340 104 q 394 97 368 97 z "},"õ":{"ha":790,"x_min":57,"x_max":733,"o":"m 394 -17 q 221 31 297 -17 q 101 161 144 78 q 57 350 57 244 q 101 540 57 456 q 221 671 144 624 q 394 718 297 718 q 569 671 492 718 q 690 540 646 624 q 733 350 733 456 q 690 161 733 244 q 569 31 646 78 q 394 -17 492 -17 m 394 97 q 546 167 488 97 q 604 350 604 238 q 546 533 604 463 q 394 604 488 604 q 244 533 301 604 q 186 350 186 463 q 244 167 186 238 q 394 97 301 97 m 411 947 q 458 919 442 928 q 494 911 474 911 q 538 929 521 911 q 557 981 554 947 l 650 965 q 602 856 643 896 q 494 815 561 815 q 389 850 443 815 q 363 867 379 856 q 334 883 347 878 q 306 889 321 889 q 262 870 279 889 q 242 818 244 851 l 150 833 q 198 942 157 901 q 303 983 239 983 q 411 947 360 983 z "},"œ":{"ha":1313,"x_min":57,"x_max":1249,"o":"m 1249 382 q 1246 325 1249 350 l 733 325 q 798 156 740 219 q 943 93 856 93 q 1049 126 1001 93 q 1126 218 1097 158 l 1239 168 q 1117 32 1194 81 q 942 -17 1040 -17 q 782 21 851 -17 q 669 126 713 58 q 552 21 624 58 q 394 -17 481 -17 q 221 31 297 -17 q 101 161 144 78 q 57 350 57 244 q 101 540 57 456 q 221 671 144 624 q 394 718 297 718 q 551 681 481 718 q 668 575 622 643 q 777 681 710 643 q 931 718 844 718 q 1101 672 1029 718 q 1210 550 1172 626 q 1249 382 1249 474 m 1115 426 q 1058 563 1107 511 q 928 615 1008 615 q 805 565 856 615 q 739 426 754 515 l 1115 426 m 394 97 q 546 167 488 97 q 604 350 604 238 q 546 533 604 463 q 394 604 488 604 q 244 533 301 604 q 186 350 186 463 q 244 167 186 238 q 394 97 301 97 z "},"p":{"ha":799,"x_min":89,"x_max":742,"o":"m 426 718 q 595 670 524 718 q 704 538 667 622 q 742 350 742 454 q 704 163 742 246 q 595 31 667 79 q 425 -17 524 -17 q 308 8 365 -17 q 217 72 251 32 l 217 -253 l 89 -253 l 89 701 l 217 701 l 217 629 q 308 694 251 669 q 426 718 365 718 m 408 99 q 556 167 500 99 q 611 350 611 236 q 556 534 611 465 q 408 603 500 603 q 299 573 351 603 q 217 492 247 543 l 217 210 q 300 128 249 158 q 408 99 351 99 z "},"þ":{"ha":799,"x_min":89,"x_max":742,"o":"m 426 718 q 595 670 524 718 q 704 538 667 622 q 742 350 742 454 q 704 163 742 246 q 595 31 667 79 q 425 -17 524 -17 q 308 8 365 -17 q 217 72 251 32 l 217 -253 l 89 -253 l 89 972 l 217 972 l 217 629 q 308 694 251 669 q 426 718 365 718 m 408 99 q 556 167 500 99 q 611 350 611 236 q 556 534 611 465 q 408 603 500 603 q 299 573 351 603 q 217 492 247 543 l 217 210 q 300 128 249 158 q 408 99 351 99 z "},"q":{"ha":799,"x_min":57,"x_max":710,"o":"m 710 701 l 710 -253 l 582 -253 l 582 72 q 490 8 546 32 q 374 -17 433 -17 q 203 31 275 -17 q 94 163 132 79 q 57 350 57 246 q 94 538 57 454 q 203 670 132 622 q 372 718 275 718 q 489 694 432 718 q 582 629 546 669 l 582 701 l 710 701 m 582 492 q 499 573 551 543 q 389 603 447 603 q 242 534 297 603 q 188 350 188 465 q 243 167 188 236 q 389 99 299 99 q 499 128 447 99 q 582 210 550 158 l 582 492 z "},"r":{"ha":539,"x_min":89,"x_max":514,"o":"m 433 717 q 514 707 475 717 l 508 583 q 417 597 472 597 q 303 558 357 597 q 217 449 250 518 l 217 0 l 89 0 l 89 701 l 217 701 l 217 594 q 310 684 253 651 q 433 717 367 717 z "},"ŕ":{"ha":539,"x_min":89,"x_max":514,"o":"m 433 717 q 514 707 475 717 l 508 583 q 417 597 472 597 q 303 558 357 597 q 217 449 250 518 l 217 0 l 89 0 l 89 701 l 217 701 l 217 594 q 310 684 253 651 q 433 717 367 717 m 342 994 l 501 994 l 339 789 l 244 789 l 342 994 z "},"ř":{"ha":539,"x_min":82,"x_max":514,"o":"m 433 717 q 514 707 475 717 l 508 583 q 417 597 472 597 q 303 558 357 597 q 217 449 250 518 l 217 0 l 89 0 l 89 701 l 217 701 l 217 594 q 310 684 253 651 q 433 717 367 717 m 82 994 l 183 994 l 296 874 l 408 994 l 511 994 l 350 789 l 243 789 l 82 994 z "},"ŗ":{"ha":539,"x_min":19,"x_max":514,"o":"m 433 717 q 514 707 475 717 l 508 583 q 417 597 472 597 q 303 558 357 597 q 217 449 250 518 l 217 0 l 89 0 l 89 701 l 217 701 l 217 594 q 310 684 253 651 q 433 717 367 717 m 79 -58 l 226 -58 l 114 -264 l 19 -264 l 79 -58 z "},"s":{"ha":625,"x_min":22,"x_max":578,"o":"m 317 -17 q 125 43 199 -17 q 22 189 51 103 l 128 233 q 315 88 176 88 q 417 117 378 88 q 457 192 457 147 q 434 255 457 231 q 377 292 411 279 q 283 322 343 306 q 165 363 210 343 q 88 422 119 382 q 56 528 56 463 q 123 665 56 613 q 301 718 190 718 q 465 671 397 718 q 561 544 532 624 l 456 497 q 399 584 442 551 q 300 617 356 617 q 206 594 239 617 q 174 529 174 571 q 193 481 174 499 q 242 452 213 463 q 326 428 271 442 q 456 388 406 408 q 542 321 506 367 q 578 196 578 275 q 544 85 578 133 q 452 10 511 38 q 317 -17 393 -17 z "},"ś":{"ha":625,"x_min":22,"x_max":578,"o":"m 317 -17 q 125 43 199 -17 q 22 189 51 103 l 128 233 q 315 88 176 88 q 417 117 378 88 q 457 192 457 147 q 434 255 457 231 q 377 292 411 279 q 283 322 343 306 q 165 363 210 343 q 88 422 119 382 q 56 528 56 463 q 123 665 56 613 q 301 718 190 718 q 465 671 397 718 q 561 544 532 624 l 456 497 q 399 584 442 551 q 300 617 356 617 q 206 594 239 617 q 174 529 174 571 q 193 481 174 499 q 242 452 213 463 q 326 428 271 442 q 456 388 406 408 q 542 321 506 367 q 578 196 578 275 q 544 85 578 133 q 452 10 511 38 q 317 -17 393 -17 m 349 994 l 508 994 l 346 789 l 251 789 l 349 994 z "},"š":{"ha":625,"x_min":22,"x_max":578,"o":"m 317 -17 q 125 43 199 -17 q 22 189 51 103 l 128 233 q 315 88 176 88 q 417 117 378 88 q 457 192 457 147 q 434 255 457 231 q 377 292 411 279 q 283 322 343 306 q 165 363 210 343 q 88 422 119 382 q 56 528 56 463 q 123 665 56 613 q 301 718 190 718 q 465 671 397 718 q 561 544 532 624 l 456 497 q 399 584 442 551 q 300 617 356 617 q 206 594 239 617 q 174 529 174 571 q 193 481 174 499 q 242 452 213 463 q 326 428 271 442 q 456 388 406 408 q 542 321 506 367 q 578 196 578 275 q 544 85 578 133 q 452 10 511 38 q 317 -17 393 -17 m 89 994 l 190 994 l 303 874 l 415 994 l 518 994 l 357 789 l 250 789 l 89 994 z "},"ş":{"ha":625,"x_min":22,"x_max":578,"o":"m 578 196 q 519 55 578 113 q 363 -14 460 -3 l 271 -204 l 110 -204 l 261 -12 q 107 58 167 1 q 22 189 47 114 l 128 233 q 315 88 176 88 q 417 117 378 88 q 457 192 457 147 q 434 255 457 231 q 377 292 411 279 q 283 322 343 306 q 165 363 210 343 q 88 422 119 382 q 56 528 56 463 q 123 665 56 613 q 301 718 190 718 q 465 671 397 718 q 561 544 532 624 l 456 497 q 399 584 442 551 q 300 617 356 617 q 206 594 239 617 q 174 529 174 571 q 193 481 174 499 q 242 452 213 463 q 326 428 271 442 q 456 388 406 408 q 542 321 506 367 q 578 196 578 275 z "},"ŝ":{"ha":625,"x_min":22,"x_max":578,"o":"m 317 -17 q 125 43 199 -17 q 22 189 51 103 l 128 233 q 315 88 176 88 q 417 117 378 88 q 457 192 457 147 q 434 255 457 231 q 377 292 411 279 q 283 322 343 306 q 165 363 210 343 q 88 422 119 382 q 56 528 56 463 q 123 665 56 613 q 301 718 190 718 q 465 671 397 718 q 561 544 532 624 l 456 497 q 399 584 442 551 q 300 617 356 617 q 206 594 239 617 q 174 529 174 571 q 193 481 174 499 q 242 452 213 463 q 326 428 271 442 q 456 388 406 408 q 542 321 506 367 q 578 196 578 275 q 544 85 578 133 q 452 10 511 38 q 317 -17 393 -17 m 357 994 l 518 789 l 415 789 l 303 910 l 190 789 l 89 789 l 250 994 l 357 994 z "},"ș":{"ha":625,"x_min":22,"x_max":578,"o":"m 317 -17 q 125 43 199 -17 q 22 189 51 103 l 128 233 q 315 88 176 88 q 417 117 378 88 q 457 192 457 147 q 434 255 457 231 q 377 292 411 279 q 283 322 343 306 q 165 363 210 343 q 88 422 119 382 q 56 528 56 463 q 123 665 56 613 q 301 718 190 718 q 465 671 397 718 q 561 544 532 624 l 456 497 q 399 584 442 551 q 300 617 356 617 q 206 594 239 617 q 174 529 174 571 q 193 481 174 499 q 242 452 213 463 q 326 428 271 442 q 456 388 406 408 q 542 321 506 367 q 578 196 578 275 q 544 85 578 133 q 452 10 511 38 q 317 -17 393 -17 m 243 -58 l 390 -58 l 278 -264 l 183 -264 l 243 -58 z "},"ß":{"ha":838,"x_min":36,"x_max":790,"o":"m 465 -11 q 397 -8 436 -11 q 347 -1 357 -4 l 347 115 q 453 104 396 104 q 601 153 547 104 q 656 289 656 203 q 592 424 656 379 q 410 468 528 468 l 347 468 l 347 590 l 413 590 q 545 626 497 590 q 593 735 593 663 q 546 844 593 801 q 425 888 499 888 q 299 835 344 888 q 253 689 253 782 l 253 0 l 117 0 l 117 468 l 36 468 l 36 592 l 117 592 l 117 689 q 158 853 117 786 q 269 955 199 921 q 425 989 339 989 q 580 958 513 989 q 683 871 647 926 q 719 744 719 815 q 683 616 719 671 q 589 546 646 561 q 733 456 676 521 q 790 290 790 392 q 702 66 790 143 q 465 -11 614 -11 z "},"ſ":{"ha":515,"x_min":44,"x_max":451,"o":"m 163 590 l 44 590 l 44 701 l 163 701 l 163 763 q 221 932 163 875 q 378 989 279 989 l 451 989 l 451 879 l 393 879 q 317 851 346 879 q 289 769 289 822 l 289 0 l 163 0 l 163 590 z "},"t":{"ha":504,"x_min":33,"x_max":471,"o":"m 182 590 l 33 590 l 33 701 l 182 701 l 182 918 l 310 979 l 310 701 l 471 701 l 471 590 l 310 590 l 310 0 l 182 0 l 182 590 z "},"ŧ":{"ha":504,"x_min":33,"x_max":471,"o":"m 310 590 l 310 397 l 456 397 l 456 303 l 310 303 l 310 0 l 182 0 l 182 303 l 49 303 l 49 397 l 182 397 l 182 590 l 33 590 l 33 701 l 182 701 l 182 918 l 310 979 l 310 701 l 471 701 l 471 590 l 310 590 z "},"ť":{"ha":540,"x_min":33,"x_max":585,"o":"m 182 590 l 33 590 l 33 701 l 182 701 l 182 918 l 310 979 l 310 701 l 471 701 l 471 590 l 310 590 l 310 0 l 182 0 l 182 590 m 453 1040 l 585 1040 l 486 796 l 408 796 l 453 1040 z "},"ţ":{"ha":504,"x_min":33,"x_max":471,"o":"m 471 701 l 471 590 l 310 590 l 310 0 l 300 0 l 201 -204 l 40 -204 l 201 0 l 182 0 l 182 590 l 33 590 l 33 701 l 182 701 l 182 918 l 310 979 l 310 701 l 471 701 z "},"ț":{"ha":504,"x_min":33,"x_max":471,"o":"m 182 590 l 33 590 l 33 701 l 182 701 l 182 918 l 310 979 l 310 701 l 471 701 l 471 590 l 310 590 l 310 0 l 182 0 l 182 590 m 174 -58 l 321 -58 l 208 -264 l 114 -264 l 174 -58 z "},"u":{"ha":801,"x_min":89,"x_max":713,"o":"m 400 -17 q 238 19 308 -17 q 128 119 167 54 q 89 267 89 183 l 89 701 l 217 701 l 217 278 q 267 147 217 197 q 400 97 318 97 q 534 147 483 97 q 585 278 585 196 l 585 701 l 713 701 l 713 267 q 674 119 713 183 q 564 19 635 54 q 400 -17 493 -17 z "},"ú":{"ha":801,"x_min":89,"x_max":713,"o":"m 400 -17 q 238 19 308 -17 q 128 119 167 54 q 89 267 89 183 l 89 701 l 217 701 l 217 278 q 267 147 217 197 q 400 97 318 97 q 534 147 483 97 q 585 278 585 196 l 585 701 l 713 701 l 713 267 q 674 119 713 183 q 564 19 635 54 q 400 -17 493 -17 m 446 994 l 606 994 l 443 789 l 349 789 l 446 994 z "},"ŭ":{"ha":801,"x_min":89,"x_max":713,"o":"m 400 -17 q 238 19 308 -17 q 128 119 167 54 q 89 267 89 183 l 89 701 l 217 701 l 217 278 q 267 147 217 197 q 400 97 318 97 q 534 147 483 97 q 585 278 585 196 l 585 701 l 713 701 l 713 267 q 674 119 713 183 q 564 19 635 54 q 400 -17 493 -17 m 401 785 q 272 836 324 785 q 219 964 219 888 l 322 964 q 344 902 322 926 q 401 878 367 878 q 458 902 436 878 q 481 964 481 926 l 583 964 q 531 836 583 888 q 401 785 479 785 z "},"û":{"ha":801,"x_min":89,"x_max":713,"o":"m 400 -17 q 238 19 308 -17 q 128 119 167 54 q 89 267 89 183 l 89 701 l 217 701 l 217 278 q 267 147 217 197 q 400 97 318 97 q 534 147 483 97 q 585 278 585 196 l 585 701 l 713 701 l 713 267 q 674 119 713 183 q 564 19 635 54 q 400 -17 493 -17 m 454 994 l 615 789 l 513 789 l 400 910 l 288 789 l 186 789 l 347 994 l 454 994 z "},"ü":{"ha":801,"x_min":89,"x_max":713,"o":"m 400 -17 q 238 19 308 -17 q 128 119 167 54 q 89 267 89 183 l 89 701 l 217 701 l 217 278 q 267 147 217 197 q 400 97 318 97 q 534 147 483 97 q 585 278 585 196 l 585 701 l 713 701 l 713 267 q 674 119 713 183 q 564 19 635 54 q 400 -17 493 -17 m 276 831 q 217 853 240 831 q 193 911 193 876 q 217 969 193 946 q 276 992 240 992 q 338 969 314 992 q 361 911 361 946 q 338 853 361 876 q 276 831 314 831 m 524 831 q 465 853 489 831 q 442 911 442 876 q 465 969 442 946 q 524 992 489 992 q 585 969 561 992 q 608 911 608 946 q 585 853 608 876 q 524 831 561 831 z "},"ù":{"ha":801,"x_min":89,"x_max":713,"o":"m 400 -17 q 238 19 308 -17 q 128 119 167 54 q 89 267 89 183 l 89 701 l 217 701 l 217 278 q 267 147 217 197 q 400 97 318 97 q 534 147 483 97 q 585 278 585 196 l 585 701 l 713 701 l 713 267 q 674 119 713 183 q 564 19 635 54 q 400 -17 493 -17 m 358 789 l 194 994 l 354 994 l 451 789 l 358 789 z "},"ű":{"ha":801,"x_min":89,"x_max":713,"o":"m 400 -17 q 238 19 308 -17 q 128 119 167 54 q 89 267 89 183 l 89 701 l 217 701 l 217 278 q 267 147 217 197 q 400 97 318 97 q 534 147 483 97 q 585 278 585 196 l 585 701 l 713 701 l 713 267 q 674 119 713 183 q 564 19 635 54 q 400 -17 493 -17 m 332 994 l 453 994 l 344 789 l 235 789 l 332 994 m 531 994 l 656 994 l 542 789 l 433 789 l 531 994 z "},"ū":{"ha":801,"x_min":89,"x_max":713,"o":"m 400 -17 q 238 19 308 -17 q 128 119 167 54 q 89 267 89 183 l 89 701 l 217 701 l 217 278 q 267 147 217 197 q 400 97 318 97 q 534 147 483 97 q 585 278 585 196 l 585 701 l 713 701 l 713 267 q 674 119 713 183 q 564 19 635 54 q 400 -17 493 -17 m 214 932 l 588 932 l 588 836 l 214 836 l 214 932 z "},"ų":{"ha":801,"x_min":89,"x_max":713,"o":"m 713 701 l 713 267 q 642 77 713 153 q 454 -14 572 1 q 408 -103 408 -60 q 427 -152 408 -135 q 476 -169 446 -169 q 513 -165 503 -169 l 528 -256 q 461 -264 497 -264 q 346 -226 389 -264 q 303 -126 303 -187 q 350 -14 303 -65 q 160 76 231 1 q 89 267 89 151 l 89 701 l 217 701 l 217 278 q 267 147 217 197 q 400 97 318 97 q 534 147 483 97 q 585 278 585 196 l 585 701 l 713 701 z "},"ů":{"ha":801,"x_min":89,"x_max":713,"o":"m 400 -17 q 238 19 308 -17 q 128 119 167 54 q 89 267 89 183 l 89 701 l 217 701 l 217 278 q 267 147 217 197 q 400 97 318 97 q 534 147 483 97 q 585 278 585 196 l 585 701 l 713 701 l 713 267 q 674 119 713 183 q 564 19 635 54 q 400 -17 493 -17 m 401 765 q 291 806 335 765 q 247 908 247 847 q 291 1012 247 971 q 401 1053 335 1053 q 510 1012 467 1053 q 554 908 554 971 q 510 806 554 847 q 401 765 467 765 m 401 839 q 453 858 433 839 q 474 908 474 878 q 453 959 474 939 q 401 979 433 979 q 349 959 369 979 q 329 908 329 939 q 349 858 329 878 q 401 839 369 839 z "},"ũ":{"ha":801,"x_min":89,"x_max":713,"o":"m 400 -17 q 238 19 308 -17 q 128 119 167 54 q 89 267 89 183 l 89 701 l 217 701 l 217 278 q 267 147 217 197 q 400 97 318 97 q 534 147 483 97 q 585 278 585 196 l 585 701 l 713 701 l 713 267 q 674 119 713 183 q 564 19 635 54 q 400 -17 493 -17 m 417 947 q 463 919 447 928 q 500 911 479 911 q 543 929 526 911 q 563 981 560 947 l 656 965 q 608 856 649 896 q 500 815 567 815 q 394 850 449 815 q 369 867 385 856 q 340 883 353 878 q 311 889 326 889 q 267 870 285 889 q 247 818 250 851 l 156 833 q 203 942 163 901 q 308 983 244 983 q 417 947 365 983 z "},"v":{"ha":682,"x_min":17,"x_max":665,"o":"m 665 701 l 408 0 l 274 0 l 17 701 l 154 701 l 342 140 l 528 701 l 665 701 z "},"w":{"ha":1028,"x_min":17,"x_max":1011,"o":"m 17 701 l 147 701 l 297 167 l 458 600 l 568 600 l 732 167 l 882 701 l 1011 701 l 796 0 l 675 0 l 514 436 l 353 0 l 232 0 l 17 701 z "},"ẃ":{"ha":1028,"x_min":17,"x_max":1011,"o":"m 17 701 l 147 701 l 297 167 l 458 600 l 568 600 l 732 167 l 882 701 l 1011 701 l 796 0 l 675 0 l 514 436 l 353 0 l 232 0 l 17 701 m 558 994 l 718 994 l 556 789 l 461 789 l 558 994 z "},"ŵ":{"ha":1028,"x_min":17,"x_max":1011,"o":"m 17 701 l 147 701 l 297 167 l 458 600 l 568 600 l 732 167 l 882 701 l 1011 701 l 796 0 l 675 0 l 514 436 l 353 0 l 232 0 l 17 701 m 568 994 l 729 789 l 626 789 l 514 910 l 401 789 l 300 789 l 461 994 l 568 994 z "},"ẅ":{"ha":1028,"x_min":17,"x_max":1011,"o":"m 17 701 l 147 701 l 297 167 l 458 600 l 568 600 l 732 167 l 882 701 l 1011 701 l 796 0 l 675 0 l 514 436 l 353 0 l 232 0 l 17 701 m 390 831 q 331 853 354 831 q 307 911 307 876 q 331 969 307 946 q 390 992 354 992 q 451 969 428 992 q 475 911 475 946 q 451 853 475 876 q 390 831 428 831 m 638 831 q 579 853 603 831 q 556 911 556 876 q 579 969 556 946 q 638 992 603 992 q 699 969 675 992 q 722 911 722 946 q 699 853 722 876 q 638 831 675 831 z "},"ẁ":{"ha":1028,"x_min":17,"x_max":1011,"o":"m 17 701 l 147 701 l 297 167 l 458 600 l 568 600 l 732 167 l 882 701 l 1011 701 l 796 0 l 675 0 l 514 436 l 353 0 l 232 0 l 17 701 m 471 789 l 307 994 l 467 994 l 564 789 l 471 789 z "},"x":{"ha":669,"x_min":17,"x_max":653,"o":"m 507 0 l 336 263 l 161 0 l 17 0 l 265 358 l 32 701 l 175 701 l 333 460 l 492 701 l 635 701 l 404 367 l 653 0 l 507 0 z "},"y":{"ha":700,"x_min":17,"x_max":683,"o":"m 683 701 l 315 -247 l 192 -247 l 290 8 l 17 701 l 154 701 l 354 157 l 553 701 l 683 701 z "},"ý":{"ha":700,"x_min":17,"x_max":683,"o":"m 683 701 l 315 -247 l 192 -247 l 290 8 l 17 701 l 154 701 l 354 157 l 553 701 l 683 701 m 393 994 l 553 994 l 390 789 l 296 789 l 393 994 z "},"ŷ":{"ha":700,"x_min":17,"x_max":683,"o":"m 683 701 l 315 -247 l 192 -247 l 290 8 l 17 701 l 154 701 l 354 157 l 553 701 l 683 701 m 403 994 l 564 789 l 461 789 l 349 910 l 236 789 l 135 789 l 296 994 l 403 994 z "},"ÿ":{"ha":700,"x_min":17,"x_max":683,"o":"m 683 701 l 315 -247 l 192 -247 l 290 8 l 17 701 l 154 701 l 354 157 l 553 701 l 683 701 m 224 831 q 164 853 188 831 q 140 911 140 876 q 164 969 140 946 q 224 992 188 992 q 285 969 261 992 q 308 911 308 946 q 285 853 308 876 q 224 831 261 831 m 471 831 q 413 853 436 831 q 389 911 389 876 q 413 969 389 946 q 471 992 436 992 q 532 969 508 992 q 556 911 556 946 q 532 853 556 876 q 471 831 508 831 z "},"ỳ":{"ha":700,"x_min":17,"x_max":683,"o":"m 683 701 l 315 -247 l 192 -247 l 290 8 l 17 701 l 154 701 l 354 157 l 553 701 l 683 701 m 306 789 l 142 994 l 301 994 l 399 789 l 306 789 z "},"z":{"ha":681,"x_min":44,"x_max":632,"o":"m 44 97 l 467 590 l 68 590 l 68 701 l 628 701 l 628 604 l 210 111 l 632 111 l 632 0 l 44 0 l 44 97 z "},"ź":{"ha":681,"x_min":44,"x_max":632,"o":"m 44 97 l 467 590 l 68 590 l 68 701 l 628 701 l 628 604 l 210 111 l 632 111 l 632 0 l 44 0 l 44 97 m 394 994 l 554 994 l 392 789 l 297 789 l 394 994 z "},"ž":{"ha":681,"x_min":44,"x_max":632,"o":"m 44 97 l 467 590 l 68 590 l 68 701 l 628 701 l 628 604 l 210 111 l 632 111 l 632 0 l 44 0 l 44 97 m 135 994 l 236 994 l 349 874 l 461 994 l 564 994 l 403 789 l 296 789 l 135 994 z "},"ż":{"ha":681,"x_min":44,"x_max":632,"o":"m 44 97 l 467 590 l 68 590 l 68 701 l 628 701 l 628 604 l 210 111 l 632 111 l 632 0 l 44 0 l 44 97 m 349 825 q 287 851 313 825 q 261 913 261 876 q 287 976 261 950 q 349 1001 313 1001 q 413 976 388 1001 q 439 913 439 950 q 413 850 439 875 q 349 825 388 825 z "},"ª":{"ha":468,"x_min":33,"x_max":414,"o":"m 225 983 q 362 938 310 983 q 414 811 414 892 l 414 533 l 321 533 l 321 603 q 264 547 301 568 q 181 526 226 526 q 75 564 117 526 q 33 657 33 601 q 83 757 33 721 q 236 804 133 793 l 321 813 l 321 818 q 294 884 321 860 q 225 908 268 908 q 157 885 183 908 q 126 822 131 863 l 42 838 q 102 943 51 903 q 225 983 153 983 m 201 600 q 289 635 257 600 q 321 729 321 671 l 321 742 l 235 732 q 154 708 182 726 q 126 660 126 689 q 147 617 126 633 q 201 600 168 600 z "},"º":{"ha":524,"x_min":33,"x_max":490,"o":"m 263 526 q 144 556 197 526 q 63 638 92 585 q 33 756 33 690 q 63 873 33 821 q 144 954 92 925 q 263 983 197 983 q 380 954 328 983 q 461 873 432 925 q 490 756 490 821 q 461 638 490 690 q 380 556 432 585 q 263 526 328 526 m 263 610 q 357 650 321 610 q 393 756 393 690 q 357 860 393 819 q 263 900 321 900 q 167 860 203 900 q 131 756 131 819 q 167 650 131 690 q 263 610 203 610 z "},"π":{"ha":863,"x_min":33,"x_max":790,"o":"m 657 592 l 657 236 q 685 136 657 171 q 765 101 713 101 l 782 103 l 779 -11 l 750 -12 q 589 51 650 -12 q 528 218 528 114 l 528 592 l 299 592 l 299 0 l 172 0 l 172 592 l 33 592 l 33 701 l 790 701 l 790 592 l 657 592 z "},"¹":{"ha":306,"x_min":44,"x_max":253,"o":"z "},"²":{"ha":476,"x_min":50,"x_max":426,"o":"z "},"³":{"ha":496,"x_min":46,"x_max":449,"o":"z "},"⁄":{"ha":354,"x_min":-206,"x_max":560,"o":"m 444 972 l 560 972 l -90 0 l -206 0 l 444 972 z "},"½":{"ha":1154,"x_min":44,"x_max":1106,"o":"m 158 864 q 99 830 125 843 q 44 811 74 817 l 44 903 q 176 972 108 921 l 253 972 l 253 438 l 158 438 l 158 864 m 800 972 l 915 972 l 265 0 l 150 0 l 800 972 m 729 83 l 901 229 q 977 305 953 271 q 1001 372 1001 339 q 978 430 1001 408 q 918 451 956 451 q 851 425 875 451 q 828 353 828 399 l 829 335 l 732 342 l 731 363 q 784 490 731 439 q 918 540 838 540 q 1054 494 1003 540 q 1106 372 1106 447 q 1074 274 1106 322 q 972 171 1043 225 l 871 89 l 1106 89 l 1106 0 l 729 0 l 729 83 z "},"¼":{"ha":1119,"x_min":44,"x_max":1075,"o":"m 158 864 q 99 830 125 843 q 44 811 74 817 l 44 903 q 176 972 108 921 l 253 972 l 253 438 l 158 438 l 158 864 m 800 972 l 915 972 l 265 0 l 150 0 l 800 972 m 904 111 l 628 111 l 628 201 l 893 535 l 1004 535 l 1004 201 l 1075 201 l 1075 111 l 1004 111 l 1004 0 l 904 0 l 904 111 m 904 201 l 904 415 l 735 201 l 904 201 z "},"¾":{"ha":1258,"x_min":46,"x_max":1214,"o":"m 244 432 q 108 475 163 432 q 46 589 53 518 l 139 604 q 175 544 146 567 q 246 521 204 521 q 318 545 290 521 q 346 610 346 569 q 319 676 346 653 q 249 700 293 700 q 189 682 213 700 l 147 750 l 293 885 l 61 885 l 61 972 l 415 972 l 415 885 l 278 765 q 401 726 354 769 q 449 608 449 683 q 393 480 449 528 q 244 432 338 432 m 940 972 l 1056 972 l 406 0 l 290 0 l 940 972 m 1043 111 l 767 111 l 767 201 l 1032 535 l 1143 535 l 1143 201 l 1214 201 l 1214 111 l 1143 111 l 1143 0 l 1043 0 l 1043 111 m 1043 201 l 1043 415 l 874 201 l 1043 201 z "},"⅛":{"ha":1164,"x_min":44,"x_max":1115,"o":"m 158 864 q 99 830 125 843 q 44 811 74 817 l 44 903 q 176 972 108 921 l 253 972 l 253 438 l 158 438 l 158 864 m 800 972 l 915 972 l 265 0 l 150 0 l 800 972 m 919 -6 q 778 39 835 -6 q 722 157 722 83 q 749 238 722 201 q 818 288 775 274 q 765 333 785 303 q 744 399 744 364 q 794 499 744 458 q 919 540 843 540 q 1044 499 996 540 q 1092 399 1092 458 q 1072 332 1092 363 q 1017 288 1051 301 q 1088 238 1061 274 q 1115 157 1115 203 q 1060 39 1115 83 q 919 -6 1004 -6 m 919 326 q 976 344 954 326 q 997 393 997 363 q 976 442 997 424 q 919 461 954 461 q 862 443 883 461 q 840 393 840 425 q 862 344 840 363 q 919 326 883 326 m 918 79 q 988 101 963 79 q 1014 160 1014 122 q 988 217 1014 196 q 918 239 963 239 q 849 217 875 239 q 822 160 822 196 q 848 101 822 122 q 918 79 874 79 z "},"⅜":{"ha":1303,"x_min":46,"x_max":1254,"o":"m 244 432 q 108 475 163 432 q 46 589 53 518 l 139 604 q 175 544 146 567 q 246 521 204 521 q 318 545 290 521 q 346 610 346 569 q 319 676 346 653 q 249 700 293 700 q 189 682 213 700 l 147 750 l 293 885 l 61 885 l 61 972 l 415 972 l 415 885 l 278 765 q 401 726 354 769 q 449 608 449 683 q 393 480 449 528 q 244 432 338 432 m 940 972 l 1056 972 l 406 0 l 290 0 l 940 972 m 1058 -6 q 917 39 974 -6 q 861 157 861 83 q 888 238 861 201 q 957 288 914 274 q 903 333 924 303 q 883 399 883 364 q 933 499 883 458 q 1058 540 982 540 q 1183 499 1135 540 q 1231 399 1231 458 q 1210 332 1231 363 q 1156 288 1190 301 q 1227 238 1200 274 q 1254 157 1254 203 q 1199 39 1254 83 q 1058 -6 1143 -6 m 1058 326 q 1115 344 1093 326 q 1136 393 1136 363 q 1115 442 1136 424 q 1058 461 1093 461 q 1001 443 1022 461 q 979 393 979 425 q 1001 344 979 363 q 1058 326 1022 326 m 1057 79 q 1127 101 1101 79 q 1153 160 1153 122 q 1127 217 1153 196 q 1057 239 1101 239 q 988 217 1014 239 q 961 160 961 196 q 987 101 961 122 q 1057 79 1013 79 z "},"⅝":{"ha":1294,"x_min":49,"x_max":1247,"o":"m 247 432 q 114 472 167 432 q 49 581 61 511 l 140 597 q 178 541 151 561 q 242 521 204 521 q 310 547 285 521 q 336 615 336 574 q 310 686 336 660 q 238 713 283 713 q 136 658 172 713 l 61 674 l 106 972 l 400 972 l 400 883 l 179 883 l 158 754 q 263 793 196 793 q 391 744 342 793 q 440 615 440 696 q 388 482 440 532 q 247 432 335 432 m 932 972 l 1047 972 l 397 0 l 282 0 l 932 972 m 1051 -6 q 910 39 967 -6 q 854 157 854 83 q 881 238 854 201 q 950 288 907 274 q 897 333 917 303 q 876 399 876 364 q 926 499 876 458 q 1051 540 975 540 q 1176 499 1128 540 q 1224 399 1224 458 q 1203 332 1224 363 q 1149 288 1183 301 q 1220 238 1193 274 q 1247 157 1247 203 q 1192 39 1247 83 q 1051 -6 1136 -6 m 1051 326 q 1108 344 1086 326 q 1129 393 1129 363 q 1108 442 1129 424 q 1051 461 1086 461 q 994 443 1015 461 q 972 393 972 425 q 994 344 972 363 q 1051 326 1015 326 m 1050 79 q 1120 101 1094 79 q 1146 160 1146 122 q 1120 217 1146 196 q 1050 239 1094 239 q 981 217 1007 239 q 954 160 954 196 q 980 101 954 122 q 1050 79 1006 79 z "},"⅞":{"ha":1165,"x_min":43,"x_max":1118,"o":"m 99 438 q 324 883 174 690 l 43 883 l 43 972 l 424 972 l 424 883 q 283 655 340 771 q 199 438 226 539 l 99 438 m 803 972 l 918 972 l 268 0 l 153 0 l 803 972 m 922 -6 q 781 39 838 -6 q 725 157 725 83 q 751 238 725 201 q 821 288 778 274 q 767 333 788 303 q 747 399 747 364 q 797 499 747 458 q 922 540 846 540 q 1047 499 999 540 q 1094 399 1094 458 q 1074 332 1094 363 q 1019 288 1054 301 q 1091 238 1064 274 q 1118 157 1118 203 q 1063 39 1118 83 q 922 -6 1007 -6 m 922 326 q 978 344 957 326 q 1000 393 1000 363 q 978 442 1000 424 q 922 461 957 461 q 865 443 886 461 q 843 393 843 425 q 865 344 843 363 q 922 326 886 326 m 921 79 q 991 101 965 79 q 1017 160 1017 122 q 991 217 1017 196 q 921 239 965 239 q 851 217 878 239 q 825 160 825 196 q 851 101 825 122 q 921 79 876 79 z "},".":{"ha":385,"x_min":100,"x_max":285,"o":"m 193 -11 q 126 15 153 -11 q 100 79 100 40 q 126 144 100 118 q 193 169 153 169 q 258 144 232 169 q 285 79 285 118 q 259 15 285 40 q 193 -11 233 -11 z "},",":{"ha":351,"x_min":42,"x_max":301,"o":"m 129 161 l 301 161 l 138 -158 l 42 -158 l 129 161 z "},":":{"ha":385,"x_min":100,"x_max":285,"o":"m 193 504 q 126 530 153 504 q 100 594 100 556 q 126 659 100 633 q 193 685 153 685 q 258 659 232 685 q 285 594 285 633 q 259 530 285 556 q 193 504 233 504 m 193 -11 q 126 15 153 -11 q 100 79 100 40 q 126 144 100 118 q 193 169 153 169 q 258 144 232 169 q 285 79 285 118 q 259 15 285 40 q 193 -11 233 -11 z "},";":{"ha":389,"x_min":50,"x_max":313,"o":"m 138 161 l 310 161 l 146 -158 l 50 -158 l 138 161 m 221 504 q 154 530 181 504 q 128 594 128 556 q 154 659 128 633 q 221 685 181 685 q 286 659 260 685 q 313 594 313 633 q 287 530 313 556 q 221 504 261 504 z "},"…":{"ha":1154,"x_min":100,"x_max":1054,"o":"m 193 -11 q 126 15 153 -11 q 100 79 100 40 q 126 144 100 118 q 193 169 153 169 q 258 144 232 169 q 285 79 285 118 q 259 15 285 40 q 193 -11 233 -11 m 578 -11 q 511 15 538 -11 q 485 79 485 40 q 511 144 485 118 q 578 169 538 169 q 643 144 617 169 q 669 79 669 118 q 644 15 669 40 q 578 -11 618 -11 m 963 -11 q 896 15 922 -11 q 869 79 869 40 q 896 144 869 118 q 963 169 922 169 q 1028 144 1001 169 q 1054 79 1054 118 q 1028 15 1054 40 q 963 -11 1003 -11 z "},"!":{"ha":390,"x_min":106,"x_max":290,"o":"m 113 972 l 271 972 l 242 308 l 143 308 l 113 972 m 197 -11 q 131 15 157 -11 q 106 79 106 40 q 132 144 106 118 q 197 169 158 169 q 264 144 238 169 q 290 79 290 118 q 264 15 290 40 q 197 -11 238 -11 z "},"¡":{"ha":390,"x_min":106,"x_max":290,"o":"m 197 707 q 264 681 238 707 q 290 617 290 656 q 264 552 290 578 q 197 526 238 526 q 132 552 158 526 q 106 617 106 578 q 131 681 106 656 q 197 707 157 707 m 242 389 l 271 -276 l 113 -276 l 143 389 l 242 389 z "},"?":{"ha":761,"x_min":68,"x_max":676,"o":"m 276 300 q 295 408 275 364 q 345 481 315 453 q 424 546 375 510 q 488 599 465 578 q 527 649 511 619 q 543 719 543 679 q 495 831 543 789 q 374 872 447 872 q 242 826 290 872 q 193 699 194 779 l 68 707 q 106 853 68 790 q 214 951 144 917 q 374 986 283 986 q 531 953 463 986 q 638 861 600 921 q 676 722 676 801 q 656 617 676 661 q 604 544 635 572 q 525 481 574 515 q 431 398 463 436 q 400 300 400 360 l 276 300 m 353 -11 q 287 15 313 -11 q 261 79 261 40 q 288 144 261 118 q 353 169 314 169 q 418 144 392 169 q 444 79 444 118 q 419 15 444 40 q 353 -11 393 -11 z "},"¿":{"ha":778,"x_min":101,"x_max":710,"o":"m 425 700 q 491 674 465 700 q 517 610 517 649 q 490 545 517 571 q 425 519 464 519 q 360 545 386 519 q 333 610 333 571 q 359 674 333 649 q 425 700 385 700 m 501 389 q 483 281 503 325 q 432 207 463 236 q 353 143 401 178 q 288 90 311 111 q 249 40 265 69 q 233 -31 233 10 q 282 -141 233 -99 q 404 -183 331 -183 q 535 -137 488 -183 q 585 -10 583 -90 l 710 -18 q 672 -165 710 -101 q 564 -262 633 -228 q 404 -297 494 -297 q 247 -265 315 -297 q 140 -172 178 -232 q 101 -33 101 -112 q 122 72 101 28 q 174 145 143 117 q 253 208 204 174 q 347 291 315 253 q 378 389 378 329 l 501 389 z "},"·":{"ha":310,"x_min":69,"x_max":254,"o":"m 163 404 q 96 430 122 404 q 69 494 69 456 q 96 559 69 533 q 163 585 122 585 q 228 559 201 585 q 254 494 254 533 q 228 430 254 456 q 163 404 203 404 z "},"•":{"ha":669,"x_min":57,"x_max":613,"o":"m 338 100 q 196 138 260 100 q 94 238 132 175 q 57 378 57 301 q 94 517 57 453 q 197 618 132 581 q 338 656 261 656 q 476 618 413 656 q 576 517 539 581 q 613 378 613 453 q 576 238 613 301 q 476 138 539 175 q 338 100 413 100 z "},"*":{"ha":682,"x_min":50,"x_max":632,"o":"m 428 658 l 558 488 l 471 422 l 342 600 l 211 422 l 124 488 l 254 658 l 50 718 l 82 824 l 288 760 l 286 972 l 397 972 l 394 760 l 600 824 l 632 718 l 428 658 z "},"#":{"ha":947,"x_min":42,"x_max":906,"o":"m 714 586 l 669 386 l 846 386 l 846 285 l 647 285 l 585 0 l 478 0 l 540 285 l 321 285 l 258 0 l 153 0 l 215 285 l 42 285 l 42 386 l 238 386 l 281 586 l 101 586 l 101 688 l 303 688 l 365 972 l 472 972 l 410 688 l 631 688 l 693 972 l 799 972 l 736 688 l 906 688 l 906 586 l 714 586 m 607 586 l 388 586 l 343 386 l 564 386 l 607 586 z "},"/":{"ha":601,"x_min":14,"x_max":588,"o":"m 450 972 l 588 972 l 150 -1 l 14 -1 l 450 972 z "},"\\":{"ha":601,"x_min":14,"x_max":588,"o":"m 451 -1 l 14 972 l 151 972 l 588 -1 l 451 -1 z "},"(":{"ha":431,"x_min":67,"x_max":381,"o":"m 292 -242 q 125 66 183 -104 q 67 415 67 236 q 125 765 67 596 q 292 1069 183 935 l 381 1003 q 193 415 193 726 q 381 -172 193 106 l 292 -242 z "},")":{"ha":431,"x_min":50,"x_max":365,"o":"m 50 -172 q 238 415 238 101 q 50 1003 238 729 l 140 1069 q 307 765 249 935 q 365 415 365 594 q 307 66 365 236 q 140 -242 249 -104 l 50 -172 z "},"{":{"ha":453,"x_min":50,"x_max":403,"o":"m 329 -196 q 214 -149 258 -196 q 169 -28 169 -101 l 169 263 q 141 358 169 329 q 50 388 113 388 l 50 501 q 141 531 113 501 q 169 625 169 560 l 169 917 q 214 1037 169 990 q 329 1083 258 1083 l 403 1083 l 403 974 l 367 974 q 308 954 326 974 q 289 894 289 935 l 289 594 q 263 497 289 531 q 186 444 236 463 q 263 392 236 425 q 289 293 289 358 l 289 -8 q 367 -86 289 -86 l 403 -86 l 403 -196 l 329 -196 z "},"}":{"ha":453,"x_min":50,"x_max":403,"o":"m 50 -196 l 50 -86 l 88 -86 q 164 -8 164 -86 l 164 293 q 190 391 164 357 q 268 444 217 425 q 191 497 218 463 q 164 594 164 531 l 164 894 q 88 974 164 974 l 50 974 l 50 1083 l 125 1083 q 239 1037 194 1083 q 283 917 283 990 l 283 625 q 312 531 283 560 q 403 501 340 501 l 403 388 q 312 358 340 388 q 283 263 283 329 l 283 -28 q 239 -149 283 -101 q 125 -196 194 -196 l 50 -196 z "},"[":{"ha":438,"x_min":100,"x_max":386,"o":"m 100 1078 l 386 1078 l 386 972 l 218 972 l 218 -101 l 386 -101 l 386 -207 l 100 -207 l 100 1078 z "},"]":{"ha":438,"x_min":50,"x_max":336,"o":"m 50 -207 l 50 -101 l 219 -101 l 219 972 l 50 972 l 50 1078 l 336 1078 l 336 -207 l 50 -207 z "},"-":{"ha":504,"x_min":39,"x_max":465,"o":"m 39 458 l 465 458 l 465 344 l 39 344 l 39 458 z "},"­":{"ha":504,"x_min":39,"x_max":465,"o":"m 39 458 l 465 458 l 465 344 l 39 344 l 39 458 z "},"–":{"ha":694,"x_min":32,"x_max":663,"o":"m 32 458 l 663 458 l 663 344 l 32 344 l 32 458 z "},"—":{"ha":1389,"x_min":32,"x_max":1357,"o":"m 32 458 l 1357 458 l 1357 344 l 32 344 l 32 458 z "},"_":{"ha":694,"x_min":32,"x_max":663,"o":"m 32 -4 l 663 -4 l 663 -118 l 32 -118 l 32 -4 z "},"‚":{"ha":333,"x_min":42,"x_max":283,"o":"m 122 161 l 283 161 l 133 -142 l 42 -142 l 122 161 z "},"„":{"ha":561,"x_min":42,"x_max":513,"o":"m 351 161 l 513 161 l 363 -142 l 271 -142 l 351 161 m 122 161 l 283 161 l 133 -142 l 42 -142 l 122 161 z "},"“":{"ha":561,"x_min":50,"x_max":519,"o":"m 211 681 l 50 681 l 200 983 l 290 983 l 211 681 m 440 681 l 279 681 l 429 983 l 519 983 l 440 681 z "},"”":{"ha":557,"x_min":42,"x_max":511,"o":"m 122 983 l 283 983 l 133 681 l 42 681 l 122 983 m 350 983 l 511 983 l 361 681 l 271 681 l 350 983 z "},"‘":{"ha":333,"x_min":50,"x_max":290,"o":"m 211 681 l 50 681 l 200 983 l 290 983 l 211 681 z "},"’":{"ha":328,"x_min":42,"x_max":283,"o":"m 122 983 l 283 983 l 133 681 l 42 681 l 122 983 z "},"«":{"ha":779,"x_min":50,"x_max":696,"o":"m 354 626 l 150 421 l 354 214 l 285 146 l 50 382 l 50 458 l 279 693 l 354 626 m 696 626 l 492 421 l 696 214 l 626 146 l 392 382 l 392 458 l 621 693 l 696 626 z "},"»":{"ha":779,"x_min":83,"x_max":729,"o":"m 388 458 l 388 382 l 153 146 l 83 214 l 288 421 l 83 626 l 158 693 l 388 458 m 729 458 l 729 382 l 494 146 l 425 214 l 629 421 l 425 626 l 500 693 l 729 458 z "},"‹":{"ha":438,"x_min":50,"x_max":354,"o":"m 354 626 l 150 421 l 354 214 l 285 146 l 50 382 l 50 458 l 279 693 l 354 626 z "},"›":{"ha":438,"x_min":83,"x_max":388,"o":"m 388 458 l 388 382 l 153 146 l 83 214 l 288 421 l 83 626 l 158 693 l 388 458 z "},"\"":{"ha":496,"x_min":50,"x_max":433,"o":"m 50 983 l 199 983 l 165 681 l 82 681 l 50 983 m 285 983 l 433 983 l 400 681 l 317 681 l 285 983 z "},"'":{"ha":249,"x_min":50,"x_max":199,"o":"m 50 983 l 199 983 l 165 681 l 82 681 l 50 983 z "}," ":{"ha":333,"x_min":0,"x_max":0,"o":""},"¢":{"ha":750,"x_min":57,"x_max":683,"o":"m 683 218 q 601 61 665 121 q 440 -12 538 1 l 440 -157 l 326 -156 l 326 -12 q 131 106 204 8 q 57 350 57 203 q 131 594 57 496 q 326 713 204 693 l 326 857 l 440 857 l 440 714 q 602 638 538 700 q 682 482 667 576 l 558 457 q 501 562 547 521 q 389 603 454 603 q 243 533 299 603 q 188 350 188 464 q 242 165 188 235 q 389 96 297 96 q 501 135 456 96 q 560 242 547 174 l 683 218 z "},"¤":{"ha":867,"x_min":35,"x_max":832,"o":"m 756 503 q 701 314 756 396 l 824 192 l 743 113 l 622 235 q 433 179 543 179 q 244 235 324 179 l 124 113 l 43 192 l 165 314 q 111 503 111 396 q 158 681 111 603 l 35 806 l 114 885 l 235 764 q 433 826 319 826 q 632 764 547 826 l 753 885 l 832 806 l 708 681 q 756 503 756 603 m 433 278 q 589 340 529 278 q 649 503 649 403 q 589 666 649 603 q 433 729 529 729 q 277 667 336 729 q 218 503 218 604 q 277 340 218 403 q 433 278 336 278 z "},"$":{"ha":782,"x_min":25,"x_max":735,"o":"m 735 264 q 660 80 735 154 q 461 -12 586 6 l 461 -147 l 346 -146 l 346 -14 q 136 81 222 -1 q 25 288 50 163 l 151 328 q 236 165 171 226 q 392 104 301 104 q 538 147 483 104 q 593 261 593 190 q 562 350 593 315 q 485 405 531 385 q 360 450 439 425 q 205 508 264 479 q 104 590 146 536 q 63 731 63 643 q 141 908 63 838 q 346 988 219 978 l 346 1106 l 461 1106 l 461 982 q 617 906 553 964 q 710 760 681 847 l 590 700 q 381 868 538 868 q 248 832 294 868 q 201 732 201 796 q 228 661 201 689 q 297 617 256 633 q 410 581 338 601 q 576 523 511 553 q 688 431 642 493 q 735 264 735 368 z "},"€":{"ha":1097,"x_min":56,"x_max":1054,"o":"m 643 104 q 819 161 749 104 q 915 319 890 218 l 1053 290 q 907 67 1015 150 q 643 -17 799 -17 q 451 22 542 -17 q 292 138 360 61 q 196 324 225 214 l 56 324 l 56 419 l 179 419 q 176 486 176 461 q 181 557 176 524 l 56 557 l 56 653 l 197 653 q 295 837 228 761 q 453 951 363 913 q 643 989 543 989 q 913 903 801 989 q 1054 674 1024 817 l 917 644 q 822 808 894 747 q 643 868 750 868 q 458 813 536 868 q 343 653 379 757 l 768 653 l 736 557 l 322 557 q 318 486 318 524 q 322 419 318 451 l 689 419 l 658 324 l 342 324 q 456 161 376 218 q 643 104 535 104 z "},"ƒ":{"ha":660,"x_min":39,"x_max":618,"o":"m 425 701 l 614 701 l 614 593 l 408 593 l 353 228 q 136 -14 315 -14 q 39 0 90 -14 l 46 113 q 118 100 78 100 q 188 130 163 100 q 224 221 214 160 l 281 593 l 138 593 l 138 701 l 297 701 l 306 758 q 522 999 343 999 q 618 983 572 999 l 613 872 q 539 886 576 886 q 435 764 453 886 l 425 701 z "},"£":{"ha":792,"x_min":42,"x_max":764,"o":"m 764 157 q 669 40 721 79 q 546 0 618 0 l 88 0 l 88 118 q 180 247 153 189 q 207 374 207 304 q 197 436 207 400 l 42 436 l 42 547 l 156 547 q 127 628 138 590 q 117 706 117 665 q 198 911 117 833 q 414 989 279 989 q 603 933 525 989 q 704 781 682 876 l 581 742 q 519 838 561 807 q 413 869 478 869 q 294 824 338 869 q 250 701 250 779 q 260 630 250 664 q 292 547 271 596 l 589 547 l 589 436 l 333 436 q 342 372 342 406 q 310 235 342 303 q 233 121 278 167 l 518 121 q 590 147 563 121 q 646 221 618 172 l 764 157 z "},"¥":{"ha":843,"x_min":11,"x_max":831,"o":"m 543 511 l 753 511 l 753 414 l 489 414 l 489 281 l 753 281 l 753 183 l 489 183 l 489 0 l 353 0 l 353 183 l 88 183 l 88 281 l 353 281 l 353 414 l 88 414 l 88 511 l 299 511 l 11 972 l 163 972 l 421 553 l 681 972 l 831 972 l 543 511 z "},"+":{"ha":776,"x_min":50,"x_max":726,"o":"m 726 404 l 444 404 l 444 124 l 329 124 l 329 404 l 50 404 l 50 518 l 329 518 l 329 797 l 444 797 l 444 518 l 726 518 l 726 404 z "},"−":{"ha":757,"x_min":50,"x_max":706,"o":"m 50 518 l 706 518 l 706 403 l 50 403 l 50 518 z "},"×":{"ha":749,"x_min":56,"x_max":693,"o":"m 604 144 l 375 372 l 146 143 l 56 233 l 285 461 l 57 689 l 147 779 l 375 551 l 603 778 l 692 689 l 465 463 l 693 233 l 604 144 z "},"÷":{"ha":757,"x_min":50,"x_max":706,"o":"m 50 518 l 706 518 l 706 403 l 50 403 l 50 518 m 379 643 q 313 669 339 643 q 286 733 286 694 q 313 798 286 772 q 379 824 339 824 q 444 798 418 824 q 471 733 471 772 q 445 669 471 694 q 379 643 419 643 m 379 86 q 313 112 339 86 q 286 176 286 138 q 313 241 286 215 q 379 267 339 267 q 444 241 418 267 q 471 176 471 215 q 445 112 471 138 q 379 86 419 86 z "},"=":{"ha":757,"x_min":50,"x_max":706,"o":"m 50 376 l 706 376 l 706 261 l 50 261 l 50 376 m 50 660 l 706 660 l 706 544 l 50 544 l 50 660 z "},"≠":{"ha":757,"x_min":50,"x_max":706,"o":"m 496 544 l 399 376 l 706 376 l 706 263 l 332 263 l 208 50 l 118 99 l 214 263 l 50 263 l 50 376 l 279 376 l 378 544 l 50 544 l 50 660 l 444 660 l 549 839 l 640 792 l 564 660 l 706 660 l 706 544 l 496 544 z "},">":{"ha":761,"x_min":50,"x_max":711,"o":"m 50 208 l 542 404 l 50 600 l 50 733 l 711 458 l 711 349 l 50 74 l 50 208 z "},"<":{"ha":761,"x_min":50,"x_max":711,"o":"m 50 349 l 50 458 l 711 733 l 711 600 l 219 404 l 711 208 l 711 74 l 50 349 z "},"≥":{"ha":771,"x_min":61,"x_max":721,"o":"m 61 290 l 551 482 l 61 674 l 61 804 l 721 536 l 721 428 l 61 160 l 61 290 m 64 115 l 721 115 l 721 0 l 64 0 l 64 115 z "},"≤":{"ha":771,"x_min":50,"x_max":711,"o":"m 50 426 l 50 533 l 711 800 l 711 669 l 219 479 l 711 290 l 711 160 l 50 426 m 54 0 l 54 115 l 711 115 l 711 0 l 54 0 z "},"±":{"ha":776,"x_min":50,"x_max":726,"o":"m 726 481 l 444 481 l 444 200 l 329 200 l 329 481 l 50 481 l 50 594 l 329 594 l 329 874 l 444 874 l 444 594 l 726 594 l 726 481 m 50 0 l 50 115 l 706 115 l 706 0 l 50 0 z "},"≈":{"ha":767,"x_min":50,"x_max":717,"o":"m 50 529 q 111 672 56 618 q 251 725 167 725 q 324 713 290 725 q 396 675 358 700 q 426 653 403 669 q 472 628 450 636 q 515 621 493 621 q 576 646 551 621 q 607 717 601 671 l 717 700 q 655 558 710 611 q 515 504 600 504 q 443 517 476 504 q 372 554 410 529 q 340 576 364 560 q 295 601 317 593 q 251 608 274 608 q 191 583 215 608 q 160 513 167 558 l 50 529 m 50 232 q 111 374 56 321 q 251 428 167 428 q 324 415 290 428 q 396 378 358 403 q 426 356 403 372 q 472 331 450 339 q 515 324 493 324 q 576 349 551 324 q 607 419 601 374 l 717 403 q 655 260 710 314 q 515 207 600 207 q 443 219 476 207 q 372 257 410 232 q 340 279 364 263 q 295 303 317 296 q 251 311 274 311 q 191 286 215 311 q 160 215 167 261 l 50 232 z "},"~":{"ha":767,"x_min":50,"x_max":717,"o":"m 50 374 q 111 516 56 463 q 251 569 167 569 q 324 557 290 569 q 396 519 358 544 q 426 497 403 514 q 472 473 450 481 q 515 465 493 465 q 576 490 551 465 q 607 561 601 515 l 717 544 q 655 402 710 456 q 515 349 600 349 q 443 361 476 349 q 372 399 410 374 q 340 421 364 404 q 295 445 317 438 q 251 453 274 453 q 191 428 215 453 q 160 357 167 403 l 50 374 z "},"¬":{"ha":778,"x_min":56,"x_max":718,"o":"m 590 439 l 56 439 l 56 556 l 718 556 l 718 197 l 590 197 l 590 439 z "},"^":{"ha":781,"x_min":53,"x_max":728,"o":"m 333 972 l 447 972 l 728 582 l 593 582 l 390 860 l 189 582 l 53 582 l 333 972 z "},"∞":{"ha":1372,"x_min":100,"x_max":1272,"o":"m 972 785 q 1128 749 1060 785 q 1234 647 1196 713 q 1272 499 1272 582 q 1234 350 1272 415 q 1128 249 1196 285 q 972 213 1060 213 q 818 256 892 213 q 686 382 744 300 q 553 256 626 300 q 399 213 479 213 q 243 249 311 213 q 138 350 175 285 q 100 499 100 415 q 138 647 100 582 q 243 749 175 713 q 399 785 311 785 q 553 741 479 785 q 686 615 626 697 q 818 741 744 697 q 972 785 892 785 m 399 338 q 517 379 460 338 q 617 499 574 421 q 517 618 574 576 q 399 660 460 660 q 274 617 318 660 q 229 499 229 574 q 274 381 229 424 q 399 338 318 338 m 972 338 q 1099 381 1054 338 q 1143 499 1143 424 q 1099 617 1143 574 q 972 660 1054 660 q 856 618 913 660 q 756 499 800 576 q 856 379 800 421 q 972 338 913 338 z "},"∫":{"ha":578,"x_min":100,"x_max":478,"o":"m 104 -262 l 100 -149 l 121 -149 q 199 -114 172 -149 q 225 -18 225 -79 l 225 754 q 284 919 225 856 q 442 983 343 983 l 475 982 l 478 868 l 457 868 q 380 834 406 868 q 354 738 354 800 l 354 -35 q 294 -200 354 -136 q 135 -264 233 -264 l 104 -262 z "},"Ω":{"ha":1111,"x_min":100,"x_max":1011,"o":"m 1011 525 q 950 294 1011 401 q 786 121 889 186 l 996 121 l 996 0 l 657 0 l 657 161 q 813 315 756 218 q 871 522 871 413 q 831 699 871 621 q 718 822 790 778 q 556 867 646 867 q 394 822 465 867 q 282 699 322 778 q 242 522 242 621 q 299 315 242 413 q 454 161 356 218 l 454 0 l 115 0 l 115 121 l 326 121 q 161 293 222 186 q 100 525 100 400 q 159 763 100 657 q 322 928 218 868 q 556 988 426 988 q 789 928 685 988 q 952 763 893 868 q 1011 525 1011 657 z "},"∆":{"ha":1096,"x_min":100,"x_max":994,"o":"m 994 0 l 100 0 l 482 972 l 613 972 l 994 0 m 807 119 l 547 792 l 288 119 l 807 119 z "},"∏":{"ha":911,"x_min":100,"x_max":811,"o":"m 100 972 l 811 972 l 811 0 l 674 0 l 674 851 l 239 851 l 239 0 l 100 0 l 100 972 z "},"∑":{"ha":840,"x_min":100,"x_max":740,"o":"m 100 118 l 426 486 l 100 854 l 100 972 l 740 972 l 740 851 l 269 851 l 550 542 l 550 431 l 268 121 l 740 121 l 740 0 l 100 0 l 100 118 z "},"√":{"ha":932,"x_min":100,"x_max":832,"o":"m 247 422 l 100 422 l 100 544 l 335 544 l 454 163 l 703 972 l 832 972 l 518 0 l 386 0 l 247 422 z "},"µ":{"ha":826,"x_min":100,"x_max":725,"o":"m 725 701 l 725 0 l 599 0 l 599 83 q 504 10 561 36 q 379 -17 447 -17 q 228 26 292 -17 l 228 -264 l 100 -264 l 100 701 l 228 701 l 228 261 q 272 142 228 186 q 392 97 315 97 q 508 128 456 97 q 599 218 561 158 l 599 701 l 725 701 z "},"∂":{"ha":922,"x_min":100,"x_max":821,"o":"m 331 982 q 369 983 344 983 q 602 920 500 983 q 763 733 704 857 q 821 435 821 610 q 776 201 821 301 q 648 44 731 100 q 456 -11 565 -11 q 272 32 353 -11 q 145 150 190 75 q 100 319 100 225 q 144 492 100 417 q 264 610 188 568 q 436 653 340 653 q 591 612 521 653 q 690 506 661 571 q 646 690 688 608 q 533 816 604 771 q 369 861 461 861 q 324 860 339 861 l 331 982 m 456 110 q 567 138 518 110 q 645 217 617 167 q 674 326 674 267 q 613 481 674 421 q 456 542 551 542 q 297 481 358 542 q 236 326 235 421 q 297 170 236 231 q 456 110 358 110 z "},"%":{"ha":1135,"x_min":50,"x_max":1083,"o":"m 824 972 l 939 972 l 289 0 l 174 0 l 824 972 m 857 478 q 975 446 924 478 q 1055 358 1026 414 q 1083 233 1083 303 q 1055 108 1083 164 q 975 21 1026 53 q 857 -11 924 -11 q 739 21 790 -11 q 658 108 688 53 q 629 233 629 164 q 658 358 629 303 q 739 446 688 414 q 857 478 790 478 m 857 382 q 771 342 803 382 q 739 233 739 301 q 771 125 739 165 q 857 85 803 85 q 943 125 911 85 q 975 233 975 165 q 943 342 975 301 q 857 382 911 382 m 278 983 q 396 951 344 983 q 476 864 447 919 q 504 739 504 808 q 476 614 504 669 q 396 526 447 558 q 278 494 344 494 q 160 526 211 494 q 79 614 108 558 q 50 739 50 669 q 79 864 50 808 q 160 951 108 919 q 278 983 211 983 m 278 888 q 192 847 224 888 q 160 739 160 807 q 192 631 160 671 q 278 590 224 590 q 364 631 332 590 q 396 739 396 671 q 364 847 396 807 q 278 888 332 888 z "},"‰":{"ha":1489,"x_min":50,"x_max":1439,"o":"m 504 739 q 476 614 504 669 q 396 526 447 558 q 278 494 344 494 q 160 526 211 494 q 79 614 108 558 q 50 739 50 669 q 79 864 50 808 q 160 951 108 919 q 278 983 211 983 q 396 951 344 983 q 476 864 447 919 q 504 739 504 808 m 939 972 l 289 0 l 174 0 l 824 972 l 939 972 m 160 739 q 192 631 160 671 q 278 590 224 590 q 364 631 332 590 q 396 739 396 671 q 364 847 396 807 q 278 888 332 888 q 192 847 224 888 q 160 739 160 807 m 1213 478 q 1331 446 1279 478 q 1410 358 1382 414 q 1439 233 1439 303 q 1410 108 1439 164 q 1331 21 1382 53 q 1213 -11 1279 -11 q 1111 12 1157 -11 q 1035 75 1065 35 q 958 12 1004 35 q 857 -11 913 -11 q 740 21 792 -11 q 658 108 688 53 q 629 233 629 164 q 658 358 629 303 q 740 446 688 414 q 857 478 792 478 q 958 455 913 478 q 1035 392 1004 432 q 1111 455 1065 432 q 1213 478 1157 478 m 857 85 q 944 125 911 85 q 976 233 976 165 q 944 342 976 301 q 857 382 911 382 q 771 342 803 382 q 739 233 739 301 q 771 125 739 165 q 857 85 803 85 m 1213 85 q 1299 125 1267 85 q 1331 233 1331 165 q 1299 342 1331 301 q 1213 382 1267 382 q 1126 342 1158 382 q 1094 233 1094 301 q 1126 125 1094 165 q 1213 85 1158 85 z "},"↑":{"ha":860,"x_min":42,"x_max":818,"o":"m 744 425 l 486 683 l 486 -4 l 374 -4 l 374 682 l 115 424 l 42 496 l 431 885 l 818 497 l 744 425 z "},"↗":{"ha":753,"x_min":42,"x_max":710,"o":"m 710 671 l 710 124 l 607 124 l 607 489 l 121 3 l 42 83 l 525 568 l 161 568 l 160 671 l 710 671 z "},"→":{"ha":972,"x_min":42,"x_max":931,"o":"m 931 363 l 543 -25 l 469 47 l 726 306 l 42 306 l 42 419 l 726 419 l 468 678 l 542 751 l 931 363 z "},"↘":{"ha":751,"x_min":42,"x_max":710,"o":"m 710 560 l 710 10 l 161 10 l 161 113 l 528 113 l 42 599 l 121 678 l 606 193 l 606 558 l 710 560 z "},"↓":{"ha":860,"x_min":42,"x_max":818,"o":"m 818 399 l 429 10 l 42 397 l 114 469 l 372 213 l 372 899 l 486 899 l 486 213 l 744 471 l 818 399 z "},"↙":{"ha":751,"x_min":42,"x_max":710,"o":"m 225 113 l 590 113 l 590 10 l 42 10 l 42 560 l 146 558 l 146 193 l 631 678 l 710 599 l 225 113 z "},"←":{"ha":972,"x_min":42,"x_max":931,"o":"m 931 306 l 244 306 l 501 47 l 429 -25 l 42 363 l 431 751 l 503 678 l 244 419 l 931 419 l 931 306 z "},"↖":{"ha":753,"x_min":42,"x_max":711,"o":"m 631 3 l 146 488 l 146 124 l 43 124 l 42 671 l 592 671 l 592 568 l 226 568 l 711 83 l 631 3 z "},"↔":{"ha":1425,"x_min":42,"x_max":1383,"o":"m 1383 363 l 996 -25 l 924 47 l 1181 306 l 244 306 l 501 47 l 429 -25 l 42 363 l 431 751 l 503 678 l 244 419 l 1181 419 l 922 678 l 994 751 l 1383 363 z "},"↕":{"ha":860,"x_min":42,"x_max":818,"o":"m 744 233 l 818 160 l 429 -229 l 42 158 l 114 232 l 372 -25 l 372 910 l 114 653 l 42 725 l 429 1113 l 818 724 l 744 651 l 486 910 l 486 -25 l 744 233 z "},"●":{"ha":1114,"x_min":57,"x_max":1057,"o":"m 560 -14 q 302 51 417 -14 q 122 231 188 117 q 57 486 57 344 q 122 742 57 628 q 302 921 188 856 q 560 986 417 986 q 814 921 700 986 q 992 742 928 856 q 1057 486 1057 628 q 992 231 1057 344 q 814 51 928 117 q 560 -14 700 -14 z "},"○":{"ha":1114,"x_min":57,"x_max":1057,"o":"m 557 -14 q 301 51 415 -14 q 122 230 186 115 q 57 486 57 344 q 122 742 57 628 q 301 922 186 857 q 557 986 415 986 q 813 921 699 986 q 992 742 926 856 q 1057 486 1057 628 q 992 231 1057 344 q 813 51 926 117 q 557 -14 699 -14 m 557 67 q 769 122 674 67 q 918 272 864 176 q 972 486 972 368 q 918 700 972 604 q 769 851 864 796 q 557 906 674 906 q 344 851 439 906 q 196 700 250 796 q 142 486 142 604 q 196 272 142 368 q 344 122 250 176 q 557 67 439 67 z "},"◊":{"ha":865,"x_min":100,"x_max":765,"o":"m 100 486 l 371 972 l 494 972 l 765 486 l 494 0 l 371 0 l 100 486 m 640 486 l 432 860 l 225 486 l 432 113 l 640 486 z "},"":{"ha":1203,"x_min":100,"x_max":1101,"o":"m 915 360 q 1007 334 964 360 q 1076 265 1050 308 q 1101 171 1101 221 q 1076 78 1101 121 q 1008 11 1051 36 q 915 -14 965 -14 q 822 11 865 -14 q 752 78 778 36 q 726 171 726 121 l 726 293 l 474 293 l 474 171 q 448 78 474 121 q 379 11 422 36 q 286 -14 336 -14 q 193 11 236 -14 q 125 78 150 36 q 100 171 100 121 q 125 265 100 221 q 193 334 150 308 q 286 360 236 360 l 407 360 l 407 611 l 286 611 q 193 637 236 611 q 125 706 150 663 q 100 800 100 750 q 125 893 100 850 q 193 961 150 936 q 286 986 236 986 q 379 961 336 986 q 448 893 422 936 q 474 800 474 850 l 474 678 l 726 678 l 726 800 q 752 892 726 850 q 822 960 778 935 q 915 986 865 986 q 1008 961 965 986 q 1076 893 1051 936 q 1101 800 1101 850 q 1076 706 1101 750 q 1007 637 1050 663 q 915 611 964 611 l 793 611 l 793 360 l 915 360 m 407 678 l 407 800 q 372 885 407 850 q 286 919 336 919 q 202 885 238 919 q 167 800 167 850 q 202 714 167 750 q 286 678 238 678 l 407 678 m 793 678 l 915 678 q 1000 714 965 678 q 1035 800 1035 750 q 999 884 1035 849 q 915 919 964 919 q 828 885 864 919 q 793 800 793 850 l 793 678 m 726 360 l 726 611 l 474 611 l 474 360 l 726 360 m 407 293 l 286 293 q 202 257 238 293 q 167 171 167 221 q 202 88 167 122 q 286 53 238 53 q 372 88 336 53 q 407 171 407 122 l 407 293 m 915 53 q 1000 88 965 53 q 1035 171 1035 122 q 1000 257 1035 221 q 915 293 965 293 l 793 293 l 793 171 q 828 88 793 122 q 915 53 864 53 z "},"@":{"ha":1265,"x_min":57,"x_max":1208,"o":"m 897 674 l 897 303 q 920 240 897 265 q 974 214 943 214 q 1063 277 1031 214 q 1096 449 1096 340 q 1038 657 1096 565 q 876 801 979 749 q 646 853 774 853 q 401 793 510 853 q 232 628 293 733 q 171 390 171 522 q 231 144 171 251 q 399 -22 290 38 q 649 -81 507 -81 q 841 -54 750 -81 q 1031 28 932 -28 l 1057 -83 q 860 -161 960 -136 q 650 -186 760 -186 q 342 -113 476 -186 q 132 91 207 -40 q 57 390 57 222 q 133 681 57 551 q 344 885 210 811 q 646 958 479 958 q 933 892 804 958 q 1135 710 1061 826 q 1208 449 1208 593 q 1144 199 1208 292 q 969 106 1079 106 q 875 129 915 106 q 815 197 835 153 q 735 128 789 154 q 615 101 682 101 q 417 181 492 101 q 343 392 343 260 q 378 542 343 476 q 475 645 413 608 q 617 682 538 682 q 714 663 668 682 q 789 613 760 643 l 789 674 l 897 674 m 625 586 q 500 533 547 586 q 453 392 453 481 q 499 251 453 304 q 622 197 546 197 q 789 303 742 197 l 789 479 q 726 558 769 529 q 625 586 683 586 z "},"&":{"ha":911,"x_min":50,"x_max":886,"o":"m 729 0 l 635 107 q 363 -14 507 -14 q 135 63 221 -14 q 50 272 50 139 q 103 431 50 369 q 249 542 156 493 q 172 652 193 607 q 151 749 151 697 q 183 871 151 817 q 273 956 215 925 q 403 986 331 986 q 574 929 504 986 q 660 786 643 872 l 540 751 q 493 836 531 800 q 400 872 456 872 q 309 838 346 872 q 272 751 272 804 q 297 675 272 713 q 388 564 322 638 l 632 288 l 763 436 l 858 356 l 715 193 l 886 0 l 729 0 m 368 106 q 551 199 456 106 l 326 453 q 222 375 258 415 q 185 276 185 335 q 235 153 185 200 q 368 106 286 106 z "},"¶":{"ha":886,"x_min":33,"x_max":836,"o":"m 325 417 q 178 454 244 417 q 72 555 111 492 q 33 694 33 618 q 72 834 33 771 q 178 935 111 897 q 325 972 244 972 l 836 972 l 836 857 l 744 857 l 744 -253 l 628 -253 l 628 857 l 442 857 l 442 -253 l 325 -253 l 325 417 z "},"§":{"ha":792,"x_min":54,"x_max":732,"o":"m 646 171 q 732 -10 732 106 q 691 -142 732 -85 q 576 -232 650 -200 q 404 -264 501 -264 q 174 -186 271 -264 q 54 21 78 -108 l 178 40 q 255 -97 193 -44 q 404 -149 317 -149 q 549 -111 494 -149 q 604 -10 604 -74 q 576 64 604 35 q 504 110 547 93 q 386 150 461 128 q 237 201 294 176 q 139 275 179 226 q 99 401 99 324 q 194 561 99 499 q 99 744 99 626 q 138 869 99 814 q 245 955 176 924 q 400 986 314 986 q 613 922 524 986 q 717 750 701 858 l 600 732 q 535 834 589 796 q 400 872 481 872 q 271 838 319 872 q 222 746 222 803 q 251 671 222 700 q 323 625 279 642 q 440 589 367 608 q 592 538 535 563 q 691 465 650 514 q 732 335 732 415 q 646 171 732 235 m 222 410 q 250 335 222 364 q 319 292 278 307 q 436 256 361 276 q 546 222 497 239 q 604 328 604 261 q 576 401 604 372 q 506 446 549 429 q 390 483 464 463 q 292 514 304 510 q 222 410 222 476 z "},"©":{"ha":1114,"x_min":57,"x_max":1057,"o":"m 557 -14 q 301 51 415 -14 q 122 230 186 115 q 57 486 57 344 q 122 742 57 628 q 301 922 186 857 q 557 986 415 986 q 813 921 699 986 q 992 742 926 856 q 1057 486 1057 628 q 992 231 1057 344 q 813 51 926 117 q 557 -14 699 -14 m 557 67 q 769 122 674 67 q 918 272 864 176 q 972 486 972 368 q 918 700 972 604 q 769 851 864 796 q 557 906 674 906 q 344 851 439 906 q 196 700 250 796 q 142 486 142 604 q 196 272 142 368 q 344 122 250 176 q 557 67 439 67 m 560 767 q 717 717 653 767 q 796 583 782 668 l 704 564 q 656 652 694 621 q 560 683 618 683 q 433 632 479 683 q 388 490 388 581 q 433 348 388 400 q 560 296 479 296 q 656 326 618 296 q 703 410 693 356 l 794 390 q 713 261 775 308 q 560 214 650 214 q 420 248 481 214 q 326 345 360 282 q 293 490 293 408 q 327 635 293 572 q 422 732 361 697 q 560 767 482 767 z "},"®":{"ha":1114,"x_min":57,"x_max":1057,"o":"m 557 -14 q 301 51 415 -14 q 122 230 186 115 q 57 486 57 344 q 122 742 57 628 q 301 922 186 857 q 557 986 415 986 q 813 921 699 986 q 992 742 926 856 q 1057 486 1057 628 q 992 231 1057 344 q 813 51 926 117 q 557 -14 699 -14 m 557 67 q 769 122 674 67 q 918 272 864 176 q 972 486 972 368 q 918 700 972 604 q 769 851 864 796 q 557 906 674 906 q 344 851 439 906 q 196 700 250 796 q 142 486 142 604 q 196 272 142 368 q 344 122 250 176 q 557 67 439 67 m 696 232 l 554 463 l 451 463 l 451 232 l 367 232 l 365 768 l 564 768 q 689 726 642 768 q 736 615 736 683 q 711 531 736 567 q 643 478 686 494 l 796 232 l 696 232 m 451 540 l 556 540 q 624 560 600 540 q 649 615 649 579 q 624 670 649 651 q 556 689 600 689 l 451 689 l 451 540 z "},"℗":{"ha":1114,"x_min":57,"x_max":1057,"o":"m 557 -14 q 301 51 415 -14 q 122 230 186 115 q 57 486 57 344 q 122 742 57 628 q 301 922 186 857 q 557 986 415 986 q 813 921 699 986 q 992 742 926 856 q 1057 486 1057 628 q 992 231 1057 344 q 813 51 926 117 q 557 -14 699 -14 m 557 67 q 769 122 674 67 q 918 272 864 176 q 972 486 972 368 q 918 700 972 604 q 769 851 864 796 q 557 906 674 906 q 344 851 439 906 q 196 700 250 796 q 142 486 142 604 q 196 272 142 368 q 344 122 250 176 q 557 67 439 67 m 479 447 l 479 232 l 394 232 l 393 768 l 588 768 q 715 724 665 768 q 764 607 764 679 q 715 491 764 535 q 588 447 665 447 l 479 447 m 479 525 l 583 525 q 652 547 628 525 q 676 607 676 568 q 652 667 676 646 q 583 689 628 689 l 479 689 l 479 525 z "},"™":{"ha":1076,"x_min":50,"x_max":1026,"o":"m 197 893 l 50 893 l 50 972 l 438 972 l 438 893 l 289 893 l 289 486 l 197 486 l 197 893 m 507 972 l 607 972 l 729 679 l 854 972 l 953 972 l 1026 486 l 938 486 l 883 839 l 767 561 l 693 561 l 576 839 l 524 486 l 435 486 l 507 972 z "},"°":{"ha":476,"x_min":56,"x_max":422,"o":"m 238 626 q 108 680 160 628 q 56 808 56 732 q 108 936 56 883 q 235 989 160 989 q 368 937 314 989 q 422 808 422 885 q 369 680 422 732 q 238 626 315 628 m 238 718 q 301 744 276 718 q 326 808 326 769 q 301 872 326 846 q 238 897 276 897 q 175 872 200 897 q 150 808 150 846 q 175 744 150 769 q 238 718 200 718 z "},"|":{"ha":338,"x_min":100,"x_max":238,"o":"m 100 1042 l 238 1042 l 238 -69 l 100 -69 l 100 1042 z "},"¦":{"ha":338,"x_min":100,"x_max":238,"o":"m 100 1042 l 238 1042 l 238 557 l 100 557 l 100 1042 m 100 415 l 238 415 l 238 -69 l 100 -69 l 100 415 z "},"†":{"ha":576,"x_min":50,"x_max":526,"o":"m 228 671 l 50 671 l 50 774 l 228 774 l 228 972 l 350 972 l 350 774 l 526 774 l 526 671 l 350 671 l 350 281 l 228 281 l 228 671 z "},"‡":{"ha":576,"x_min":50,"x_max":526,"o":"m 350 671 l 350 301 l 526 301 l 526 199 l 350 199 l 350 0 l 228 0 l 228 199 l 50 199 l 50 301 l 228 301 l 228 671 l 50 671 l 50 774 l 228 774 l 228 972 l 350 972 l 350 774 l 526 774 l 526 671 l 350 671 z "},"№":{"ha":1736,"x_min":100,"x_max":1636,"o":"m 100 972 l 246 972 l 731 206 l 731 972 l 860 972 l 860 0 l 714 0 l 229 763 l 229 0 l 100 0 l 100 972 m 1297 258 q 1124 306 1200 258 q 1003 436 1047 353 q 960 625 960 519 q 1003 815 960 731 q 1124 946 1047 899 q 1297 993 1200 993 q 1472 946 1394 993 q 1592 815 1549 899 q 1636 625 1636 731 q 1592 436 1636 519 q 1472 306 1549 353 q 1297 258 1394 258 m 1297 372 q 1449 442 1390 372 q 1507 625 1507 513 q 1449 808 1507 738 q 1297 879 1390 879 q 1147 808 1204 879 q 1089 625 1089 738 q 1147 442 1089 513 q 1297 372 1204 372 m 978 114 l 1608 114 l 1608 0 l 978 0 l 978 114 z "},"̈":{"ha":0,"x_min":-485,"x_max":-69,"o":"m -401 831 q -461 853 -437 831 q -485 911 -485 876 q -461 969 -485 946 q -401 992 -437 992 q -340 969 -364 992 q -317 911 -317 946 q -340 853 -317 876 q -401 831 -364 831 m -154 831 q -212 853 -189 831 q -236 911 -236 876 q -212 969 -236 946 q -154 992 -189 992 q -93 969 -117 992 q -69 911 -69 946 q -93 853 -69 876 q -154 831 -117 831 z "},"̇":{"ha":0,"x_min":-247,"x_max":-69,"o":"m -160 825 q -222 851 -196 825 q -247 913 -247 876 q -222 976 -247 950 q -160 1001 -196 1001 q -95 976 -121 1001 q -69 913 -69 950 q -95 850 -69 875 q -160 825 -121 825 z "},"̀":{"ha":0,"x_min":-326,"x_max":-69,"o":"m -162 789 l -326 994 l -167 994 l -69 789 l -162 789 z "},"́":{"ha":0,"x_min":-326,"x_max":-69,"o":"m -229 994 l -69 994 l -232 789 l -326 789 l -229 994 z "},"̋":{"ha":0,"x_min":-490,"x_max":-69,"o":"m -393 994 l -272 994 l -381 789 l -490 789 l -393 994 m -194 994 l -69 994 l -183 789 l -292 789 l -194 994 z "},"̂":{"ha":0,"x_min":-499,"x_max":-69,"o":"m -231 994 l -69 789 l -172 789 l -285 910 l -397 789 l -499 789 l -337 994 l -231 994 z "},"̌":{"ha":0,"x_min":-499,"x_max":-69,"o":"m -499 994 l -397 994 l -285 874 l -172 994 l -69 994 l -231 789 l -337 789 l -499 994 z "},"̆":{"ha":0,"x_min":-433,"x_max":-69,"o":"m -251 785 q -381 836 -329 785 q -433 964 -433 888 l -331 964 q -308 902 -331 926 q -251 878 -286 878 q -194 902 -217 878 q -172 964 -172 926 l -69 964 q -122 836 -69 888 q -251 785 -174 785 z "},"̊":{"ha":0,"x_min":-376,"x_max":-69,"o":"m -222 765 q -333 806 -289 765 q -376 908 -376 847 q -333 1012 -376 971 q -222 1053 -289 1053 q -113 1012 -157 1053 q -69 908 -69 971 q -113 806 -69 847 q -222 765 -157 765 m -222 839 q -170 858 -190 839 q -150 908 -150 878 q -170 959 -150 939 q -222 979 -190 979 q -274 959 -254 979 q -294 908 -294 939 q -274 858 -294 878 q -222 839 -254 839 z "},"̃":{"ha":0,"x_min":-569,"x_max":-69,"o":"m -308 947 q -262 919 -278 928 q -225 911 -246 911 q -182 929 -199 911 q -162 981 -165 947 l -69 965 q -117 856 -76 896 q -225 815 -158 815 q -331 850 -276 815 q -356 867 -340 856 q -385 883 -372 878 q -414 889 -399 889 q -458 870 -440 889 q -478 818 -475 851 l -569 833 q -522 942 -562 901 q -417 983 -481 983 q -308 947 -360 983 z "},"̄":{"ha":0,"x_min":-443,"x_max":-69,"o":"m -443 932 l -69 932 l -69 836 l -443 836 l -443 932 z "},"̒":{"ha":0,"x_min":-251,"x_max":-69,"o":"m -107 789 l -251 789 l -168 994 l -69 994 l -107 789 z "},"̦":{"ha":0,"x_min":-276,"x_max":-69,"o":"m -217 -58 l -69 -58 l -182 -264 l -276 -264 l -217 -58 z "},"̧":{"ha":0,"x_min":-328,"x_max":-69,"o":"m -168 -204 l -328 -204 l -135 40 l -69 0 l -168 -204 z "},"̨":{"ha":0,"x_min":-289,"x_max":-65,"o":"m -132 -264 q -246 -226 -203 -264 q -289 -126 -289 -189 q -269 -53 -289 -90 q -218 10 -250 -17 l -126 0 q -169 -51 -154 -28 q -183 -103 -183 -75 q -165 -152 -183 -135 q -117 -169 -147 -169 q -79 -165 -92 -169 l -65 -256 q -132 -264 -93 -264 z "},"´":{"ha":694,"x_min":69,"x_max":326,"o":"m 167 994 l 326 994 l 164 789 l 69 789 l 167 994 z "},"˘":{"ha":503,"x_min":69,"x_max":433,"o":"m 251 785 q 122 836 174 785 q 69 964 69 888 l 172 964 q 194 902 172 926 q 251 878 217 878 q 308 902 286 878 q 331 964 331 926 l 433 964 q 381 836 433 888 q 251 785 329 785 z "},"ˇ":{"ha":568,"x_min":69,"x_max":499,"o":"m 69 994 l 171 994 l 283 874 l 396 994 l 499 994 l 338 789 l 231 789 l 69 994 z "},"¸":{"ha":397,"x_min":69,"x_max":328,"o":"m 229 -204 l 69 -204 l 263 40 l 328 0 l 229 -204 z "},"ˆ":{"ha":568,"x_min":69,"x_max":499,"o":"m 338 994 l 499 789 l 396 789 l 283 910 l 171 789 l 69 789 l 231 994 l 338 994 z "},"¨":{"ha":554,"x_min":69,"x_max":485,"o":"m 153 831 q 93 853 117 831 q 69 911 69 876 q 93 969 69 946 q 153 992 117 992 q 214 969 190 992 q 238 911 238 946 q 214 853 238 876 q 153 831 190 831 m 400 831 q 342 853 365 831 q 318 911 318 876 q 342 969 318 946 q 400 992 365 992 q 461 969 438 992 q 485 911 485 946 q 461 853 485 876 q 400 831 438 831 z "},"˙":{"ha":317,"x_min":69,"x_max":247,"o":"m 157 825 q 95 851 121 825 q 69 913 69 876 q 95 976 69 950 q 157 1001 121 1001 q 222 976 196 1001 q 247 913 247 950 q 222 850 247 875 q 157 825 196 825 z "},"`":{"ha":396,"x_min":69,"x_max":326,"o":"m 233 789 l 69 994 l 229 994 l 326 789 l 233 789 z "},"˝":{"ha":560,"x_min":69,"x_max":490,"o":"m 167 994 l 288 994 l 179 789 l 69 789 l 167 994 m 365 994 l 490 994 l 376 789 l 268 789 l 365 994 z "},"¯":{"ha":513,"x_min":69,"x_max":443,"o":"m 69 932 l 443 932 l 443 836 l 69 836 l 69 932 z "},"˛":{"ha":374,"x_min":81,"x_max":304,"o":"m 238 -264 q 124 -226 167 -264 q 81 -126 81 -189 q 100 -53 81 -90 q 151 10 119 -17 l 243 0 q 201 -51 215 -28 q 186 -103 186 -75 q 204 -152 186 -135 q 253 -169 222 -169 q 290 -165 278 -169 l 304 -256 q 238 -264 276 -264 z "},"˚":{"ha":446,"x_min":69,"x_max":376,"o":"m 224 765 q 113 806 157 765 q 69 908 69 847 q 113 1012 69 971 q 224 1053 157 1053 q 333 1012 289 1053 q 376 908 376 971 q 333 806 376 847 q 224 765 289 765 m 224 839 q 276 858 256 839 q 296 908 296 878 q 276 959 296 939 q 224 979 256 979 q 172 959 192 979 q 151 908 151 939 q 172 858 151 878 q 224 839 192 839 z "},"˜":{"ha":639,"x_min":69,"x_max":569,"o":"m 331 947 q 377 919 361 928 q 414 911 393 911 q 457 929 440 911 q 476 981 474 947 l 569 965 q 522 856 563 896 q 414 815 481 815 q 308 850 363 815 q 283 867 299 856 q 253 883 267 878 q 225 889 240 889 q 181 870 199 889 q 161 818 164 851 l 69 833 q 117 942 76 901 q 222 983 158 983 q 331 947 279 983 z "}}}
